<svg xmlns="http://www.w3.org/2000/svg" xmlns:xlink="http://www.w3.org/1999/xlink" width="120" zoomAndPan="magnify" viewBox="0 0 90 112.499997" height="150" preserveAspectRatio="xMidYMid meet" version="1.0"><path fill="#000000" d="M 80 47.519531 L 68.519531 47.519531 C 65.71875 47.519531 58.859375 42.757812 54.941406 39.679688 L 59.980469 34.640625 C 62.082031 32.539062 61.519531 29.039062 58.71875 26.238281 C 55.921875 23.4375 52.421875 22.878906 50.320312 24.980469 L 43.320312 31.980469 C 41.21875 31.699219 39.121094 31.839844 37.160156 32.539062 C 37.019531 32.539062 36.878906 32.679688 36.878906 32.679688 L 12.660156 50.878906 C 11.257812 51.441406 10.28125 52.558594 9.71875 53.960938 C 9.160156 55.359375 9.300781 57.039062 9.859375 58.441406 C 10.839844 60.261719 12.660156 61.519531 14.757812 61.519531 L 8.738281 74.261719 C 8.460938 74.820312 8.597656 75.378906 9.019531 75.800781 C 9.300781 76.082031 9.578125 76.21875 10 76.21875 C 10.140625 76.21875 10.417969 76.21875 10.558594 76.082031 L 24.417969 69.5 C 24.699219 70.058594 25.121094 70.621094 25.539062 71.179688 C 26.660156 72.300781 28.058594 72.859375 29.601562 72.859375 L 66 72.859375 C 66.421875 72.859375 66.699219 72.859375 66.980469 72.859375 L 66.980469 74.960938 C 66.980469 75.800781 67.539062 76.359375 68.378906 76.359375 L 80 76.359375 C 80.839844 76.359375 81.402344 75.800781 81.402344 74.960938 L 81.402344 48.917969 C 81.402344 48.21875 80.699219 47.519531 80 47.519531 Z M 14.757812 58.71875 C 13.78125 58.71875 12.800781 58.160156 12.378906 57.179688 C 12.097656 56.480469 11.960938 55.78125 12.238281 54.941406 C 12.519531 54.238281 13.078125 53.679688 13.78125 53.398438 C 13.917969 53.398438 14.058594 53.261719 14.058594 53.261719 L 38.28125 35.058594 C 38.980469 34.78125 39.820312 34.640625 40.519531 34.5 L 17.28125 57.878906 L 15.320312 58.71875 C 15.179688 58.71875 15.039062 58.71875 14.757812 58.71875 Z M 12.9375 71.878906 L 17.417969 62.5 L 22.320312 67.398438 Z M 24.699219 65.859375 L 18.960938 60.121094 L 52 27.078125 C 52.980469 26.097656 55.082031 26.9375 56.480469 28.339844 C 57.878906 29.738281 58.859375 31.699219 57.742188 32.820312 L 51.859375 38.839844 Z M 40.378906 57.460938 C 40.378906 58.441406 39.960938 59.417969 39.261719 60.261719 C 38.558594 60.960938 37.578125 61.378906 36.460938 61.378906 L 33.101562 61.378906 L 39.398438 55.078125 C 40.101562 55.78125 40.378906 56.621094 40.378906 57.460938 Z M 29.601562 70.058594 C 28.757812 70.058594 28.058594 69.78125 27.5 69.21875 C 27.078125 68.800781 26.800781 68.378906 26.660156 67.820312 L 30.300781 64.179688 L 50.460938 64.179688 C 51.300781 64.179688 51.859375 63.621094 51.859375 62.78125 C 51.859375 61.941406 51.300781 61.378906 50.460938 61.378906 L 41.921875 61.378906 C 42.761719 60.261719 43.179688 58.859375 43.179688 57.460938 C 43.179688 55.78125 42.621094 54.238281 41.5 52.980469 L 52.980469 41.5 C 55.78125 43.878906 62.78125 48.917969 67.121094 50.039062 L 67.121094 69.921875 C 66.839844 69.921875 66.558594 69.921875 66.140625 69.921875 L 29.601562 69.921875 Z M 78.601562 73.558594 L 69.921875 73.558594 L 69.921875 50.320312 L 78.601562 50.320312 Z M 78.601562 73.558594 " fill-opacity="1" fill-rule="nonzero"/></svg>