<svg xmlns="http://www.w3.org/2000/svg" xmlns:xlink="http://www.w3.org/1999/xlink" width="120" zoomAndPan="magnify" viewBox="0 0 90 112.499997" height="150" preserveAspectRatio="xMidYMid meet" version="1.0"><path fill="#000000" d="M 4.640625 60.011719 C 4.640625 60.011719 8.027344 53.664062 16.382812 49.960938 C 16.382812 49.960938 22.308594 45.625 25.269531 36.632812 C 25.269531 36.632812 25.269531 44.355469 23.683594 46.789062 C 23.683594 46.789062 28.65625 45.203125 31.722656 45.203125 C 31.722656 45.203125 39.128906 37.902344 38.175781 33.988281 C 38.175781 33.988281 39.976562 41.605469 36.695312 44.355469 L 43.148438 44.25 C 43.148438 44.25 50.976562 38.113281 51.1875 32.824219 C 51.1875 32.824219 52.351562 40.546875 47.378906 44.566406 L 54.996094 45.625 C 54.996094 45.625 62.71875 40.125 63.777344 35.46875 C 63.777344 35.46875 64.730469 41.394531 58.910156 46.152344 C 58.910156 46.152344 68.855469 49.539062 75.308594 40.546875 C 75.308594 40.546875 73.191406 46.046875 71.183594 47.316406 C 71.183594 47.316406 79.328125 46.257812 81.972656 42.558594 C 81.972656 42.558594 80.492188 46.578125 77.210938 48.585938 C 77.210938 48.585938 82.289062 49.960938 85.253906 45.625 C 85.253906 45.625 83.984375 52.710938 70.125 54.195312 C 59.863281 55.355469 55.632812 54.933594 54.152344 54.722656 C 56.265625 57.367188 57.535156 60.648438 57.535156 64.347656 C 57.535156 72.917969 50.554688 79.898438 41.984375 79.898438 C 33.417969 79.898438 26.433594 72.917969 26.433594 64.347656 C 26.433594 60.222656 28.019531 56.414062 30.664062 53.664062 C 22.519531 54.195312 13.210938 55.992188 4.640625 60.011719 Z M 4.640625 60.011719 " fill-opacity="1" fill-rule="evenodd"/></svg>