<svg xmlns="http://www.w3.org/2000/svg" xmlns:xlink="http://www.w3.org/1999/xlink" width="120" zoomAndPan="magnify" viewBox="0 0 90 112.499997" height="150" preserveAspectRatio="xMidYMid meet" version="1.0"><path fill="#000000" d="M 54.015625 13.160156 C 54.925781 11.363281 56.898438 9.890625 59.226562 9.304688 C 59.84375 9.15625 61.402344 9.066406 62.699219 9.125 C 66.9375 9.304688 70.621094 11.570312 72.53125 15.164062 C 73.035156 16.105469 73.445312 16.988281 73.445312 17.078125 C 73.445312 17.164062 72.710938 17.253906 71.828125 17.253906 C 69.265625 17.253906 67.203125 18.371094 66.203125 20.257812 C 65.527344 21.582031 65.730469 21.757812 66.910156 20.816406 C 68.410156 19.609375 70.382812 18.785156 72.355469 18.546875 L 74.035156 18.34375 L 74.035156 20.578125 C 74.035156 22.109375 73.859375 23.316406 73.445312 24.378906 C 72.855469 25.878906 71.679688 27.558594 71.179688 27.558594 C 71.03125 27.558594 70.382812 27.027344 69.765625 26.351562 C 68.351562 24.90625 64.082031 21.667969 60.667969 19.460938 L 58.136719 17.839844 L 58.136719 16.515625 C 58.136719 14.808594 58.664062 13.542969 59.933594 12.277344 C 60.875 11.363281 60.875 11.304688 60.195312 11.511719 C 57.636719 12.246094 56.222656 13.601562 55.925781 15.605469 L 55.722656 16.871094 L 54.574219 16.25 C 53.25 15.546875 53.128906 14.867188 54.015625 13.160156 Z M 27.308594 19.519531 C 29.695312 17.371094 33.167969 15.75 37.085938 15.042969 C 44.679688 13.632812 52.304688 15.664062 60.785156 21.316406 C 67.085938 25.496094 70.972656 30.179688 72.886719 35.800781 C 73.710938 38.1875 73.859375 39.128906 73.976562 42.21875 C 74.152344 46.753906 73.417969 50.226562 71.53125 53.996094 C 68.882812 59.238281 65.261719 62.417969 58.988281 64.890625 C 58.3125 65.15625 58.164062 65.421875 57.988281 66.921875 C 57.457031 71.75 59.636719 79.582031 62.667969 83.558594 C 63.257812 84.324219 63.730469 85.03125 63.730469 85.117188 C 63.730469 85.617188 61.992188 87.472656 60.375 88.679688 C 57.3125 91.007812 54.042969 92.449219 49.449219 93.539062 C 46.859375 94.15625 42.5 94.449219 42.089844 94.039062 C 41.972656 93.921875 42.058594 92.921875 42.265625 91.832031 C 42.796875 89.179688 42.796875 83.175781 42.265625 81.289062 C 41.324219 77.933594 39.382812 75.253906 37.878906 75.253906 C 37.554688 75.253906 35.90625 75.785156 34.226562 76.433594 C 30.546875 77.875 28.28125 78.492188 26.632812 78.492188 C 24.925781 78.492188 23.804688 77.375 23.539062 75.371094 C 23.476562 74.785156 23.394531 74.179688 23.34375 73.808594 C 23.328125 73.679688 23.3125 73.578125 23.304688 73.515625 C 23.277344 73.28125 22.863281 72.957031 22.363281 72.8125 C 20.832031 72.308594 20.359375 71.722656 20.539062 70.457031 C 20.683594 69.484375 20.597656 69.277344 19.976562 69.011719 C 18.949219 68.542969 18.800781 67.511719 19.535156 66.332031 C 19.890625 65.773438 20.15625 65.183594 20.15625 65.039062 C 20.15625 64.859375 19.625 64.507812 18.976562 64.214844 C 17.417969 63.507812 16.328125 62.476562 16.328125 61.742188 C 16.328125 61.386719 16.917969 60.503906 17.652344 59.738281 C 19.273438 58.058594 20.214844 56.207031 20.390625 54.351562 C 20.507812 52.996094 20.480469 52.9375 19.535156 52.582031 L 18.535156 52.171875 L 19.507812 52.082031 C 21.007812 51.878906 20.773438 50.847656 18.242188 46.8125 C 17.476562 45.578125 17.386719 45.105469 17.300781 42.75 C 17.210938 40.101562 17.210938 40.070312 17.710938 40.808594 C 20.800781 45.136719 25.160156 47.460938 30.753906 47.726562 L 33.550781 47.875 L 31.195312 47.136719 C 24.394531 44.957031 20.183594 41.925781 18.125 37.714844 C 15.265625 31.945312 17.917969 24.289062 23.777344 21.375 C 24.746094 20.902344 25.71875 20.492188 25.894531 20.492188 C 26.101562 20.492188 26.71875 20.050781 27.308594 19.519531 Z M 52.542969 19.667969 C 52.542969 19.519531 51.835938 19.253906 51.011719 19.078125 C 48.539062 18.578125 46.625 18.460938 44.738281 18.753906 C 37.910156 19.785156 33.140625 23.613281 31.492188 29.441406 C 30.929688 31.386719 30.988281 35.273438 31.609375 35.890625 C 31.84375 36.125 31.933594 36.007812 31.933594 35.332031 C 31.933594 34.859375 32.195312 33.476562 32.550781 32.269531 C 34.140625 26.527344 37.789062 22.640625 43.207031 20.933594 C 45.386719 20.226562 51.71875 19.429688 52.277344 19.785156 C 52.425781 19.875 52.542969 19.8125 52.542969 19.667969 Z M 26.632812 33.121094 C 25.808594 28.265625 27.925781 23.316406 32.226562 20.078125 C 34.347656 18.519531 34.167969 18.34375 31.753906 19.636719 C 26.542969 22.347656 23.984375 26.761719 24.367188 32.328125 C 24.628906 36.566406 26.21875 39.539062 29.546875 42.101562 C 30.546875 42.867188 31.34375 43.425781 31.34375 43.339844 C 31.34375 43.25 30.871094 42.425781 30.28125 41.542969 C 28.488281 38.6875 26.984375 35.300781 26.632812 33.121094 Z M 36.9375 33.5625 C 43.769531 31.53125 49.242188 28.589844 54.160156 24.203125 C 56.222656 22.375 54.574219 22.933594 47.714844 26.378906 C 41.5 29.5 38.496094 31.296875 36.347656 33.152344 L 35.316406 34.035156 Z M 45.296875 41.632812 C 51.304688 38.628906 55.484375 33.976562 57.371094 28.234375 C 58.222656 25.644531 57.839844 25.410156 56.371094 27.558594 C 52.894531 32.710938 49.332031 36.300781 45.121094 38.921875 C 42.179688 40.746094 37.644531 42.867188 35.113281 43.574219 L 33.550781 44.046875 L 36.347656 43.925781 C 39.792969 43.78125 42.296875 43.132812 45.296875 41.632812 Z M 54.191406 48.609375 C 59.992188 45.195312 63.699219 36.65625 62.257812 29.914062 C 62.050781 28.941406 61.785156 28.058594 61.667969 28 C 61.550781 27.910156 61.433594 28.675781 61.433594 29.707031 C 61.433594 33.445312 59.578125 38.921875 56.929688 42.867188 C 55.367188 45.195312 50.804688 49.933594 50.128906 49.933594 C 50.007812 49.933594 49.890625 50.050781 49.890625 50.226562 C 49.890625 50.609375 52.425781 49.640625 54.191406 48.609375 Z M 68.585938 45.519531 C 69.734375 41.25 69.351562 35.800781 67.644531 31.828125 C 66.910156 30.179688 65.96875 28.675781 66.527344 30.058594 C 67.558594 32.621094 67.882812 34.859375 67.734375 38.15625 C 67.644531 40.011719 67.351562 42.335938 67.117188 43.308594 C 65.851562 47.902344 62.582031 52.878906 58.871094 55.851562 C 57.8125 56.707031 57.015625 57.441406 57.074219 57.5 C 57.105469 57.558594 57.695312 57.414062 58.339844 57.175781 C 63.257812 55.441406 67.117188 51.054688 68.585938 45.519531 Z M 68.585938 45.519531 " fill-opacity="1" fill-rule="evenodd"/></svg>