<svg xmlns="http://www.w3.org/2000/svg" xmlns:xlink="http://www.w3.org/1999/xlink" width="122" zoomAndPan="magnify" viewBox="0 0 91.5 112.499997" height="150" preserveAspectRatio="xMidYMid meet" version="1.0"><path fill="#000000" d="M 75.234375 86.152344 L 54.078125 86.152344 C 53.15625 86.152344 52.425781 85.425781 52.425781 84.5 L 52.425781 62.023438 L 38.511719 62.023438 L 38.511719 84.5 C 38.511719 85.425781 37.785156 86.152344 36.859375 86.152344 L 15.707031 86.152344 C 14.78125 86.152344 14.054688 85.425781 14.054688 84.5 L 14.050781 50.160156 C 14.050781 49.234375 14.78125 48.507812 15.703125 48.507812 C 16.628906 48.507812 17.355469 49.234375 17.355469 50.160156 L 17.355469 82.847656 L 35.203125 82.847656 L 35.203125 60.371094 C 35.203125 59.445312 35.929688 58.71875 36.855469 58.71875 L 54.074219 58.71875 C 55 58.71875 55.726562 59.445312 55.726562 60.371094 L 55.726562 82.847656 L 73.574219 82.847656 L 73.578125 50.160156 C 73.578125 49.234375 74.304688 48.507812 75.230469 48.507812 C 76.152344 48.507812 76.882812 49.234375 76.882812 50.160156 L 76.882812 84.5 C 76.882812 85.394531 76.15625 86.152344 75.234375 86.152344 Z M 75.234375 86.152344 " fill-opacity="1" fill-rule="nonzero"/><path fill="#000000" d="M 85.214844 56.539062 C 84.886719 56.539062 84.550781 56.4375 84.253906 56.242188 L 45.484375 28.507812 L 6.75 56.242188 C 6.019531 56.769531 4.964844 56.605469 4.433594 55.84375 C 3.902344 55.117188 4.070312 54.058594 4.832031 53.527344 L 44.527344 25.105469 C 45.085938 24.707031 45.878906 24.707031 46.441406 25.105469 L 86.136719 53.527344 C 86.863281 54.058594 87.058594 55.082031 86.53125 55.84375 C 86.238281 56.308594 85.707031 56.539062 85.214844 56.539062 Z M 85.214844 56.539062 " fill-opacity="1" fill-rule="nonzero"/></svg>