<svg xmlns="http://www.w3.org/2000/svg" xmlns:xlink="http://www.w3.org/1999/xlink" width="120" zoomAndPan="magnify" viewBox="0 0 90 112.499997" height="150" preserveAspectRatio="xMidYMid meet" version="1.0"><path fill="#000000" d="M 28.992188 16.820312 C 27.785156 19.558594 26.042969 24.046875 25.828125 24.964844 C 25.785156 25.160156 25.554688 25.394531 24.96875 25.863281 C 24.527344 26.214844 23.960938 26.679688 23.707031 26.902344 L 23.246094 27.308594 L 23.316406 26.921875 C 23.523438 25.753906 23.335938 23.882812 22.804688 21.867188 C 22.332031 20.054688 22.292969 19.945312 22.125 19.945312 C 21.980469 19.945312 21.964844 20.101562 21.914062 21.886719 C 21.847656 24.34375 21.738281 25.164062 21.03125 28.441406 C 20.859375 29.25 20.722656 29.957031 20.738281 30.015625 C 20.75 30.070312 20.542969 30.421875 20.28125 30.796875 C 19.308594 32.179688 18.59375 33.398438 17.65625 35.269531 C 17.125 36.328125 16.652344 37.203125 16.609375 37.21875 C 16.566406 37.234375 16.527344 37.328125 16.527344 37.425781 C 16.527344 37.527344 16.296875 38.179688 16.015625 38.882812 C 15.171875 40.976562 14.792969 42.300781 15.042969 42.300781 C 15.167969 42.300781 15.316406 41.972656 16.007812 40.195312 C 16.730469 38.335938 16.726562 38.34375 16.871094 38.789062 C 16.984375 39.125 16.980469 39.132812 16.332031 40.253906 C 15.972656 40.875 15.457031 41.804688 15.191406 42.320312 L 14.703125 43.257812 L 14.675781 42.449219 C 14.652344 41.714844 14.636719 41.644531 14.480469 41.644531 C 14.222656 41.644531 14.128906 42.320312 14.257812 43.261719 L 14.355469 44.007812 L 14.058594 44.703125 C 11.964844 49.597656 11.679688 54.21875 13.246094 57.863281 C 13.484375 58.417969 13.300781 58.226562 13.039062 57.644531 C 11.757812 54.804688 11.6875 51.949219 12.730469 44.613281 C 13.316406 40.511719 13.375 39.964844 13.441406 37.878906 L 13.5 36.210938 L 14.203125 35.738281 C 15.824219 34.65625 17.328125 32.425781 16.699219 32.035156 C 16.390625 31.84375 14.378906 33.972656 13.769531 35.140625 L 13.519531 35.621094 L 13.457031 33.828125 C 13.417969 32.84375 13.351562 31.625 13.300781 31.125 L 13.210938 30.207031 L 13.539062 29.566406 C 13.832031 28.988281 13.914062 28.902344 14.378906 28.652344 C 15.046875 28.296875 15.566406 27.480469 15.566406 26.789062 C 15.566406 26.238281 14.464844 27.109375 13.867188 28.132812 C 13.621094 28.550781 13.355469 28.765625 13.089844 28.765625 C 13.019531 28.765625 12.902344 28.472656 12.789062 28.019531 C 12.542969 27.054688 12.378906 26.667969 12.210938 26.667969 C 12.046875 26.667969 12.042969 26.824219 12.195312 27.476562 C 12.261719 27.753906 12.300781 27.980469 12.285156 27.980469 C 12.273438 27.980469 12.074219 27.878906 11.847656 27.761719 C 11.09375 27.359375 10.683594 27.597656 11.03125 28.246094 C 11.128906 28.429688 11.988281 28.503906 11.988281 28.328125 C 11.988281 28.277344 12.074219 28.285156 12.207031 28.34375 C 12.328125 28.398438 12.425781 28.464844 12.425781 28.496094 C 12.425781 28.523438 12.5 29.078125 12.59375 29.726562 C 12.683594 30.375 12.78125 31.144531 12.8125 31.4375 L 12.867188 31.972656 L 12.535156 31.914062 C 12.355469 31.878906 11.988281 31.6875 11.726562 31.488281 C 11.191406 31.082031 10.941406 31.023438 10.941406 31.304688 C 10.941406 31.734375 11.492188 32.257812 11.945312 32.257812 C 12.027344 32.257812 12.289062 32.398438 12.523438 32.570312 L 12.949219 32.882812 L 12.949219 37.707031 L 12.664062 37.4375 C 11.976562 36.789062 11.289062 36.507812 11.289062 36.878906 C 11.289062 37.308594 12.035156 39.15625 12.484375 39.828125 L 12.804688 40.316406 L 12.351562 43.554688 C 11.78125 47.589844 11.65625 48.640625 11.585938 50.117188 L 11.523438 51.285156 L 11.296875 51.125 C 11.171875 51.039062 10.875 50.867188 10.632812 50.746094 C 10.394531 50.625 10.078125 50.398438 9.9375 50.246094 L 9.675781 49.964844 L 10.011719 50.191406 C 10.515625 50.527344 11.269531 50.617188 11.355469 50.351562 C 11.382812 50.269531 11.332031 50.253906 11.175781 50.292969 C 10.863281 50.371094 10.289062 50.046875 9.753906 49.492188 C 9.246094 48.960938 9.105469 48.914062 9.105469 49.273438 C 9.105469 50.160156 10.019531 51.140625 11.15625 51.476562 L 11.550781 51.59375 L 11.550781 52.40625 C 11.550781 54.164062 11.914062 56.171875 12.460938 57.429688 L 12.757812 58.109375 L 12.257812 57.648438 C 11.667969 57.105469 11.046875 56.601562 9.105469 55.089844 C 8.277344 54.445312 7.152344 53.457031 6.457031 52.761719 C 5.269531 51.574219 4.914062 51.363281 4.914062 51.828125 C 4.914062 52.058594 7.726562 56.367188 8.566406 57.425781 C 10.191406 59.46875 12.234375 61.011719 13.976562 61.519531 C 14.324219 61.617188 14.339844 61.632812 14.207031 61.78125 C 14.113281 61.882812 14.078125 62.035156 14.101562 62.203125 C 14.148438 62.523438 14.085938 62.53125 12.90625 62.339844 C 10.8125 61.996094 9.539062 62.332031 8.976562 63.378906 C 8.738281 63.820312 8.804688 63.851562 10.320312 64.015625 C 12.3125 64.234375 13.53125 63.992188 14.347656 63.21875 C 14.597656 62.976562 14.710938 62.929688 15 62.941406 C 15.492188 62.964844 15.476562 63.152344 14.949219 63.519531 C 13.378906 64.617188 12.128906 67.117188 12.015625 69.390625 C 11.953125 70.621094 12.011719 70.695312 12.667969 70.210938 C 14.167969 69.113281 15.503906 66.820312 15.855469 64.746094 L 15.960938 64.136719 L 16.832031 65.371094 C 18.707031 68.023438 18.765625 68.117188 18.496094 67.902344 C 18.148438 67.628906 16.917969 66.441406 16.460938 65.9375 C 16.054688 65.488281 15.742188 65.394531 15.742188 65.722656 C 15.742188 66.414062 17.082031 69.683594 17.910156 71.011719 C 18.160156 71.414062 18.363281 71.75 18.363281 71.761719 C 18.363281 71.773438 17.9375 71.566406 17.417969 71.300781 C 16.089844 70.628906 15.925781 70.785156 16.484375 72.1875 C 17.402344 74.496094 21.105469 77.394531 23.136719 77.402344 C 23.292969 77.402344 23.441406 77.441406 23.472656 77.488281 C 23.507812 77.546875 23.054688 77.582031 22.1875 77.589844 C 19.125 77.613281 18.855469 77.792969 20.851562 78.476562 C 24.40625 79.691406 26.234375 79.695312 27.25 78.480469 L 27.554688 78.117188 L 27.886719 78.351562 C 28.304688 78.636719 28.316406 78.714844 27.921875 78.652344 C 27.492188 78.582031 27.503906 78.847656 27.9375 79.027344 C 28.242188 79.15625 28.324219 79.15625 28.710938 79.019531 C 28.804688 78.984375 28.589844 79.125 28.230469 79.324219 C 27.335938 79.824219 26.566406 80.117188 24.527344 80.722656 C 22.253906 81.394531 22.175781 81.484375 23.484375 81.882812 C 25.976562 82.640625 28.296875 82.792969 30.316406 82.332031 C 30.625 82.257812 30.890625 82.214844 30.90625 82.234375 C 30.96875 82.296875 28.363281 83.578125 27.855469 83.738281 C 25.59375 84.449219 31.933594 85.429688 34.5625 84.773438 C 34.664062 84.746094 34.523438 84.925781 34.21875 85.203125 C 33.542969 85.832031 33.582031 85.960938 34.449219 85.960938 C 35.726562 85.960938 38.910156 85.640625 39.355469 85.46875 C 39.53125 85.402344 39.394531 85.976562 39.074219 86.660156 C 38.859375 87.113281 38.359375 89.066406 38.359375 89.453125 C 38.359375 89.898438 39.054688 89.328125 40.019531 88.101562 C 40.320312 87.714844 40.675781 87.273438 40.808594 87.121094 L 41.054688 86.839844 L 41.433594 87.003906 C 42.882812 87.644531 44.742188 87.199219 45.101562 86.125 C 45.128906 86.035156 45.210938 86.066406 45.421875 86.242188 C 46.234375 86.929688 47.296875 86.726562 48.136719 85.726562 L 48.421875 85.386719 L 49.875 86.832031 C 52.222656 89.171875 52.300781 89.199219 52.214844 87.726562 C 52.167969 86.84375 51.859375 85.425781 51.625 84.984375 C 51.484375 84.726562 51.542969 84.722656 52.140625 84.964844 C 54.21875 85.804688 56.917969 85.488281 59.960938 84.050781 C 60.996094 83.5625 63.257812 82.308594 63.347656 82.175781 C 63.5 81.945312 63.304688 81.855469 62.648438 81.855469 C 62.28125 81.855469 61.339844 81.75 60.5625 81.621094 L 59.144531 81.386719 L 60.5625 80.675781 C 62.402344 79.753906 63.875 78.855469 65.621094 77.585938 C 66.648438 76.84375 66.539062 76.566406 65.335938 76.871094 C 64.628906 77.046875 63.707031 77.179688 62.640625 77.257812 L 62.078125 77.300781 L 62.773438 76.929688 C 63.152344 76.726562 63.628906 76.457031 63.832031 76.328125 C 64.144531 76.128906 64.300781 76.09375 64.835938 76.089844 C 66.035156 76.085938 67.628906 75.769531 68.75 75.304688 C 69.722656 74.90625 71.269531 73.820312 71.285156 73.527344 C 71.289062 73.472656 71.546875 73.230469 71.859375 72.992188 C 73.449219 71.773438 75.3125 69.492188 75.828125 68.128906 C 76.152344 67.265625 75.980469 67.164062 75.238281 67.785156 C 74.683594 68.246094 73.5625 69.019531 73.445312 69.019531 C 73.335938 69.019531 74.246094 67.246094 74.988281 66.015625 C 75.8125 64.652344 75.839844 64.304688 75.082031 64.75 L 74.757812 64.941406 L 75.277344 63.902344 C 75.5625 63.332031 75.867188 62.667969 75.953125 62.425781 C 76.328125 61.398438 76.488281 61.492188 77.144531 63.125 C 78.003906 65.257812 78.1875 66.359375 77.863281 67.453125 L 77.722656 67.921875 L 77.605469 67.695312 C 77.367188 67.242188 76.429688 62.675781 76.429688 61.972656 C 76.429688 61.957031 76.371094 61.945312 76.300781 61.945312 C 76.09375 61.945312 76.40625 64.773438 76.796875 66.441406 C 77.289062 68.566406 77.648438 68.992188 78.128906 68.015625 C 78.753906 66.746094 78.542969 65.203125 77.320312 62.152344 L 77.140625 61.707031 L 77.59375 61.878906 C 79.421875 62.582031 82.1875 61.640625 84.441406 59.546875 C 85.503906 58.5625 85.390625 58.515625 83.007812 58.933594 C 80.082031 59.449219 78.953125 59.726562 78.144531 60.132812 C 77.867188 60.269531 77.789062 60.28125 77.730469 60.1875 C 77.609375 59.992188 77.632812 59.960938 78.15625 59.621094 C 78.914062 59.128906 80.25 57.738281 80.875 56.792969 C 81.570312 55.738281 82.675781 53.542969 82.601562 53.355469 C 82.492188 53.070312 82.234375 53.226562 81.800781 53.839844 C 81.085938 54.855469 77.796875 58.332031 78.074219 57.78125 C 78.402344 57.132812 78.898438 55.777344 79.09375 55.003906 L 79.292969 54.21875 L 79.757812 54.152344 C 81.082031 53.960938 82.121094 52.957031 82.324219 51.675781 C 82.4375 50.953125 81.300781 51.304688 79.9375 52.414062 C 79.546875 52.730469 79.480469 52.761719 79.535156 52.59375 C 79.621094 52.324219 79.601562 49.617188 79.507812 49.015625 C 79.421875 48.449219 79.625 47.800781 79.890625 47.800781 C 80.609375 47.800781 81.464844 46.625 81.796875 45.179688 C 82.125 43.757812 80.753906 44.78125 79.800781 46.675781 C 79.441406 47.382812 79.132812 47.613281 79.140625 47.164062 C 79.140625 47.105469 78.996094 46.574219 78.820312 45.976562 L 78.496094 44.898438 L 78.648438 44.273438 C 78.730469 43.933594 78.875 43.386719 78.96875 43.0625 L 79.144531 42.472656 L 79.726562 42.472656 C 80.925781 42.472656 81.382812 42.007812 81.542969 40.621094 C 81.640625 39.796875 81.054688 39.882812 80.03125 40.839844 C 79.761719 41.089844 79.566406 41.234375 79.59375 41.164062 C 79.617188 41.089844 79.976562 40.109375 80.386719 38.980469 C 80.796875 37.851562 81.160156 36.816406 81.195312 36.679688 C 81.226562 36.546875 81.308594 36.414062 81.375 36.390625 C 81.4375 36.363281 81.574219 36.214844 81.671875 36.054688 C 81.804688 35.839844 81.972656 35.722656 82.292969 35.617188 C 83.1875 35.320312 84.121094 34 83.433594 34.003906 C 83.050781 34.007812 82.136719 34.703125 81.851562 35.207031 C 81.664062 35.546875 81.671875 35.179688 81.875 34.25 C 82.238281 32.601562 82.292969 30.25 81.96875 30.25 C 81.894531 30.25 81.84375 30.339844 81.84375 30.480469 C 81.84375 30.828125 81.769531 30.691406 81.667969 30.160156 C 81.550781 29.519531 81.664062 29.453125 82.0625 29.9375 C 82.597656 30.585938 82.773438 30.292969 82.269531 29.589844 C 81.753906 28.875 81.15625 28.925781 81.273438 29.675781 C 81.382812 30.386719 81.605469 31.035156 81.734375 31.035156 C 81.832031 31.035156 81.851562 31.101562 81.8125 31.320312 C 81.785156 31.476562 81.738281 31.847656 81.707031 32.148438 C 81.671875 32.449219 81.636719 32.695312 81.621094 32.695312 C 81.605469 32.695312 81.402344 32.574219 81.167969 32.429688 C 79.988281 31.695312 79.726562 32.125 80.757812 33.101562 L 81.421875 33.726562 L 81.195312 34.582031 C 80.988281 35.359375 80.878906 35.570312 80.6875 35.574219 C 80.589844 35.574219 80.609375 35.90625 80.710938 35.941406 C 80.765625 35.957031 80.738281 36.152344 80.636719 36.449219 L 80.476562 36.929688 L 80.285156 36.496094 C 79.800781 35.402344 79.25 35.109375 79.339844 35.996094 C 79.402344 36.59375 79.851562 37.703125 80.042969 37.742188 C 80.152344 37.765625 80.109375 37.964844 79.78125 38.878906 C 79.5625 39.488281 79.238281 40.414062 79.058594 40.9375 L 78.734375 41.890625 L 78.582031 41.320312 C 78.398438 40.648438 78.054688 39.878906 77.828125 39.636719 C 77.542969 39.328125 76.429688 36.625 76.429688 36.234375 C 76.425781 35.347656 76.117188 34.578125 75.851562 34.796875 C 75.738281 34.894531 75.695312 34.898438 75.667969 34.808594 C 75.597656 34.605469 73.824219 31.082031 73.539062 30.585938 L 73.257812 30.09375 L 73.59375 29.585938 C 74.988281 27.488281 74.703125 24.5 72.9375 22.738281 C 72.367188 22.167969 71.53125 21.632812 71.367188 21.734375 C 71.105469 21.898438 71.496094 26.394531 71.882812 27.625 C 72.109375 28.351562 72.101562 28.351562 71.539062 27.605469 C 71.28125 27.257812 70.503906 26.410156 69.820312 25.722656 C 68.714844 24.617188 68.570312 24.441406 68.570312 24.183594 C 68.570312 23.203125 67.792969 21.0625 67.1875 20.371094 C 66.496094 19.585938 64.625 18.992188 63.820312 19.300781 C 63.527344 19.414062 63.9375 20.246094 64.878906 21.4375 C 65.109375 21.730469 65.351562 22.046875 65.417969 22.140625 C 65.484375 22.234375 65.113281 22.046875 64.589844 21.730469 C 63.578125 21.113281 61.894531 20.246094 61.226562 19.996094 L 60.828125 19.84375 L 60.988281 19.523438 C 61.226562 19.058594 60.996094 18.199219 60.632812 18.199219 C 60.429688 18.199219 60.367188 18.359375 60.300781 19.054688 C 60.253906 19.566406 60.234375 19.605469 60.066406 19.558594 C 59.964844 19.53125 59.835938 19.511719 59.773438 19.511719 C 59.714844 19.507812 59.664062 19.433594 59.664062 19.339844 C 59.664062 19.0625 59.304688 18.722656 58.949219 18.664062 C 58.597656 18.609375 58.433594 18.945312 58.566406 19.46875 C 58.617188 19.667969 58.695312 19.71875 59.210938 19.902344 C 59.304688 19.933594 59.300781 19.984375 59.191406 20.136719 C 59.042969 20.351562 59.007812 20.78125 59.132812 20.855469 C 59.253906 20.933594 60.449219 20.441406 60.449219 20.316406 C 60.449219 20.171875 60.421875 20.164062 61.160156 20.507812 C 61.78125 20.796875 61.792969 20.808594 61.484375 20.8125 C 61.308594 20.816406 60.699219 20.878906 60.132812 20.953125 C 59.5625 21.027344 59.023438 21.097656 58.933594 21.105469 C 58.808594 21.121094 58.734375 21.023438 58.628906 20.71875 C 58.390625 20.042969 58.160156 19.90625 57.414062 20.007812 C 56.898438 20.074219 56.957031 20.617188 57.523438 21.0625 C 58.058594 21.484375 57.46875 21.503906 56.023438 21.117188 C 55.363281 20.9375 54.671875 20.773438 54.492188 20.75 L 54.164062 20.710938 L 54.164062 21.9375 L 54.578125 21.988281 C 54.808594 22.015625 55.292969 22.0625 55.65625 22.089844 L 56.320312 22.144531 L 56.160156 22.460938 C 55.894531 22.976562 55.9375 23.210938 56.28125 23.140625 C 56.71875 23.058594 56.992188 22.808594 57.078125 22.425781 C 57.199219 21.863281 57.242188 21.824219 57.726562 21.824219 C 57.972656 21.824219 58.21875 21.773438 58.28125 21.714844 C 58.632812 21.363281 58.867188 21.765625 58.550781 22.1875 C 58.144531 22.734375 58.175781 23.523438 58.605469 23.523438 C 58.996094 23.523438 59.347656 22.941406 59.28125 22.402344 C 59.203125 21.765625 59.179688 21.683594 59.058594 21.609375 C 58.867188 21.488281 61.101562 21.171875 62.136719 21.167969 C 62.710938 21.167969 63.585938 21.597656 65.277344 22.710938 C 66.289062 23.378906 66.28125 23.363281 65.539062 23.199219 C 64.191406 22.898438 61.148438 23.070312 61.148438 23.445312 C 61.148438 23.851562 63.0625 24.949219 64.328125 25.269531 C 65.570312 25.585938 67.210938 25.476562 67.976562 25.03125 C 68.375 24.796875 70.054688 26.425781 71.679688 28.628906 L 71.933594 28.976562 L 71.457031 28.597656 C 70.183594 27.597656 68.453125 27.03125 66.089844 26.839844 C 64.539062 26.714844 64.472656 26.761719 65.085938 27.539062 C 65.878906 28.542969 67.316406 29.339844 68.929688 29.667969 C 69.476562 29.78125 69.925781 30.335938 69.46875 30.335938 C 69.335938 30.335938 69.34375 30.539062 69.492188 30.890625 C 69.546875 31.027344 69.527344 31.046875 69.378906 30.996094 C 68.800781 30.8125 68.15625 31.230469 68.339844 31.671875 C 68.648438 32.40625 69.605469 32.6875 69.878906 32.121094 L 70.007812 31.855469 L 70.949219 33.199219 C 71.464844 33.9375 71.890625 34.605469 71.890625 34.6875 C 71.886719 35.074219 71.753906 35.058594 71.019531 34.570312 C 70.210938 34.027344 70.027344 34 69.984375 34.414062 C 69.929688 34.976562 70.515625 35.402344 71.519531 35.53125 C 71.769531 35.566406 71.976562 35.625 71.976562 35.671875 C 71.976562 35.714844 72.074219 35.75 72.195312 35.75 C 72.316406 35.75 72.414062 35.710938 72.414062 35.664062 C 72.414062 35.355469 72.761719 35.769531 73.703125 37.179688 C 74.777344 38.796875 74.898438 39.027344 74.617188 38.949219 C 73.476562 38.625 71.339844 38.566406 71.296875 38.855469 C 71.230469 39.316406 73.007812 39.820312 74.402344 39.734375 L 75.292969 39.683594 L 75.5 40.007812 C 75.976562 40.761719 76.996094 42.703125 77.445312 43.703125 L 77.925781 44.78125 L 77.792969 45.570312 C 77.636719 46.492188 77.390625 48.9375 77.390625 49.59375 C 77.390625 49.84375 77.367188 50.167969 77.335938 50.316406 L 77.285156 50.585938 L 76.695312 49.828125 C 75.277344 48 74.511719 47.6875 75.023438 49.148438 C 75.371094 50.132812 76.070312 50.828125 76.941406 51.046875 L 77.324219 51.144531 L 77.269531 52.027344 C 77.242188 52.511719 77.171875 54.085938 77.121094 55.527344 C 77.066406 56.96875 76.992188 58.460938 76.957031 58.847656 L 76.890625 59.546875 L 76.878906 58.882812 C 76.855469 57.519531 76.167969 55.753906 75.125 54.367188 C 73.863281 52.695312 70.878906 50.328125 70.835938 50.964844 C 70.613281 54.070312 72.839844 58.253906 75.402344 59.554688 C 76.371094 60.042969 76.484375 59.621094 75.535156 59.0625 C 73.570312 57.902344 72 55.414062 71.496094 52.664062 C 71.289062 51.53125 71.292969 51.53125 72.195312 52.230469 C 74.828125 54.277344 76.246094 56.574219 76.480469 59.175781 C 76.519531 59.625 76.5625 59.765625 76.667969 59.765625 C 76.777344 59.765625 76.78125 59.789062 76.695312 59.894531 C 76.507812 60.117188 76.65625 60.316406 76.960938 60.257812 C 77.179688 60.210938 77.234375 60.234375 77.296875 60.398438 C 77.402344 60.675781 77.375 60.675781 76.878906 60.425781 C 76.636719 60.300781 76.339844 60.199219 76.226562 60.199219 C 76.109375 60.199219 75.449219 59.863281 74.757812 59.449219 C 73.289062 58.570312 71.402344 57.632812 70.21875 57.199219 C 67.804688 56.304688 64.890625 55.945312 65.328125 56.589844 C 65.429688 56.742188 68.6875 58.988281 69.503906 59.46875 C 70.394531 59.992188 71.292969 60.398438 71.917969 60.554688 C 72.394531 60.675781 72.535156 60.8125 72.179688 60.8125 C 71.394531 60.816406 69.324219 61.875 69.375 62.242188 C 69.4375 62.675781 72.734375 62.46875 74.390625 61.925781 C 75.269531 61.636719 75.398438 61.8125 74.757812 62.4375 C 74.164062 63.015625 73.480469 63.945312 72.546875 65.445312 C 71.8125 66.628906 70.519531 68.050781 70.703125 67.480469 C 71.03125 66.4375 71.113281 64.128906 70.820312 64.128906 C 70.078125 64.125 67.359375 67.722656 66.90625 69.304688 L 66.75 69.847656 L 66.746094 69.195312 C 66.738281 68.234375 67.511719 65.5625 68.371094 63.578125 C 68.585938 63.089844 68.378906 62.882812 67.945312 63.152344 C 66.105469 64.289062 64.035156 68.089844 64.03125 70.335938 L 64.03125 70.996094 L 63.574219 71.148438 C 63.320312 71.234375 63.058594 71.324219 62.992188 71.351562 C 62.90625 71.386719 62.882812 71.359375 62.921875 71.261719 C 63.007812 71.039062 63.230469 69.402344 63.296875 68.515625 L 63.355469 67.710938 L 63.132812 67.710938 C 62.585938 67.710938 61.296875 69.558594 60.710938 71.183594 C 60.601562 71.484375 60.5 71.714844 60.480469 71.699219 C 60.449219 71.664062 60.691406 69.175781 60.757812 68.875 C 60.894531 68.257812 60.558594 68.460938 59.019531 69.9375 C 56.558594 72.300781 55.769531 73.339844 55.34375 74.804688 C 55.210938 75.261719 55.164062 75.320312 54.726562 75.570312 C 54.464844 75.71875 54.027344 76.046875 53.753906 76.296875 C 53.480469 76.542969 53.285156 76.675781 53.320312 76.585938 C 53.984375 74.820312 54.402344 70.820312 53.992188 70.15625 C 53.851562 69.929688 53.292969 70.328125 52.152344 71.464844 C 49.929688 73.6875 48.367188 76.519531 48.246094 78.546875 L 48.203125 79.300781 L 47.910156 79.390625 C 47.632812 79.476562 47.609375 79.46875 47.550781 79.25 C 47.410156 78.742188 47.476562 74.433594 47.636719 73.558594 C 47.851562 72.390625 48.40625 70.675781 48.496094 70.910156 C 48.582031 71.148438 48.820312 73.050781 48.882812 74.039062 C 48.953125 75.097656 48.988281 75.238281 49.167969 75.203125 C 49.542969 75.128906 48.921875 69.96875 48.53125 69.910156 C 47.914062 69.824219 47.0625 73.355469 47.054688 76.0625 L 47.046875 77.730469 L 46.730469 77.449219 C 45.808594 76.613281 44.21875 76.851562 43.757812 77.898438 C 43.59375 78.273438 43.578125 78.28125 43.265625 78.222656 C 42.878906 78.152344 42.984375 78.273438 42.570312 77.445312 C 42.375 77.0625 41.550781 75.628906 40.730469 74.257812 C 39.914062 72.890625 39.144531 71.601562 39.019531 71.394531 C 38.5625 70.628906 38.378906 71.023438 38.339844 72.867188 L 38.316406 73.878906 L 37 72.625 C 36.28125 71.9375 35.433594 71.074219 35.125 70.707031 C 34.105469 69.503906 34.121094 69.5 34.136719 70.992188 C 34.148438 72.261719 34.351562 73.214844 34.898438 74.582031 C 35.066406 75 35.199219 75.355469 35.1875 75.363281 C 35.144531 75.40625 33.632812 74.105469 32.988281 73.464844 C 32.320312 72.808594 31.996094 72.632812 31.855469 72.859375 C 31.808594 72.9375 32.128906 74.433594 32.292969 74.914062 C 32.367188 75.128906 32.003906 74.617188 31.625 73.984375 C 31.476562 73.726562 30.871094 72.59375 30.28125 71.460938 C 28.992188 68.972656 28.804688 68.671875 28.578125 68.671875 C 28.320312 68.671875 28.34375 68.882812 28.890625 71.359375 C 29.414062 73.75 29.945312 75.671875 30.273438 76.386719 C 30.390625 76.632812 30.507812 77.03125 30.542969 77.269531 C 30.621094 77.863281 31.0625 79.164062 31.34375 79.644531 L 31.574219 80.039062 L 30.972656 79.730469 C 30.640625 79.5625 30.074219 79.246094 29.714844 79.027344 L 29.058594 78.632812 L 29.046875 77.777344 C 29.027344 76.625 28.613281 75.035156 27.273438 70.984375 C 26.699219 69.257812 26.191406 67.679688 26.136719 67.476562 C 26.042969 67.109375 25.894531 66.976562 25.710938 67.089844 C 25.554688 67.1875 25.347656 68.832031 25.289062 70.441406 L 25.234375 71.90625 L 24.804688 71.097656 C 23.628906 68.894531 20.605469 65.035156 20.179688 65.199219 C 19.875 65.316406 19.753906 67.472656 19.988281 68.539062 C 20.152344 69.277344 18.273438 66.515625 17.304688 64.597656 C 16.523438 63.042969 16.535156 63.082031 16.855469 63.082031 C 16.988281 63.082031 17.214844 63.007812 17.359375 62.921875 L 17.621094 62.761719 L 18 63.050781 C 18.679688 63.566406 20.054688 63.921875 21.113281 63.851562 L 21.550781 63.824219 L 21.542969 63.246094 C 21.527344 61.945312 20.542969 61.132812 18.695312 60.902344 C 17.796875 60.785156 16.734375 60.867188 16.664062 61.050781 C 16.601562 61.214844 16.765625 61.421875 16.957031 61.421875 C 17.054688 61.421875 17.109375 61.503906 17.121094 61.675781 C 17.140625 61.921875 17.136719 61.925781 16.8125 61.855469 C 16.632812 61.816406 16.378906 61.773438 16.253906 61.753906 L 16.019531 61.726562 L 16.449219 61.160156 C 18.285156 58.742188 19.289062 54.519531 19.347656 48.9375 C 19.367188 47.46875 19.359375 47.40625 19.195312 47.40625 C 19.050781 47.40625 18.988281 47.535156 18.828125 48.148438 C 18.5625 49.160156 18.167969 50.238281 17.554688 51.640625 C 15.402344 56.566406 15.121094 57.464844 15.109375 59.414062 C 15.105469 59.964844 15.085938 60.367188 15.066406 60.304688 C 15.042969 60.242188 14.820312 59.863281 14.566406 59.460938 C 12.234375 55.746094 12.078125 51.164062 14.105469 45.921875 C 14.574219 44.710938 14.609375 44.640625 14.671875 44.808594 C 14.796875 45.167969 14.976562 44.894531 14.925781 44.417969 C 14.875 43.929688 14.875 43.921875 14.988281 44.21875 L 15.101562 44.527344 L 16.09375 44.550781 C 17.226562 44.578125 17.269531 44.558594 17.148438 44.035156 C 17.101562 43.824219 17.039062 43.464844 17.007812 43.238281 C 16.9375 42.691406 16.851562 42.699219 15.796875 43.351562 L 14.941406 43.875 L 15.5625 42.671875 C 16.707031 40.46875 17.25 39.59375 17.464844 39.59375 C 18.539062 39.589844 19.308594 38.371094 18.652344 37.710938 C 18.550781 37.609375 19.671875 35.714844 20.167969 35.140625 C 20.1875 35.121094 20.476562 35.074219 20.804688 35.046875 C 21.546875 34.976562 21.855469 34.796875 21.855469 34.4375 C 21.855469 34.066406 21.691406 34.042969 21.082031 34.332031 C 20.792969 34.472656 20.578125 34.542969 20.609375 34.492188 C 20.636719 34.441406 20.988281 33.882812 21.390625 33.253906 C 22.839844 30.972656 21.898438 31.863281 20.027344 34.542969 C 19.765625 34.917969 19.546875 35.214844 19.535156 35.203125 C 19.527344 35.191406 19.613281 34.808594 19.726562 34.351562 C 20.066406 32.976562 19.96875 32.648438 19.378906 33.195312 L 19.121094 33.4375 L 19.324219 33.085938 C 19.933594 32.058594 20.757812 30.871094 21.644531 29.734375 C 21.71875 29.640625 21.777344 29.636719 21.9375 29.722656 C 23.722656 30.679688 27.144531 28.886719 29.136719 25.953125 C 29.699219 25.121094 29.746094 24.921875 29.375 24.921875 C 28.902344 24.921875 26.796875 25.605469 25.5 26.175781 C 25.320312 26.257812 25.171875 26.304688 25.171875 26.285156 C 25.171875 26.238281 26.722656 25.097656 26.785156 25.097656 C 26.8125 25.097656 27.019531 24.964844 27.246094 24.800781 C 28.035156 24.238281 29.398438 23.523438 29.683594 23.523438 C 29.941406 23.523438 30.640625 23.691406 33.335938 24.398438 C 35.46875 24.957031 37.484375 24.550781 37.484375 23.5625 C 37.484375 23.089844 34.804688 22.21875 32.992188 22.105469 C 32.648438 22.085938 32.65625 22.078125 33.328125 21.84375 L 34.011719 21.605469 L 34.371094 21.867188 C 34.722656 22.125 35.476562 22.25 35.476562 22.046875 C 35.476562 21.886719 35.316406 21.542969 35.179688 21.40625 C 35.035156 21.261719 35.15625 21.207031 36.261719 20.929688 C 36.648438 20.832031 37.253906 21.175781 37.683594 21.742188 C 38.234375 22.464844 39.667969 22.71875 39.667969 22.09375 C 39.667969 21.585938 37.613281 20.484375 37.46875 20.914062 C 37.429688 21.027344 36.960938 20.835938 36.960938 20.703125 C 36.960938 20.601562 38.894531 20.6875 39.757812 20.828125 C 40.066406 20.878906 40.558594 20.9375 40.847656 20.953125 C 41.136719 20.972656 41.632812 21.074219 41.953125 21.179688 L 42.53125 21.367188 L 42.871094 21.195312 C 43.234375 21.007812 43.308594 20.8125 43.167969 20.441406 C 43.058594 20.152344 42.847656 20.140625 42.351562 20.394531 C 41.929688 20.609375 41.671875 20.632812 40.601562 20.539062 C 39.644531 20.457031 39.578125 20.417969 39.96875 20.136719 L 40.285156 19.914062 L 40.253906 19.316406 C 40.210938 18.460938 40.210938 18.460938 38.898438 19.082031 C 37.726562 19.632812 37.386719 19.9375 38.074219 19.824219 L 38.402344 19.769531 L 38.113281 19.898438 C 37.953125 19.972656 37.628906 20.085938 37.390625 20.15625 L 36.960938 20.285156 L 36.960938 20.046875 C 36.960938 19.851562 36.910156 19.789062 36.679688 19.722656 C 36.484375 19.667969 36.351562 19.546875 36.261719 19.359375 C 36.128906 19.066406 35.960938 18.988281 35.882812 19.179688 C 35.847656 19.269531 35.839844 19.269531 35.832031 19.179688 C 35.816406 18.90625 35.253906 19.09375 35.082031 19.425781 C 34.792969 19.988281 35.003906 20.207031 35.839844 20.207031 C 36.265625 20.207031 36.378906 20.398438 36.101562 20.652344 C 35.882812 20.851562 34.324219 21.140625 34.390625 20.96875 C 34.460938 20.78125 34.042969 20.089844 33.734375 19.878906 C 33.179688 19.503906 33.050781 19.636719 33.007812 20.644531 L 32.988281 21.035156 L 33.316406 21.0625 C 34.269531 21.140625 32.160156 22.121094 31.011719 22.132812 C 30.234375 22.140625 29.550781 22.492188 30.054688 22.625 C 30.285156 22.683594 29.484375 23.089844 29.136719 23.089844 C 29.023438 23.089844 28.925781 23.136719 28.925781 23.199219 C 28.925781 23.285156 27.816406 23.960938 27.667969 23.960938 C 27.648438 23.960938 27.828125 23.640625 28.070312 23.246094 C 29.476562 20.976562 30.0625 19.304688 30.183594 17.195312 C 30.332031 14.617188 30.007812 14.515625 28.992188 16.820312 Z M 29.6875 17.433594 C 29.578125 19.289062 28.984375 20.832031 27.417969 23.328125 C 26.335938 25.054688 26.207031 25.136719 26.675781 23.808594 C 27.34375 21.902344 29.570312 16.539062 29.695312 16.539062 C 29.71875 16.539062 29.714844 16.941406 29.6875 17.433594 Z M 39.921875 19.574219 C 39.933594 19.710938 39.289062 20.121094 39.066406 20.121094 C 38.867188 20.121094 38.75 19.984375 38.882812 19.902344 C 39.019531 19.816406 38.898438 19.683594 38.683594 19.679688 C 38.574219 19.679688 38.777344 19.550781 39.144531 19.390625 C 39.84375 19.082031 39.882812 19.09375 39.921875 19.574219 Z M 59.214844 19.335938 C 59.242188 19.515625 59.226562 19.527344 59.105469 19.429688 C 58.941406 19.292969 58.917969 19.042969 59.074219 19.09375 C 59.136719 19.113281 59.199219 19.222656 59.214844 19.335938 Z M 35.828125 19.570312 C 35.929688 19.542969 36 19.585938 36.03125 19.691406 C 36.066406 19.835938 36.019531 19.859375 35.683594 19.859375 L 35.296875 19.859375 L 35.449219 19.574219 C 35.570312 19.34375 35.605469 19.320312 35.632812 19.453125 C 35.65625 19.558594 35.722656 19.597656 35.828125 19.570312 Z M 59.839844 19.953125 C 59.839844 19.996094 59.78125 20.03125 59.707031 20.03125 C 59.636719 20.03125 59.578125 19.976562 59.578125 19.902344 C 59.578125 19.824219 59.628906 19.796875 59.707031 19.824219 C 59.78125 19.855469 59.839844 19.910156 59.839844 19.953125 Z M 65.988281 20.066406 C 67.015625 20.570312 67.542969 21.457031 67.996094 23.417969 L 68.121094 23.960938 L 67.871094 23.785156 C 66.917969 23.105469 65.230469 21.226562 64.558594 20.101562 L 64.347656 19.742188 L 64.933594 19.789062 C 65.308594 19.820312 65.683594 19.917969 65.988281 20.066406 Z M 59.921875 20.347656 C 59.402344 20.589844 59.25 20.613281 59.402344 20.425781 C 59.460938 20.351562 59.605469 20.292969 59.714844 20.292969 C 59.828125 20.292969 59.972656 20.238281 60.03125 20.175781 C 60.09375 20.109375 60.195312 20.074219 60.257812 20.097656 C 60.320312 20.121094 60.167969 20.234375 59.921875 20.347656 Z M 33.820312 20.570312 C 33.820312 20.609375 33.726562 20.644531 33.613281 20.644531 C 33.4375 20.644531 33.414062 20.609375 33.449219 20.421875 C 33.492188 20.203125 33.820312 20.332031 33.820312 20.570312 Z M 58.132812 20.574219 C 58.207031 20.683594 58.269531 20.820312 58.269531 20.878906 C 58.269531 21.046875 57.863281 20.839844 57.699219 20.585938 C 57.511719 20.296875 57.929688 20.289062 58.132812 20.574219 Z M 42.898438 20.644531 C 42.898438 20.765625 42.480469 20.949219 42.398438 20.867188 C 42.324219 20.792969 42.617188 20.554688 42.785156 20.554688 C 42.847656 20.554688 42.898438 20.597656 42.898438 20.644531 Z M 56.113281 21.675781 C 55.445312 21.757812 54.601562 21.597656 54.601562 21.390625 L 54.601562 21.191406 L 55.480469 21.417969 C 56.105469 21.582031 56.289062 21.65625 56.113281 21.675781 Z M 38.460938 21.59375 C 39.167969 21.90625 39.257812 22.035156 38.773438 22.039062 C 38.417969 22.039062 38.308594 21.996094 38.03125 21.738281 C 37.636719 21.375 37.820312 21.3125 38.460938 21.59375 Z M 34.886719 21.640625 C 34.972656 21.703125 35.039062 21.777344 35.039062 21.808594 C 35.039062 21.917969 34.820312 21.859375 34.605469 21.691406 C 34.40625 21.535156 34.402344 21.519531 34.5625 21.523438 C 34.65625 21.523438 34.804688 21.574219 34.886719 21.640625 Z M 22.816406 23.949219 C 23.21875 26.238281 22.960938 27.558594 21.976562 28.28125 C 21.636719 28.53125 21.417969 28.753906 21.429688 28.839844 C 21.445312 28.984375 21.386719 29.183594 21.222656 29.527344 C 21.054688 29.871094 21.070312 29.691406 21.253906 29.109375 C 21.695312 27.699219 22.125 25.265625 22.289062 23.230469 C 22.339844 22.609375 22.382812 22.078125 22.390625 22.050781 C 22.410156 21.9375 22.652344 23.007812 22.816406 23.949219 Z M 56.652344 22.53125 C 56.449219 22.84375 56.382812 22.722656 56.578125 22.390625 C 56.667969 22.242188 56.753906 22.164062 56.769531 22.214844 C 56.785156 22.265625 56.734375 22.410156 56.652344 22.53125 Z M 59.054688 22.574219 C 59.054688 22.804688 58.761719 23.261719 58.609375 23.261719 C 58.464844 23.261719 58.527344 22.8125 58.722656 22.464844 C 58.925781 22.105469 59.050781 22.144531 59.054688 22.574219 Z M 72.253906 22.71875 C 74.101562 24.203125 74.550781 26.964844 73.292969 29.101562 C 73.167969 29.316406 73.027344 29.503906 72.980469 29.519531 C 72.8125 29.574219 72.347656 28.734375 72.390625 28.457031 C 72.410156 28.3125 72.328125 27.65625 72.203125 26.992188 C 71.953125 25.636719 71.667969 22.386719 71.796875 22.390625 C 71.824219 22.390625 72.03125 22.539062 72.253906 22.71875 Z M 34.953125 22.851562 C 36.160156 23.167969 37.019531 23.570312 36.871094 23.75 C 36.226562 24.523438 34.921875 24.480469 31.808594 23.589844 C 31.210938 23.417969 30.601562 23.246094 30.457031 23.214844 C 30.199219 23.15625 30.210938 23.144531 30.804688 22.859375 L 31.417969 22.566406 L 32.769531 22.597656 C 33.851562 22.625 34.289062 22.675781 34.953125 22.851562 Z M 66.257812 23.742188 C 66.808594 23.863281 67.050781 23.96875 67.417969 24.257812 L 67.878906 24.617188 L 67.375 24.78125 C 65.855469 25.277344 63.921875 24.957031 62.378906 23.949219 L 61.929688 23.65625 L 62.171875 23.597656 C 62.65625 23.476562 65.523438 23.578125 66.257812 23.742188 Z M 28.664062 25.875 C 26.964844 28.296875 23.929688 29.96875 22.398438 29.328125 L 22.074219 29.191406 L 22.945312 28.34375 C 24.09375 27.226562 25.800781 26.351562 28.40625 25.542969 C 28.714844 25.449219 28.984375 25.367188 29 25.363281 C 29.015625 25.363281 28.863281 25.589844 28.664062 25.875 Z M 67.269531 27.417969 C 68.765625 27.675781 70.476562 28.324219 71.511719 29.039062 C 71.714844 29.175781 71.9375 29.289062 72.007812 29.289062 C 72.082031 29.289062 72.167969 29.328125 72.195312 29.375 C 72.230469 29.433594 71.875 29.464844 71.195312 29.464844 C 70.226562 29.464844 70.144531 29.449219 70.144531 29.300781 C 70.144531 28.921875 69.660156 28.828125 69.488281 29.167969 C 69.25 29.644531 66.695312 28.5625 65.78125 27.597656 L 65.480469 27.28125 L 65.964844 27.28125 C 66.230469 27.28125 66.816406 27.34375 67.269531 27.417969 Z M 15.132812 27.394531 C 15.132812 27.480469 14.683594 28.007812 14.46875 28.167969 L 14.214844 28.363281 L 14.386719 28.148438 C 14.765625 27.675781 15.132812 27.304688 15.132812 27.394531 Z M 13.25 29.382812 C 13.195312 29.5625 13.183594 29.566406 13.101562 29.421875 C 13.039062 29.3125 13.046875 29.246094 13.132812 29.195312 C 13.292969 29.097656 13.324219 29.152344 13.25 29.382812 Z M 73.164062 30.949219 C 73.480469 31.5 74.128906 32.742188 74.597656 33.707031 L 75.457031 35.464844 L 75.3125 35.847656 C 75.207031 36.128906 75.167969 36.527344 75.167969 37.363281 L 75.164062 38.5 L 73.835938 36.511719 L 72.511719 34.527344 L 72.644531 34.203125 C 72.902344 33.59375 72.683594 32.261719 72.320312 32.1875 C 72.148438 32.15625 71.980469 32.515625 71.914062 33.0625 C 71.847656 33.632812 71.804688 33.597656 70.972656 32.296875 C 70.191406 31.074219 70.046875 30.710938 70.121094 30.160156 L 70.167969 29.804688 L 70.527344 29.855469 C 70.722656 29.878906 71.21875 29.871094 71.628906 29.832031 C 72.523438 29.746094 72.429688 29.675781 73.164062 30.949219 Z M 69.5625 31.535156 C 69.632812 31.65625 69.453125 31.996094 69.316406 31.996094 C 69.167969 31.996094 68.835938 31.695312 68.835938 31.558594 C 68.835938 31.457031 69.503906 31.4375 69.5625 31.535156 Z M 16.015625 33.28125 C 15.792969 33.714844 15.328125 34.246094 14.761719 34.714844 L 14.308594 35.09375 L 14.601562 34.683594 C 14.894531 34.273438 16.070312 32.957031 16.144531 32.957031 C 16.167969 32.957031 16.105469 33.101562 16.015625 33.28125 Z M 72.300781 33.675781 C 72.28125 33.785156 72.261719 33.714844 72.261719 33.523438 C 72.261719 33.332031 72.277344 33.242188 72.300781 33.324219 C 72.320312 33.410156 72.320312 33.566406 72.300781 33.675781 Z M 18.960938 33.9375 C 18.835938 34.289062 18.800781 34.613281 18.8125 35.328125 L 18.828125 36.261719 L 18.285156 37.089844 C 17.632812 38.082031 17.433594 38.214844 17.242188 37.796875 C 17.066406 37.417969 17.367188 36.65625 18.585938 34.386719 C 19.136719 33.355469 19.1875 33.296875 18.960938 33.9375 Z M 19.273438 34.570312 C 19.160156 35.070312 19.15625 35.074219 19.203125 34.667969 C 19.25 34.246094 19.320312 33.972656 19.371094 34.023438 C 19.382812 34.035156 19.339844 34.28125 19.273438 34.570312 Z M 82.929688 34.796875 C 82.839844 34.898438 82.683594 35.019531 82.589844 35.070312 C 82.464844 35.136719 82.484375 35.082031 82.667969 34.886719 C 82.949219 34.589844 83.195312 34.503906 82.929688 34.796875 Z M 75.863281 36.355469 C 76.0625 36.75 75.933594 37.5625 75.597656 37.976562 C 75.453125 38.160156 75.457031 37.113281 75.609375 36.382812 C 75.679688 36.035156 75.695312 36.035156 75.863281 36.355469 Z M 12.375 37.714844 C 12.582031 37.882812 12.792969 38.019531 12.847656 38.019531 C 12.957031 38.019531 12.964844 38.339844 12.875 39.019531 L 12.816406 39.457031 L 12.585938 38.933594 C 12.460938 38.648438 12.253906 38.1875 12.128906 37.910156 C 11.863281 37.324219 11.882812 37.308594 12.375 37.714844 Z M 76.929688 38.65625 C 77.320312 39.488281 77.484375 39.957031 77.527344 40.335938 C 77.601562 41.03125 77.941406 42.359375 78.160156 42.808594 C 78.316406 43.128906 78.324219 43.214844 78.230469 43.578125 L 78.125 43.988281 L 77.511719 42.730469 C 77.171875 42.035156 76.597656 40.945312 76.226562 40.304688 C 75.453125 38.957031 75.46875 39.042969 75.855469 38.46875 C 76.019531 38.222656 76.179688 37.90625 76.210938 37.761719 C 76.300781 37.359375 76.347656 37.414062 76.929688 38.65625 Z M 18.371094 38.792969 C 18.320312 38.882812 18.125 38.996094 17.933594 39.046875 L 17.582031 39.136719 L 17.777344 38.789062 C 17.882812 38.601562 18.066406 38.339844 18.1875 38.210938 L 18.40625 37.976562 L 18.433594 38.300781 C 18.449219 38.476562 18.417969 38.699219 18.371094 38.792969 Z M 73.898438 39.257812 C 74.523438 39.347656 74.597656 39.375 74.378906 39.433594 C 74.113281 39.503906 73.199219 39.394531 72.835938 39.246094 C 72.53125 39.125 72.972656 39.128906 73.898438 39.257812 Z M 81.105469 41.042969 C 80.992188 41.652344 80.351562 42.121094 79.632812 42.125 L 79.390625 42.125 L 79.765625 41.675781 C 79.972656 41.425781 80.359375 41.054688 80.621094 40.84375 C 81.144531 40.433594 81.214844 40.460938 81.105469 41.042969 Z M 11.332031 42.386719 C 11.238281 42.429688 10.96875 42.464844 10.742188 42.46875 C 10.199219 42.476562 10.175781 42.554688 10.453125 43.449219 C 10.855469 44.757812 11.601562 45.777344 11.921875 45.453125 C 11.992188 45.386719 11.992188 45.355469 11.929688 45.355469 C 11.769531 45.355469 10.851562 43.339844 10.851562 42.992188 C 10.851562 42.953125 10.929688 42.898438 11.027344 42.871094 C 11.125 42.84375 11.277344 42.800781 11.367188 42.777344 C 11.5 42.738281 11.574219 42.835938 11.773438 43.300781 C 12.011719 43.863281 12.25 44.054688 12.25 43.683594 C 12.25 43.421875 11.722656 42.296875 11.605469 42.304688 C 11.550781 42.308594 11.429688 42.34375 11.332031 42.386719 Z M 16.738281 43.707031 C 16.8125 44.257812 16.886719 44.210938 16.003906 44.144531 L 15.261719 44.089844 L 15.917969 43.675781 C 16.71875 43.167969 16.667969 43.167969 16.738281 43.707031 Z M 80.941406 46.175781 C 80.660156 46.746094 80.148438 47.355469 80.039062 47.246094 C 79.988281 47.195312 80.328125 46.625 80.785156 45.988281 C 81.289062 45.289062 81.34375 45.359375 80.941406 46.175781 Z M 78.554688 46.699219 C 78.632812 46.984375 78.675781 47.25 78.648438 47.292969 C 78.621094 47.335938 78.640625 47.421875 78.691406 47.480469 C 78.777344 47.585938 79.050781 48.964844 79.050781 49.273438 C 79.046875 49.390625 79.035156 49.394531 78.972656 49.296875 C 78.867188 49.132812 78.523438 49.226562 78.191406 49.503906 L 77.933594 49.722656 L 77.972656 49.175781 C 77.996094 48.875 78.070312 48.105469 78.140625 47.460938 C 78.207031 46.816406 78.265625 46.230469 78.265625 46.15625 C 78.265625 45.902344 78.410156 46.175781 78.554688 46.699219 Z M 76.257812 49.953125 C 76.707031 50.410156 76.765625 50.496094 76.535156 50.367188 C 76.21875 50.1875 76.011719 49.980469 75.777344 49.613281 C 75.546875 49.253906 75.636719 49.316406 76.257812 49.953125 Z M 79.113281 51.425781 C 79.046875 53.390625 79.027344 53.453125 78.640625 52.808594 C 78.472656 52.535156 78.222656 52.167969 78.082031 52 C 77.765625 51.613281 77.738281 51.234375 78.023438 51.242188 C 78.164062 51.246094 78.230469 51.191406 78.246094 51.058594 C 78.265625 50.941406 78.371094 50.835938 78.523438 50.78125 C 78.820312 50.679688 78.917969 50.519531 79.011719 49.984375 C 79.128906 49.328125 79.164062 49.832031 79.113281 51.425781 Z M 18.804688 51.378906 C 18.539062 54.886719 17.941406 57.492188 16.957031 59.414062 C 16.648438 60.015625 16.316406 60.5 16.390625 60.234375 C 16.421875 60.132812 16.679688 59.230469 16.96875 58.226562 C 17.425781 56.648438 17.75 55.222656 17.75 54.820312 C 17.75 54.753906 17.695312 54.699219 17.625 54.699219 C 17.5 54.699219 17.398438 54.992188 17.058594 56.332031 C 16.957031 56.726562 16.722656 57.554688 16.535156 58.167969 C 16.089844 59.617188 15.921875 60.277344 15.882812 60.742188 C 15.863281 60.949219 15.84375 61.15625 15.839844 61.203125 C 15.832031 61.253906 15.777344 61.195312 15.71875 61.074219 C 15.578125 60.800781 15.359375 60.789062 15.320312 61.050781 C 15.289062 61.285156 15.195312 61.292969 14.488281 61.109375 C 11.925781 60.453125 9.558594 58.304688 7.140625 54.441406 L 6.898438 54.050781 L 7.589844 54.621094 C 7.96875 54.933594 8.886719 55.65625 9.628906 56.222656 C 11.8125 57.890625 13.261719 59.210938 14.277344 60.460938 C 14.53125 60.773438 14.621094 60.832031 14.707031 60.746094 C 14.792969 60.660156 14.847656 60.667969 14.96875 60.78125 C 15.152344 60.945312 15.433594 60.871094 15.363281 60.679688 C 15.335938 60.609375 15.347656 60.550781 15.398438 60.550781 C 15.441406 60.550781 15.480469 60.285156 15.480469 59.960938 C 15.480469 58.175781 15.984375 56.488281 17.691406 52.554688 C 18.148438 51.5 18.59375 50.429688 18.683594 50.171875 C 18.902344 49.535156 18.925781 49.773438 18.804688 51.378906 Z M 78.519531 50.179688 C 78.417969 50.402344 78.023438 50.644531 77.925781 50.546875 C 77.898438 50.519531 78.023438 50.355469 78.207031 50.1875 C 78.574219 49.847656 78.671875 49.847656 78.519531 50.179688 Z M 81.746094 52.078125 C 81.597656 52.496094 80.933594 53.171875 80.472656 53.371094 C 79.960938 53.589844 79.398438 53.703125 79.398438 53.585938 C 79.398438 53.402344 80.640625 52.425781 81.359375 52.042969 C 81.878906 51.765625 81.855469 51.765625 81.746094 52.078125 Z M 78.304688 52.945312 C 78.523438 53.230469 78.703125 53.503906 78.703125 53.558594 C 78.703125 53.871094 78.199219 53.324219 77.960938 52.75 C 77.773438 52.308594 77.839844 52.34375 78.304688 52.945312 Z M 78 54.085938 C 78.09375 54.085938 78.300781 54.199219 78.453125 54.335938 L 78.726562 54.582031 L 78.527344 55.40625 C 78.253906 56.523438 77.425781 58.957031 77.347656 58.875 C 77.328125 58.855469 77.363281 58.230469 77.433594 57.488281 C 77.5 56.746094 77.582031 55.589844 77.617188 54.921875 C 77.660156 54.132812 77.707031 53.773438 77.75 53.894531 C 77.792969 54.007812 77.898438 54.085938 78 54.085938 Z M 80.789062 55.980469 C 79.84375 57.519531 78.804688 58.632812 77.609375 59.378906 C 77.40625 59.507812 77.472656 59.394531 77.898438 58.890625 C 78.378906 58.324219 81.066406 55.417969 81.125 55.402344 C 81.136719 55.398438 80.984375 55.660156 80.789062 55.980469 Z M 67.480469 56.972656 C 69.304688 57.308594 75.46875 59.875 75.46875 60.296875 C 75.46875 60.652344 72.4375 60.28125 71.210938 59.773438 C 69.871094 59.21875 66.007812 56.675781 66.738281 56.828125 C 66.859375 56.855469 67.191406 56.917969 67.480469 56.972656 Z M 83.808594 59.464844 C 81.902344 61.132812 79.535156 61.9375 77.929688 61.460938 L 77.472656 61.328125 L 77.652344 61.101562 C 77.746094 60.976562 77.828125 60.808594 77.828125 60.726562 C 77.828125 60.5625 78.941406 60.144531 80.054688 59.890625 C 80.53125 59.78125 83.910156 59.175781 84.117188 59.160156 C 84.140625 59.160156 84 59.296875 83.808594 59.464844 Z M 76.46875 60.871094 C 76.398438 60.945312 76.359375 61.074219 76.386719 61.160156 C 76.441406 61.328125 76.234375 61.417969 75.792969 61.421875 C 75.328125 61.421875 75.492188 60.894531 75.996094 60.769531 C 76.480469 60.648438 76.65625 60.6875 76.46875 60.871094 Z M 77.03125 60.890625 C 77.101562 60.933594 77.113281 60.984375 77.0625 61.015625 C 77.015625 61.046875 76.925781 61.011719 76.867188 60.941406 C 76.75 60.800781 76.839844 60.769531 77.03125 60.890625 Z M 75.121094 60.980469 C 75.121094 61.402344 73.195312 61.925781 71.367188 61.996094 L 70.273438 62.039062 L 70.785156 61.769531 C 71.597656 61.339844 72.449219 61.160156 73.703125 61.160156 C 74.632812 61.160156 74.785156 61.140625 74.738281 61.03125 C 74.703125 60.933594 74.75 60.898438 74.90625 60.898438 C 75.023438 60.898438 75.121094 60.933594 75.121094 60.980469 Z M 19.09375 61.464844 C 20.234375 61.707031 20.960938 62.308594 21.148438 63.15625 L 21.230469 63.539062 L 20.558594 63.476562 C 18.789062 63.316406 17.324219 62.398438 17.316406 61.445312 C 17.3125 61.292969 18.332031 61.304688 19.09375 61.464844 Z M 14.722656 61.988281 C 14.558594 62.210938 14.433594 62.269531 14.433594 62.125 C 14.433594 62.054688 14.765625 61.773438 14.847656 61.773438 C 14.863281 61.773438 14.808594 61.867188 14.722656 61.988281 Z M 17.078125 62.339844 C 17.316406 62.4375 17.210938 62.589844 16.839844 62.683594 C 16.566406 62.753906 16.488281 62.742188 16.398438 62.621094 C 16.339844 62.539062 16.253906 62.46875 16.203125 62.46875 C 16.15625 62.46875 16.054688 62.398438 15.976562 62.3125 C 15.828125 62.148438 16.664062 62.167969 17.078125 62.339844 Z M 75.5 62.535156 C 75.128906 63.421875 74.101562 65.265625 73.902344 65.394531 C 73.445312 65.691406 72.757812 66.039062 72.8125 65.945312 C 73.410156 64.90625 75.433594 62.207031 75.613281 62.207031 C 75.625 62.207031 75.574219 62.355469 75.5 62.535156 Z M 16.230469 63.34375 C 16.3125 63.558594 16.492188 63.972656 16.632812 64.261719 C 16.84375 64.699219 16.855469 64.742188 16.6875 64.523438 C 16.578125 64.378906 16.339844 64.105469 16.160156 63.917969 C 15.820312 63.570312 15.757812 63.363281 15.925781 63.195312 C 16.039062 63.082031 15.949219 62.878906 15.824219 62.953125 C 15.730469 63.011719 15.566406 62.640625 15.632812 62.527344 C 15.703125 62.410156 16.0625 62.90625 16.230469 63.34375 Z M 13.820312 62.71875 L 14.121094 62.78125 L 13.8125 63.015625 C 13.078125 63.578125 12.109375 63.75 10.566406 63.597656 C 9.445312 63.484375 9.410156 63.453125 9.949219 63.066406 C 10.605469 62.585938 12.449219 62.421875 13.820312 62.71875 Z M 15.449219 64.265625 C 15.308594 65.960938 14.449219 67.8125 13.175781 69.175781 C 12.351562 70.054688 12.296875 70.058594 12.367188 69.207031 C 12.519531 67.425781 13.332031 65.707031 14.726562 64.238281 C 15.484375 63.441406 15.519531 63.441406 15.449219 64.265625 Z M 67.511719 64.675781 C 66.371094 67.429688 66.011719 69.347656 66.429688 70.421875 C 66.472656 70.535156 66.351562 70.578125 65.703125 70.664062 C 65.273438 70.71875 64.792969 70.792969 64.636719 70.824219 L 64.355469 70.882812 L 64.414062 70.300781 C 64.597656 68.484375 65.730469 66.152344 67.15625 64.640625 C 67.464844 64.3125 67.734375 64.042969 67.75 64.042969 C 67.761719 64.042969 67.65625 64.328125 67.511719 64.675781 Z M 70.582031 65.625 C 70.53125 66.027344 70.308594 67.089844 70.085938 67.984375 C 69.566406 70.074219 69.652344 70.519531 70.3125 69.15625 C 70.976562 67.78125 71.867188 67.003906 74.375 65.617188 L 74.894531 65.332031 L 74.738281 65.570312 C 74.398438 66.085938 73.554688 67.65625 73.152344 68.527344 L 72.722656 69.449219 L 72.242188 69.632812 C 71.976562 69.734375 71.367188 69.878906 70.886719 69.957031 C 70.40625 70.035156 69.972656 70.152344 69.925781 70.210938 C 69.839844 70.320312 67.136719 70.582031 67.046875 70.492188 C 66.847656 70.289062 67.875 67.972656 68.578125 67.039062 C 69.117188 66.332031 70.566406 64.785156 70.632812 64.851562 C 70.660156 64.875 70.636719 65.226562 70.582031 65.625 Z M 21.996094 67.710938 C 23.9375 70.089844 25.144531 72.347656 25.5 74.257812 C 25.59375 74.761719 25.773438 75.429688 25.898438 75.738281 L 26.128906 76.300781 L 25.207031 75.390625 C 24.222656 74.417969 22.914062 72.921875 21.832031 71.53125 C 20.675781 70.046875 20.101562 68.015625 20.339844 66.265625 L 20.398438 65.847656 L 20.824219 66.320312 C 21.058594 66.582031 21.585938 67.207031 21.996094 67.710938 Z M 18.203125 68.214844 C 18.867188 68.75 19.019531 68.832031 19.074219 68.675781 C 19.113281 68.578125 20.78125 70.898438 21.34375 71.832031 C 22.121094 73.128906 23.519531 74.832031 23.734375 74.75 C 23.792969 74.726562 23.996094 74.867188 24.179688 75.058594 L 24.519531 75.410156 L 24.167969 75.265625 C 23.121094 74.835938 19.882812 72.84375 19.449219 72.363281 C 18.472656 71.277344 16.527344 67.554688 16.527344 66.773438 C 16.527344 66.746094 16.753906 66.9375 17.03125 67.195312 C 17.304688 67.457031 17.835938 67.914062 18.203125 68.214844 Z M 62.808594 69.382812 C 62.664062 70.71875 62.410156 71.871094 62.019531 72.96875 C 61.820312 73.53125 61.703125 73.976562 61.75 74.019531 C 61.863281 74.132812 62.410156 73.214844 62.582031 72.621094 C 62.796875 71.890625 62.789062 71.902344 63.6875 71.542969 C 64.667969 71.152344 65.660156 70.992188 67.917969 70.855469 C 68.78125 70.804688 69.597656 70.738281 69.730469 70.714844 C 69.859375 70.6875 69.96875 70.683594 69.96875 70.707031 C 69.96875 70.894531 66.847656 72.710938 65.253906 73.449219 C 64.800781 73.664062 64.398438 73.878906 64.367188 73.929688 C 64.339844 73.976562 63.707031 74.132812 62.972656 74.265625 C 61.804688 74.480469 60.519531 74.800781 59.980469 75.007812 C 59.835938 75.066406 59.820312 75.046875 59.871094 74.863281 C 59.90625 74.746094 60.011719 74.296875 60.109375 73.867188 C 60.433594 72.40625 61.574219 69.941406 62.378906 68.949219 C 62.929688 68.269531 62.929688 68.269531 62.808594 69.382812 Z M 75.042969 68.734375 C 74.464844 69.859375 73.035156 71.433594 71.40625 72.734375 L 70.535156 73.4375 L 69.226562 73.667969 C 68.503906 73.796875 67.722656 73.925781 67.480469 73.957031 L 67.042969 74.011719 L 67.328125 73.78125 C 67.597656 73.558594 67.695312 73.273438 67.535156 73.175781 C 67.492188 73.148438 67.140625 73.246094 66.746094 73.386719 C 66.355469 73.53125 66.007812 73.644531 65.972656 73.644531 C 65.9375 73.644531 66.464844 73.355469 67.144531 73 C 68.925781 72.078125 70.917969 70.722656 70.925781 70.4375 C 70.929688 70.378906 71.039062 70.328125 71.175781 70.328125 C 71.820312 70.328125 73.460938 69.609375 74.554688 68.847656 C 74.890625 68.613281 75.175781 68.417969 75.1875 68.414062 C 75.203125 68.410156 75.136719 68.554688 75.042969 68.734375 Z M 26.914062 71.378906 C 28.070312 74.792969 28.578125 76.757812 28.578125 77.792969 L 28.578125 78.285156 L 28.1875 78.003906 C 27.964844 77.847656 27.792969 77.652344 27.792969 77.5625 C 27.792969 77.464844 27.730469 77.402344 27.628906 77.402344 C 27.179688 77.402344 26.363281 76.105469 26.285156 75.261719 C 26.257812 74.972656 26.125 74.386719 25.992188 73.953125 C 25.726562 73.09375 25.640625 70.777344 25.816406 69.152344 L 25.890625 68.457031 L 26.058594 68.890625 C 26.148438 69.128906 26.535156 70.25 26.914062 71.378906 Z M 60.105469 71.242188 C 59.832031 73.6875 59.359375 75.320312 58.625 76.386719 C 58.308594 76.84375 58.273438 77.140625 58.53125 77.140625 C 58.730469 77.140625 59.144531 76.609375 59.429688 75.984375 L 59.621094 75.5625 L 60.449219 75.300781 C 60.90625 75.160156 61.890625 74.921875 62.632812 74.777344 C 63.378906 74.632812 64.378906 74.4375 64.859375 74.34375 C 65.339844 74.25 65.832031 74.148438 65.953125 74.117188 C 66.363281 74.011719 64.355469 75.460938 63.0625 76.203125 C 61.507812 77.09375 60.976562 77.285156 59.839844 77.355469 C 58.679688 77.421875 57.453125 77.601562 56.832031 77.789062 C 56.285156 77.953125 56.285156 77.957031 56.710938 77.441406 C 57.40625 76.605469 57.699219 75.832031 57.699219 74.828125 C 57.699219 73.796875 57.617188 73.71875 57.023438 74.199219 C 56.558594 74.574219 55.648438 75.089844 55.648438 74.976562 C 55.648438 74.78125 55.957031 74.171875 56.410156 73.472656 C 56.925781 72.671875 60.207031 69.308594 60.261719 69.519531 C 60.277344 69.582031 60.207031 70.355469 60.105469 71.242188 Z M 30.230469 72.40625 C 31.195312 74.246094 31.832031 75.320312 32.304688 75.894531 C 32.472656 76.101562 32.589844 76.265625 32.566406 76.265625 C 32.542969 76.265625 32.105469 76.070312 31.59375 75.832031 C 31.078125 75.589844 30.582031 75.394531 30.492188 75.394531 C 30.398438 75.394531 30.324219 75.375 30.324219 75.351562 C 30.324219 75.328125 30.1875 74.769531 30.023438 74.109375 C 29.710938 72.851562 29.277344 70.90625 29.277344 70.746094 C 29.277344 70.59375 29.296875 70.628906 30.230469 72.40625 Z M 38.449219 75.296875 C 38.585938 76.328125 38.910156 77.554688 39.269531 78.386719 L 39.578125 79.097656 L 38.945312 78.484375 C 38.261719 77.816406 37.632812 77.28125 36.613281 76.492188 C 36.050781 76.058594 35.929688 75.914062 35.726562 75.4375 C 35.195312 74.191406 34.714844 72.453125 34.566406 71.234375 L 34.511719 70.78125 L 36.433594 72.675781 L 38.351562 74.5625 Z M 53.699219 72.011719 C 53.617188 73.828125 53.269531 75.359375 52.367188 77.902344 C 52.007812 78.921875 51.882812 79.585938 52.054688 79.585938 C 52.210938 79.585938 52.410156 79.257812 52.605469 78.679688 C 52.722656 78.34375 52.875 78.058594 52.957031 78.027344 C 53.035156 77.996094 53.265625 77.726562 53.464844 77.425781 C 54.007812 76.609375 55.152344 75.761719 57.167969 74.675781 C 57.324219 74.59375 57.332031 74.613281 57.28125 75.046875 C 57.15625 76.078125 56.425781 77.132812 54.945312 78.40625 C 53.15625 79.945312 52.808594 80.359375 53.238281 80.445312 C 53.402344 80.476562 53.757812 80.230469 54.601562 79.492188 C 56.003906 78.261719 57.425781 77.886719 61.191406 77.746094 C 62.484375 77.699219 63.800781 77.621094 64.113281 77.574219 C 64.429688 77.53125 64.722656 77.492188 64.765625 77.492188 C 65.285156 77.480469 60.601562 80.171875 58.769531 80.9375 L 58.179688 81.183594 L 57.109375 81.03125 C 53.671875 80.542969 51.957031 80.898438 51.265625 82.238281 C 51.078125 82.605469 51.191406 82.957031 51.386719 82.609375 C 51.964844 81.578125 53.316406 81.0625 55.082031 81.195312 C 56.570312 81.304688 57.574219 81.492188 57.734375 81.691406 C 57.863281 81.847656 57.910156 81.855469 58.117188 81.761719 C 58.335938 81.664062 60.21875 81.917969 61.9375 82.28125 C 62.230469 82.34375 62.1875 82.371094 60.496094 83.21875 C 55.664062 85.640625 52.886719 85.589844 50.082031 83.039062 C 49.539062 82.542969 49.539062 82.542969 49.65625 82.261719 C 50.128906 81.132812 49.707031 79.660156 48.839844 79.402344 C 47.621094 79.035156 49.890625 74.417969 52.640625 71.660156 C 53.800781 70.496094 53.765625 70.484375 53.699219 72.011719 Z M 18.570312 72.527344 C 19.054688 72.816406 19.554688 73.171875 19.675781 73.316406 C 19.796875 73.460938 19.992188 73.589844 20.113281 73.605469 C 20.230469 73.617188 20.738281 73.890625 21.246094 74.210938 C 22.375 74.925781 24.101562 75.789062 24.71875 75.941406 C 24.972656 76.007812 25.261719 76.144531 25.367188 76.246094 L 25.554688 76.4375 L 25.066406 76.660156 C 22.730469 77.730469 18.199219 75.121094 16.96875 72 L 16.792969 71.550781 L 17.238281 71.777344 C 17.484375 71.898438 18.082031 72.238281 18.570312 72.527344 Z M 40.386719 74.695312 C 41.609375 76.730469 42.375 78.085938 42.375 78.214844 C 42.375 78.230469 42.1875 78.332031 41.953125 78.433594 C 41.390625 78.691406 40.863281 79.15625 40.652344 79.582031 L 40.476562 79.933594 L 40.105469 79.082031 C 39.351562 77.371094 38.6875 74.992188 39.074219 75.375 C 39.460938 75.765625 39.503906 75.289062 39.125 74.773438 C 38.804688 74.339844 38.605469 71.890625 38.921875 72.265625 C 38.933594 72.28125 39.59375 73.375 40.386719 74.695312 Z M 35.097656 75.992188 C 35.601562 76.386719 35.980469 76.761719 36.128906 77.007812 C 36.363281 77.410156 36.582031 77.539062 36.5 77.230469 C 36.402344 76.863281 38.625 78.769531 39.636719 79.917969 C 40.015625 80.351562 40.363281 80.707031 40.414062 80.710938 C 40.464844 80.71875 40.570312 80.835938 40.65625 80.976562 L 40.804688 81.230469 L 40.5 81.332031 C 40.335938 81.386719 40.046875 81.601562 39.863281 81.808594 L 39.53125 82.1875 L 38.925781 81.992188 C 36.765625 81.300781 34.992188 79.613281 33.804688 77.121094 C 33.761719 77.035156 33.730469 76.929688 33.730469 76.882812 C 33.730469 76.835938 33.636719 76.664062 33.523438 76.496094 C 33.355469 76.246094 32.957031 75.164062 32.636719 74.09375 C 32.589844 73.933594 32.78125 74.0625 33.4375 74.625 C 33.910156 75.03125 34.65625 75.648438 35.097656 75.992188 Z M 70.054688 74.085938 C 69.265625 74.707031 67.660156 75.300781 66.195312 75.519531 C 64.773438 75.730469 64.773438 75.730469 65.601562 75.109375 L 66.332031 74.5625 L 68.128906 74.25 C 70.359375 73.859375 70.34375 73.859375 70.054688 74.085938 Z M 32.03125 76.53125 L 33.105469 77.054688 L 33.46875 77.730469 C 34.769531 80.144531 36.679688 81.742188 38.894531 82.269531 C 39.515625 82.417969 39.539062 82.433594 39.511719 82.664062 C 39.464844 83.046875 39.730469 83.820312 40.050781 84.238281 C 40.328125 84.597656 40.359375 85.023438 40.097656 84.863281 C 40.050781 84.835938 39.671875 84.890625 39.25 84.988281 C 38.371094 85.195312 36.792969 85.402344 35.476562 85.484375 L 34.5625 85.539062 L 35.128906 84.960938 C 35.441406 84.640625 35.894531 84.269531 36.136719 84.132812 C 36.5625 83.890625 37.136719 83.335938 37.136719 83.160156 C 37.136719 82.984375 36.84375 83.09375 36.082031 83.550781 C 34.1875 84.695312 31.511719 84.921875 28.640625 84.1875 L 28.222656 84.082031 L 28.816406 83.828125 C 29.6875 83.457031 31.042969 82.683594 31.703125 82.1875 C 32.019531 81.949219 32.371094 81.714844 32.492188 81.671875 C 32.609375 81.625 32.820312 81.507812 32.960938 81.40625 L 33.21875 81.222656 L 34.019531 81.445312 C 35.28125 81.792969 35.320312 81.796875 35.289062 81.628906 C 35.269531 81.53125 34.84375 81.335938 33.949219 81.011719 C 32.410156 80.453125 32.222656 80.292969 31.585938 79.019531 C 31.109375 78.066406 30.644531 76.003906 30.902344 76.003906 C 30.933594 76.003906 31.441406 76.242188 32.03125 76.53125 Z M 26.390625 77.175781 L 26.601562 77.402344 L 26.25 77.402344 C 26.058594 77.402344 25.527344 77.421875 25.078125 77.445312 C 24.417969 77.476562 24.324219 77.46875 24.597656 77.398438 C 25.027344 77.289062 25.496094 77.003906 25.617188 76.78125 C 25.71875 76.585938 25.949219 76.703125 26.390625 77.175781 Z M 46.152344 77.632812 C 46.464844 77.792969 46.742188 78.238281 46.742188 78.585938 C 46.742188 78.824219 46.632812 79.035156 45.980469 80.042969 C 45.894531 80.175781 45.785156 80.269531 45.738281 80.25 C 45.632812 80.210938 45.632812 80.222656 45.910156 79.472656 C 46.128906 78.882812 46.203125 78.1875 46.050781 78.1875 C 46.003906 78.1875 45.925781 78.335938 45.871094 78.515625 C 45.390625 80.085938 45.015625 80.605469 45.109375 79.5625 C 45.167969 78.910156 45.082031 78.261719 44.929688 78.210938 C 44.847656 78.183594 44.820312 78.40625 44.820312 79.140625 C 44.820312 80.144531 44.832031 80.113281 44.457031 80.144531 C 44.195312 80.167969 44.027344 78.535156 44.246094 78.113281 C 44.578125 77.472656 45.429688 77.257812 46.152344 77.632812 Z M 27 77.671875 L 27.207031 77.84375 L 27 78.0625 C 26.191406 78.925781 24.507812 79.089844 22.4375 78.503906 C 20.839844 78.054688 20.84375 78.046875 22.785156 77.984375 C 24.472656 77.933594 26.042969 77.765625 26.484375 77.589844 C 26.773438 77.472656 26.757812 77.46875 27 77.671875 Z M 43.621094 79.097656 C 43.648438 79.359375 43.75 79.746094 43.84375 79.960938 L 44.015625 80.351562 L 43.792969 80.453125 C 43.613281 80.535156 43.554688 80.53125 43.5 80.433594 C 43.351562 80.171875 42.4375 78.925781 42.347656 78.871094 C 42.222656 78.792969 42.769531 78.640625 43.214844 78.632812 L 43.574219 78.625 Z M 42.269531 79.171875 C 42.324219 79.328125 42.585938 79.78125 42.847656 80.179688 C 43.496094 81.167969 43.179688 81.257812 42.160156 80.371094 C 41.726562 79.996094 41.589844 79.945312 41.589844 80.152344 C 41.589844 80.367188 42.183594 80.957031 42.605469 81.164062 C 42.875 81.292969 42.984375 81.394531 42.949219 81.480469 C 42.921875 81.550781 42.898438 81.679688 42.898438 81.765625 C 42.898438 82.035156 41.835938 82.421875 40.761719 82.542969 C 39.988281 82.625 39.945312 82.617188 40.105469 82.425781 C 40.164062 82.351562 40.183594 82.292969 40.144531 82.292969 C 39.992188 82.292969 40.4375 81.910156 40.804688 81.726562 C 41.074219 81.59375 41.296875 81.542969 41.515625 81.570312 C 41.910156 81.621094 42.011719 81.476562 41.746094 81.246094 C 40.9375 80.542969 40.871094 80.460938 40.929688 80.21875 C 41.019531 79.863281 41.386719 79.367188 41.75 79.117188 C 42.160156 78.835938 42.148438 78.835938 42.269531 79.171875 Z M 47.328125 79.625 C 47.316406 79.628906 47.179688 79.71875 47.027344 79.828125 C 46.683594 80.066406 46.683594 80.058594 46.957031 79.574219 C 47.078125 79.363281 47.179688 79.113281 47.1875 79.019531 C 47.191406 78.921875 47.230469 79.019531 47.273438 79.230469 C 47.316406 79.445312 47.339844 79.621094 47.328125 79.625 Z M 30.066406 79.753906 C 30.566406 80.039062 31.359375 80.4375 31.828125 80.640625 C 32.8125 81.066406 32.8125 81.050781 31.765625 81.40625 C 29.21875 82.273438 26.898438 82.351562 24.34375 81.660156 L 23.644531 81.472656 L 23.949219 81.386719 C 26.023438 80.816406 28.519531 79.8125 28.886719 79.410156 C 29.09375 79.179688 29.035156 79.164062 30.066406 79.753906 Z M 48.90625 79.894531 C 49.613281 80.390625 49.539062 81.949219 48.785156 82.546875 C 48.40625 82.84375 47.351562 82.730469 47.351562 82.390625 C 47.351562 82.269531 47.453125 82.253906 48.101562 82.277344 C 49.382812 82.332031 49.246094 81.964844 47.953125 81.878906 C 47.574219 81.851562 47.265625 81.804688 47.265625 81.769531 C 47.265625 81.679688 47.621094 81.375 48.03125 81.121094 C 48.390625 80.898438 48.527344 80.632812 48.28125 80.632812 C 48.214844 80.632812 47.921875 80.792969 47.628906 80.988281 L 47.097656 81.339844 L 46.796875 81.136719 C 46.40625 80.875 46.460938 80.773438 47.316406 80.203125 C 48.039062 79.71875 48.519531 79.625 48.90625 79.894531 Z M 45.953125 80.851562 C 46.148438 80.984375 46.308594 81.15625 46.308594 81.234375 C 46.3125 81.3125 46.429688 81.511719 46.570312 81.675781 C 46.878906 82.039062 46.886719 82.097656 46.632812 82.132812 C 46.414062 82.164062 46.316406 82.488281 46.472656 82.675781 C 46.691406 82.941406 45.820312 83.363281 45.039062 83.371094 C 44.382812 83.378906 43.921875 83.167969 43.628906 82.722656 C 42.761719 81.414062 44.613281 79.921875 45.953125 80.851562 Z M 42.855469 82.554688 C 42.777344 82.640625 42.539062 82.804688 42.328125 82.914062 C 41.949219 83.117188 41.8125 83.339844 42.066406 83.339844 C 42.28125 83.339844 42.671875 83.160156 42.878906 82.96875 C 42.984375 82.867188 43.082031 82.804688 43.097656 82.824219 C 43.109375 82.84375 43.207031 82.960938 43.316406 83.082031 C 43.566406 83.367188 43.441406 83.859375 42.902344 84.753906 C 42.511719 85.402344 42.5 85.4375 42.664062 85.4375 C 42.957031 85.4375 43.59375 84.503906 43.726562 83.878906 C 43.773438 83.671875 43.828125 83.601562 43.917969 83.640625 C 43.992188 83.667969 44.09375 83.691406 44.152344 83.691406 C 44.226562 83.691406 44.226562 83.710938 44.152344 83.757812 C 43.996094 83.855469 43.894531 85.382812 44.046875 85.332031 C 44.113281 85.3125 44.226562 85.050781 44.300781 84.757812 L 44.433594 84.226562 L 44.589844 84.78125 C 44.792969 85.480469 44.726562 85.789062 44.292969 86.226562 C 43.367188 87.152344 41.191406 86.875 40.585938 85.757812 C 40.378906 85.371094 40.59375 84.753906 40.882812 84.90625 C 41.585938 85.285156 42.988281 84.671875 42.988281 83.988281 C 42.988281 83.671875 42.777344 83.722656 42.230469 84.167969 C 41.371094 84.871094 40.246094 84.351562 40.050781 83.164062 L 40.003906 82.859375 L 40.492188 82.890625 C 41.050781 82.925781 42.097656 82.710938 42.550781 82.472656 C 42.902344 82.285156 43.0625 82.328125 42.855469 82.554688 Z M 50.597656 84.097656 C 51.066406 84.414062 51.660156 86.152344 51.84375 87.726562 C 51.902344 88.25 51.941406 88.261719 51.085938 87.511719 C 49.125 85.796875 48.65625 85.183594 48.722656 84.402344 C 48.757812 83.964844 48.738281 83.742188 48.640625 83.558594 C 48.511719 83.3125 48.511719 83.308594 48.871094 83.128906 L 49.230469 82.945312 L 49.753906 83.414062 C 50.042969 83.671875 50.421875 83.980469 50.597656 84.097656 Z M 47.566406 83.257812 C 48.71875 83.691406 48.480469 85.164062 47.152344 85.824219 C 46.214844 86.292969 45.609375 85.925781 45.21875 84.648438 C 45.140625 84.386719 45.035156 84.101562 44.988281 84.015625 C 44.917969 83.886719 44.945312 83.863281 45.191406 83.863281 C 45.347656 83.863281 45.558594 83.839844 45.660156 83.8125 C 45.824219 83.769531 45.855469 83.816406 45.949219 84.316406 C 46.117188 85.1875 46.234375 85.523438 46.375 85.523438 C 46.523438 85.523438 46.464844 84.75 46.265625 84.078125 L 46.148438 83.6875 L 46.566406 84.039062 C 47.261719 84.621094 47.535156 84.484375 46.878906 83.878906 L 46.496094 83.523438 L 46.769531 83.304688 C 47.105469 83.039062 46.996094 83.046875 47.566406 83.257812 Z M 40.105469 85.867188 C 40.105469 85.917969 40.226562 86.089844 40.371094 86.253906 L 40.636719 86.554688 L 39.824219 87.5625 C 38.882812 88.730469 38.898438 88.722656 39.136719 87.777344 C 39.390625 86.761719 40.105469 85.355469 40.105469 85.867188 Z M 40.105469 85.867188 " fill-opacity="1" fill-rule="evenodd"/></svg>