<svg xmlns="http://www.w3.org/2000/svg" data-name="Layer 1" viewBox="0 0 100 125" x="0px" y="0px"><path d="M78.6623109,36.5401955c-.5955335-1.3898214-1.9656275-2.2007777-3.1958593-2.9620615-1.2699011-.7858303-2.5119392-1.6406954-3.5596235-2.7129476-1.0881156-1.113628-1.8718207-2.4355951-2.2118971-3.9624881-.36751-1.6499903-.2942678-3.3553952-.4125244-5.0318961-.0350434-.4968539-.0981537-.9866347-.182247-1.4704587,1.2757935,.2932589,2.592319,.5660283,3.9030378,.3850478,1.1439918-.1579689,2.1790325-.7168919,2.8521659-1.6698571,.605966-.8578597,.7583215-1.9440756,.2513571-2.8856208-.5078338-.9431659-1.4588777-1.5364454-2.021815-2.4378169-.6941272-1.1114278-.3367384-2.4311517-.3585372-3.6580455-.0201674-1.1346004-.4736061-2.1070997-1.3439591-2.8369035-.8168595-.684929-1.8115332-1.1162791-2.797524-1.4967439-1.3040858-.5031971-2.6180783-.99945-3.9687455-1.364266-2.4676869-.6665325-5.2130591-.8478994-7.5618561,.3309748-.2817208,.1413863-.5518178,.3031225-.8115144,.4815808-.0740687,.0508961-.0898785,.1299556-.0709561,.1985612-.4733593-.2187286-.947384-.4360512-1.4339556-.6232784-1.2388934-.4766972-2.5545065-.6372099-3.8731571-.7094003-1.8477251-.3051833-3.7018792-.2879138-5.4307144,.3787475-.8907243,.1760541-1.7703398,.4070291-2.6306359,.6953507-4.5174829,1.5140456-8.4962209,4.6154219-10.5943263,8.9466222-1.9055976,3.9338095-2.3291985,8.6372423-.9610149,12.8074255,.6856803,2.0899376,1.8279977,3.941387,3.3260403,5.5448925,1.5429389,1.6515358,3.3558245,3.1046392,4.601909,5.0118038,.0428248,.0655467,.0826981,.1329716,.1238164,.1996238,.0438767,1.0863447,.2673493,2.1500855,.7372096,3.1561148-.814187,.8283224-1.5312292,1.7514926-2.1377962,2.7428821-1.7655636,2.8857496-2.6260207,6.2983841-2.6349828,9.6696964-.0058066,2.1847103,.3612634,4.327111,1.0038183,6.3916327-2.5750173-2.1083984-4.9358139-4.4442085-6.989828-7.08825-5.0221719-6.4648321-8.09634-14.472646-7.7866059-22.720998,.2986683-7.9536121,3.6411624-15.9894177,9.9232-21.055198,5.9901312-4.8303832,14.4159326-6.8298413,21.8485092-4.5845859,.911482,.2753347,1.8010578,.6151105,2.6652607,1.0146372,.2040888,.0943542,.3829549-.208704,.1775138-.3036806-7.0925861-3.2789116-15.6055183-2.2892823-22.2037299,1.7052654-6.905359,4.1805084-11.1835058,11.6143193-12.4029509,19.488743-1.2673896,8.1839538,.8174605,16.4517649,5.2117389,23.4082775,2.2128631,3.503157,4.9633763,6.663565,8.0854889,9.3847342,.5465586,.4763538,1.1086801,.9342038,1.6776386,1.3834889,.1383274,.4055587,.287023,.8078115,.4456573,1.2066084-.0926154,.0496296-.1848659,.1007618-.2775993,.1497044-3.7720733,1.9899486-7.8395628,3.4992716-11.0813273,6.3560205-1.4605414,1.2870632-2.7277377,2.8311184-3.4924132,4.6341403-.7828787,1.8459541-.9611867,3.8685311-.5867646,5.833944,.7987528,4.1926904,3.8297634,7.4999479,7.5439426,9.413971,.6919698,.3565731,1.4009408,.6631731,2.1212137,.9336457-2.6822297,1.7036125-5.298054,3.5117649-7.8335415,5.4269685-1.0827706,.8179006-2.1509871,1.6547987-3.2056371,2.508612-.1759575,.1424489,.0742297,.3899528,.2486953,.248706,3.5741668-2.8935847,7.3181731-5.574419,11.2051436-8.0309758,2.8855349,1.0159252,5.9602504,1.4111586,9.02756,1.5385169,.0975955,.0986366,.1952018,.1972733,.2927973,.2959099,.1594286,.1611244,.4081131-.0875601,.2486845-.2486845-.0090372-.0091446-.0180744-.0182676-.0271117-.0273907,.5393245,.0173231,1.0781446,.027863,1.6152152,.0317698,1.0269587,.0074702,2.0538853-.0046796,3.0807045-.0212514-2.0830577,1.5546809-5.044883,1.9937695-7.5933468,1.9376572-1.0579665-.0233122-2.1133356-.1074163-3.1677817-.1920785-.22563-.0181174-.2244493,.3336688,0,.3517003,3.8224005,.3068791,8.1022217,.5536531,11.2476465-2.0566437,.0195127-.0162069,.0378232-.0333583,.0571212-.0497369,.071482-.0012236,.1429856-.0023183,.2144676-.0035634,.1721472-.0030053,.2127289-.2068471,.1225928-.3025429,1.1193273-1.0842517,1.8112435-2.4916967,2.0235108-4.0538263,.2602118-1.9150105-.0966081-3.849598-.4003209-5.7376257-.0577116-.3587626-.1073841-.7174823-.1531605-1.0761805,.3095087-.2865507,.6013508-.589845,.8698378-.9104838,.6779417,.503444,1.3901863,.9683134,2.1412844,1.3884046,3.3751225,1.8877271,7.2053474,2.9483232,11.0690809,3.0848904,.6062343,.0214231,1.212533,.0163786,1.8181663-.0085435,1.4331828,.4174294,2.9871875,.4339797,4.4081454-.0220242,.2492534-.0800041,.4925499-.1759789,.7317143-.2822146,.2064286-.0917246,.0277127-.3948685-.1775138-.3036806-1.2056853,.5356216-2.5550109,.6839522-3.8556085,.4920026,.0936028-.103445,.0561231-.3076089-.117881-.293613-.3153689,.0253729-.6311028,.0422023-.9469117,.0551034-.4080273-.1221635-.8058903-.276891-1.1859365-.4662433-1.9542612-.973637-3.2921025-2.7748558-3.6760984-4.923267-.3927112-2.197225,.2252006-4.4952977,1.7303807-6.1489372,.7859913-.863516,1.7090971-1.6371965,2.1878444-2.7296912,.4125351-.9414164,.5043134-1.9771548,.4878167-2.9947114-.0173553-1.0701914-.1484487-2.1347373-.1716428-3.2046926-.0218847-1.0095712,.0488675-2.0659385,.5212501-2.978805,.0979497-.1892664,.2143173-.3680145,.3419761-.5384981,.9974965,.1940534,1.99568,.384801,3.0006038,.5173111-.5163451,2.8731704-.3772664,5.840899,.3498327,8.6660498,.7288378,2.8318482,2.0404905,5.510858,3.8422244,7.814426,1.022526,1.3073272,2.2048455,2.4793752,3.5199005,3.4915867,.1792418,.137984,.354566-.1673925,.1775138-.3036806-2.2876938-1.7608411-4.1468281-4.0460771-5.4792492-6.6023867-1.3268828-2.5457054-2.1346729-5.3705986-2.3269982-8.2361271-.1073089-1.5990298-.023119-3.2090287,.2644084-4.7858841,.485391,.0567992,.9724242,.099345,1.4621513,.118364,1.6174369,.0628098,3.3721924-.0884403,4.830834-.8475023,1.2325394-.641385,2.2621277-1.9315394,2.0649081-3.3922847-.1018244-.7541678-.5430811-1.3828234-.9382072-2.0115649-.3894698-.6197257-.8015649-1.3981502-.5905426-2.1537133,.2147037-.7687218,1.0567751-.9466541,1.5758571-1.4465991,.3954374-.3808727,.6868502-1.0667998,.284007-1.545708-.1469139-.174648-.4433604-.3011262-.6712121-.4524191,.0074702-.0472039-.0034346-.0976707-.0465599-.1421484-.0778897-.0803261-.1611137-.1501123-.2483733-.2109686-.0196522-.1035953,.0069765-.2230755,.1096273-.3685082,.320671-.4543296,.8570869-.7528798,1.0064372-1.3209152,.2715781-1.0329478-.8385617-1.8926214-1.221538-2.7426567-.5818918-1.2915711,.7576238-1.9654665,1.5944575-2.6497515,.4760318-.3892552,.859416-.8608757,.9987952-1.472498,.1491571-.6545867,.0391971-1.345247-.2226784-1.9563971ZM57.4202722,5.5523739c2.0698239-1.4222995,4.7135541-1.5177592,7.1006574-1.0182542,1.3227613,.2767944,2.6037711,.7185341,3.8682735,1.1890598,1.0200252,.3795525,2.0635343,.7423937,3.0016986,1.3031521,.8628506,.515744,1.6366706,1.2394729,1.8838847,2.2469941,.2897814,1.1809671-.1156163,2.4071526,.0889018,3.5990889,.1825368,1.0638053,.9400748,1.7747189,1.6519007,2.5209657,.6939769,.7275499,1.2584168,1.5800001,.978381,2.6265144-.3106464,1.1609715-1.374076,2.0281904-2.5091379,2.3158788-1.4719935,.3730805-3.0095015,.0221208-4.4540185-.3120953-.1116773-.5567121-.2541691-1.104344-.4262305-1.6418975,.4606621-.5502078,.7742815-1.2118461,.8430159-2.0236289,.1753671-2.0712192-1.7670341-3.0793951-3.4636916-3.6715047,.6009215-.3300624,.9984625-.9506361,1.1322821-1.6391606,.1857675-.9557558-.170387-1.8731624-.8383041-2.5621162-1.8589625-1.9175327-4.7388197-1.4037207-7.0679323-2.182349-.6170961-.2063105-1.2091628-.4732627-1.7991688-.7454311,.003177-.0019427,.006311-.0030267,.009488-.0052163Zm-3.667351,54.0277627c-.1814098,.1769234-.3539649,.3667909-.5158299,.5713627-.3789944,.4789941-.6731011,1.0071885-.8994073,1.5736998-.0000537,.0001288-.0000107,.0002147-.0000644,.0003435-.652966,1.0923659-1.2315305,2.2272132-1.7235974,3.4048638-.3518505,.8420499-.6596097,1.7025392-.924748,2.5760799-2.182392-3.1565012-5.4988155-5.3181999-8.0394549-8.1543199,1.5709629-1.1998036,2.9428171-2.6258597,3.9116565-4.4189643,.8596736-1.5910873,1.4021644-3.3985313,1.3439913-5.2186617-.0614574-1.9228885-.8620778-3.5798982-2.1224372-5.0051171-1.0560131-1.1941795-2.2690505-2.2549259-3.0923499-3.595826,.0012021-.1930445-.0037566-.3853269-.0186755-.5762355,1.0146694-.9157537,2.1773045-1.6687838,3.0894197-2.6886158,.9920764-1.109249,1.3440557-2.4819189,.7725213-3.8875393-.6128995-1.5073696-1.8815449-2.6749097-2.3457274-4.2518724-.1065254-.3618859-.1681116-.7308556-.1940319-1.10165,.6925387-1.623705,1.3713069-3.2540968,1.7620003-4.9409765,.9286012-1.1061471,2.1251956-1.9843674,3.3640031-2.7113055,1.5574393-.9139291,3.3095759-1.52641,4.7584289-2.6180139,1.2305967-.9271522,2.2219862-2.3540562,2.1176181-3.9606421-.0475044-.7311132-.3499078-1.369815-.838508-1.9090751-.5481471-.6049785-1.2768776-1.069966-1.6750734-1.8002636-.9238142-1.6943284,.6385515-3.4467548,2.1031177-4.1104538,.8172888-.370365,1.7033549-.5654917,2.5762946-.7563681,.0129548,.0047011,.0259203,.0093377,.0388751,.0140388,.7735195,1.7374967,.6559283,3.7158107,.8070173,5.5713279,.0749166,.9200899,.2621223,1.8229639,.25755,2.7495151-.0044542,.9019618-.1377908,1.8049324-.4370816,2.6575329-.6296753,1.7937164-2.0078942,2.9470889-3.5987025,3.8848453-1.4210652,.8376816-2.9685657,1.5617861-4.117806,2.7780972-2.0163196,2.1340074-2.5472831,5.4714999-1.5240917,8.1905868,1.1663487,3.0994873,4.1577651,4.3850694,6.9064537,5.7905825,1.4636647,.7484364,2.927866,1.6045358,3.9515619,2.9235084,1.0621846,1.3685807,1.5278912,3.0895593,1.5476722,4.804141,.0436727,3.7853715-1.8715202,7.0763363-4.0613716,10.0210532-1.0468685,1.4077026-2.1552589,2.7696825-3.1792231,4.1943218Zm-3.9496192,8.9966704c.0030804-.0113341,.0066116-.0225609,.0097027-.0339164,.1804653,.2918958,.3503264,.5915622,.5072542,.9005021,1.178037,2.3192812,1.6072084,5.1018862,.3368028,7.4776232-.1978099,.3699035-.4264666,.7162372-.6789077,1.0428651-.3523872-.267038-.6966816-.5448306-1.0326473-.8333562-.1591495-2.87126,.0934526-5.7317869,.8577953-8.5537178Zm-1.2809776,7.7029097c.0043254,.1669632,.0134378,.3331321,.0218954,.4993869-.8175357-.7374672-1.583864-1.539397-2.2950352-2.4040078-1.0778441-1.3103539-2.0341365-2.7150084-2.9666767-4.1307608-.0604055-.0917031-.1207574-.183535-.1812059-.2752595,.6950931-1.2505924,.8579885-2.69307,.3095087-4.1257592-.7702352-2.0119084-2.4694149-3.37245-4.1440268-4.6215612-.0203284-.0151551-.040324-.030675-.0606309-.0458515,.7522037-.4410206,1.4844868-.9128236,2.1809538-1.4266786,1.1766095,1.3240278,2.5044046,2.5294341,3.727456,3.6303006,1.6159773,1.4545416,3.2371171,2.9591421,4.4455501,4.7695054-.7521285,2.6377305-1.1088948,5.3891024-1.0377884,8.1306857Zm.0524416,.9922696c.0479016,.6557458,.1209828,1.307456,.2089401,1.9574489-.9587825,.8486829-2.0757378,1.5382593-3.1842676,2.1458782-2.3059829,1.2640087-4.6999983,2.3606678-7.0063569,3.6271236-.4223344,.2319195-.8411913,.4700857-1.2606385,.7071785-.2456149-.2482338-.491219-.4964675-.7368339-.7447013-1.4642335-1.4797857-3.7014177-3.1790836-3.587948-5.4922254,.1120315-2.283948,2.0806213-3.8946339,3.9131913-4.9290628,1.847285-1.0427363,3.8803482-1.8404803,5.3486603-3.4311812,.2370285-.2567987,.4467628-.5281514,.6302119-.8101943,.5715559,.8695694,1.1511293,1.7337724,1.7607016,2.5770029,1.1640841,1.6102995,2.453573,3.095924,3.9143397,4.3927328Zm-5.6804186-7.6172815c-.8595663-1.3049445-1.715494-2.6137958-2.5032991-3.9632395-.7606828-1.3029911-1.4483057-2.6496012-2.0233498-4.0383707,.1705909-.0937424,.3403232-.1890947,.5094116-.2855847,.741213,.5509699,1.4822436,1.1031419,2.159273,1.7326991,1.6373897,1.5226105,2.9727516,3.7975643,2.0838627,6.06713-.0661907,.1690024-.1436403,.3299337-.2258983,.4873659Zm-1.6642759-36.2148337c.3812913-1.3482094,.9278391-2.6691675,1.4902504-3.9900077,.0052914,.02943,.0090372,.0590425,.0148223,.0883973,.1610063,.8177718,.5379936,1.554273,.9795724,2.253595,.8351164,1.3225681,2.1012824,2.7720115,1.6810731,4.4565837-.402972,1.6155157-2.046662,2.5981041-3.2491381,3.5863058-.179392,.1474183-.3540079,.3002568-.5257043,.4562401-.1363955-.9421999-.46766-1.8521793-.9792074-2.7072269-.0436942-1.3958319,.2110223-2.8097811,.5883316-4.1438873Zm.4298153,8.500278c.0335193,.0485563,.0648383,.0976921,.0997636,.1458835,1.2212375,1.6848512,3.0101562,2.9220916,4.0003221,4.7797233,.9496272,1.7815773,.9799266,3.8795432,.4387559,5.7915914-.5456356,1.9278472-1.6309928,3.7050025-3.0301948,5.1320461-.5387235,.5494243-1.1246616,1.0482531-1.7383768,1.5126073-.6888036-.7946743-1.3151516-1.6436578-1.8364768-2.5841726-1.2514725-2.2577594-1.6418868-4.7248775-.8184802-7.1972332,.7392918-2.2198074,2.1063806-4.1937637,2.689893-6.4706494,.0953201-.3719213,.1592247-.7421897,.1947939-1.1097963Zm1.3460091-14.0689978c.1006974-1.0729928,.4863033-2.1268056,1.0484248-3.0388135,.040045-.0649778,.0823868-.1281954,.1242349-.1917994-.3153582,1.0994926-.7313708,2.1711438-1.1726598,3.2306129Zm2.0569335-7.5830431c-.1627666-2.1010892-1.0356954-4.0447462-1.7314862-6.0072289-.6818808-1.9232427-1.2563238-4.0401846-.4862067-6.028974,.642351-1.6588343,2.1252385-2.8138919,3.7554371-3.4342294,1.7931475-.3441335,3.6315671-.4580325,5.4473506-.340656,.6342368,.1139849,1.262549,.2650202,1.8781425,.4400439,.8848855,.2515825,1.7548843,.5509913,2.6207186,.8613801-1.4839394,.3429636-3.0340372,.8228163-3.9709887,2.0892936-.4443264,.6006102-.7405154,1.3588887-.6973578,2.1149885,.0438445,.7683891,.4436395,1.388308,.975687,1.919411,.5801101,.5790797,1.2958965,1.0800658,1.6104283,1.8676134,.3321017,.8315637,.1905007,1.7837132-.1787481,2.5779796-.8190812,1.76185-2.6697901,2.6297666-4.3238374,3.4391022-1.802496,.8819768-3.6674369,1.9622466-5.0689358,3.4216073,.1737572-.9508615,.2471926-1.9212464,.1697967-2.9203314Zm20.3629813-7.7564568c-.0168938,.0043361-.030514,.0119244-.0439089,.0196415-.7760203-.9676802-1.6283417-1.8736024-2.5539913-2.6998962-1.105267-.9866347-2.3045876-1.8582005-3.5032858-2.7261922-.3901031-.2824829-.7789933-.566565-1.1665419-.8525039,.6639459,.2813452,1.3422311,.5246739,2.0550123,.6582788,1.3589102,.2547272,2.7706699,.2528919,4.0836212,.7274103,1.0917112,.3945573,2.2451051,1.2129838,2.4816506,2.4243684,.1956955,1.0021976-.3105069,2.1815655-1.3525562,2.4488934Zm3.0469169,5.4570962c-.5812585-1.6633958-1.438324-3.228638-2.5012706-4.6729403-.0877426-.1192226-.1776747-.2367816-.2676606-.3543084,1.5838211,.5283232,3.5796513,1.4260454,3.3921022,3.396653-.0606631,.6373387-.2876455,1.1733145-.623171,1.6305957Zm-32.4199634,14.4933929c-1.5732812-1.6440227-2.7830773-3.5210489-3.4859734-5.6949618-.6707828-2.0745786-.8878478-4.2810877-.7015544-6.4505356,.3965322-4.6175578,2.6484742-8.8944167,6.3023124-11.7561779,2.0439143-1.6008329,4.4146604-2.7382883,6.9159632-3.4128814-.1273905,.0798968-.253933,.1637003-.3793486,.2525377-1.5228574,1.0786276-2.4851818,2.7056492-2.577604,4.5827827-.1043681,2.1198076,.7859591,4.1510355,1.5011445,6.0984919,.3710841,1.0104728,.7262082,2.0335676,.9329588,3.0923177,.2345277,1.2010057,.225952,2.4324074,.0293119,3.6382215-.0503702,.308854-.1112372,.6150247-.181002,.9188341-.7781776,.9425649-1.3628278,2.0324514-1.6342664,3.3117332-.1169687,.5512811-.1655357,1.1164616-.135891,1.6780786-.1607058,.3766868-.3219805,.7524398-.4805075,1.1277742-.9286548,2.1986847-1.809816,4.728355-1.8638568,7.1825612-1.1916787-1.710267-2.8084931-3.0711306-4.2416867-4.5687761Zm4.6566153,5.9632986c.3215726,.6668116,.5451955,1.3769203,.6211747,2.1184445-.0093377,.0089621-.0189867,.0175915-.0282923,.0265857-.1069118-.2306423-.2024037-.4695705-.2826117-.7196825-.149962-.4676278-.2493178-.9442929-.3102707-1.4253477Zm-3.9862833,16.9360397c-.3477076-3.4004847,.1623587-6.9122925,1.6229108-10.0147851,.7044094-1.4962717,1.6271503-2.8906653,2.7671387-4.0910485,.0288611-.030396,.0601265-.0581731,.0894062-.0881183,.0484275,.091467,.0981644,.182569,.1509817,.2729412-.0438659,.9136822-.2796816,1.8098482-.6030788,2.6685772-.8318643,2.2088597-2.2045557,4.2274225-2.6528211,6.5735578-.650916,3.4068387,.9216354,6.3077433,3.071238,8.7961128-.7230956,.5276792-1.484036,1.0060293-2.2605392,1.4519227-.3851015-.2918528-.7660385-.5881921-1.1426609-.889168-.5129749-1.5115126-.8781022-3.0714741-1.0425753-4.6799919Zm1.2687527,5.3174701c.0495115,.0379735,.0974667,.0779433,.1471285,.1157236,.1439623,.1095414,.2888154,.2180524,.4339261,.3263274-.1128043,.0631103-.225469,.1260703-.3387025,.187957-.0834387-.2090582-.164355-.4190179-.242352-.630008Zm-14.475619,19.9823448c-.8123623-1.9459431-1.1208192-4.1292152-.6687435-6.2034611,.425286-1.9513526,1.4817069-3.691436,2.8375797-5.1378204,2.9034805-3.0972978,6.8481304-4.7611337,10.5844304-6.6010343,.5951471-.2930549,1.1907986-.5971005,1.7806114-.9143262,.2617466,.6337002,.54775,1.2583416,.8554984,1.8725291,.833485,1.6634924,1.8056623,3.2530127,2.8218021,4.8101193,.3238588,.4962743,.6471701,.9931926,.9717373,1.4892952-.9830284,1.5754171-2.7475509,2.5606243-4.3563263,3.3953114-1.92701,.9998256-3.9604703,2.0324729-5.0585999,4.0044543-.4606299,.8271954-.7202192,1.7769621-.6030144,2.7260634,.1183318,.9582458,.6141446,1.7973978,1.2145079,2.53362,.7445081,.9129953,1.6237802,1.7213435,2.4512117,2.5575761,.222453,.2248357,.444906,.4496285,.667359,.6744642-1.5198629,.8653192-3.0193974,1.7659286-4.4991616,2.6981146-3.8707636-1.4095487-7.374586-4.0140282-8.9988921-7.9049055Zm9.4941575,8.0789954c-.0244821-.0082-.0487817-.0170655-.0732423-.0253729,.7033147-.440763,1.4097956-.876503,2.1224158-1.3022612,.7319289-.437307,1.4701904-.863838,2.2114571-1.2851098,.6144773,.6210137,1.2289546,1.2420489,1.8434318,1.8630626,.7046992,.7122016,1.4093984,1.4243818,2.1140976,2.1365834-2.7887658-.1314797-5.5561085-.4938701-8.21816-1.386902Zm16.1782334-6.8115307c.2861321,1.9275252,.4785755,3.9889988-.2608451,5.8434534-.388257,.9737443-.9718017,1.7598537-1.6854952,2.3907203-1.8241768,.0312546-3.6646034,.0534076-5.4984291-.0149833-1.3849486-1.3996743-2.7698757-2.7993486-4.1548242-4.1990229,1.5863755-.8950926,3.1913836-1.7571704,4.8177183-2.5774108,2.0237898-1.0206906,4.1209615-1.9569981,5.929307-3.3447802,.1722653-.1321881,.3398939-.2701721,.5044207-.4114618,.1100244,.770482,.2333363,1.5399981,.3481476,2.3134853Zm-.0912094-3.0083853c-.0503272-.4399258-.0898677-.8797229-.1213907-1.3193053,.252688,.2136304,.511966,.4199195,.7749899,.6220226-.2056021,.2432751-.4233433,.4761391-.6535992,.6972827Zm15.1475073-14.5650789c.0654608,1.0904769,.0936994,2.216845-.231619,3.2724181-.3702684,1.2014136-1.2680121,2.0276645-2.10725,2.913634-.7984953,.842973-1.414765,1.7958523-1.7722503,2.9059921-.3412785,1.0597804-.4479112,2.200445-.3165925,3.3056046,.2646875,2.2277069,1.4868158,4.2070083,3.4240652,5.3586635,.2834489,.1685087,.5794876,.3163886,.8831897,.4475678-3.1823035,.0027477-6.3547755-.6198545-9.3005764-1.8399436-1.6431855-.6805821-3.1720319-1.5434541-4.5766434-2.5739977,.7477709-.9705674,1.2835106-2.0859234,1.4682906-3.3435567,.3403769-2.3165335-.4655241-4.6648583-1.6897562-6.6084401-.0268326-.0426102-.0552537-.0838036-.0825049-.1260274,.5130608-1.7617212,1.2037963-3.471516,2.070017-5.0893071,.5894264-1.1008879,1.2670569-2.1442468,1.9888109-3.1581327,.3638501-.3558432,.7736912-.6673375,1.2235129-.9246085,1.2703948-.7266054,2.7379771-1.0121042,4.1880752-1.0518809,1.8730014-.0513898,3.7043478,.2826653,5.5344063,.6374997-1.1568071,1.709022-.8207878,3.915091-.7031751,5.8745148Zm12.7929359-18.8126151c-.2906615,.4434892-.8837478,.7489515-.9965306,1.2991272-.5745182-.2277551-1.2555081-.1653103-1.8486481,.0148545-.9944806,.3020707-2.0392562,.9463965-3.0995088,.5447662-.2118702-.0802402-.303466,.2596108-.0934955,.3391426,.9596411,.3634851,1.932881-.0577223,2.833265-.3900172,.6919162-.2553176,1.572809-.4863784,2.2424541-.106944,.1343991,.307566,.5129213,.472769,.8091102,.6523327,.3455073,.2094445,.3901997,.5417824,.2095304,.8897261-.184501,.355328-.5207993,.5529662-.8496489,.7559709-.4483298,.2767836-.83678,.5910471-1.0234705,1.0526536,.0062144-.0574003-.0168831-.1148006-.0887408-.1464845-1.4221171-.6275823-2.7657542-1.4490248-3.9510038-2.4567929-.1152407-.0979712-.3105605-.2420515-.3105176-.4108178,.0000322-.1717286,.2101851-.2767836,.3357188-.3531385,.3511207-.2135231,.7067814-.4198121,1.0648893-.6213572,.7043772-.3964356,1.4208721-.7713192,2.1481643-1.1239425,.8406761-.4075979,1.6958096-.7844135,2.5632217-1.1314342,.2054089,.3794344,.3175907,.7920125,.0552108,1.1923549Zm1.3103754-6.631119c-.5650194,1.0219357-1.9333854,1.3285679-2.4212558,2.4063798-.4640001,1.0251127,.3399368,1.9181445,.8721132,2.7300561-1.652856,.6656846-3.2623397,1.4358876-4.8127059,2.3146445-.374025,.211999-.7679812,.4149608-1.118898,.6639888-.2578076,.1829339-.4305774,.4554244-.2996235,.7735946,.137984,.3352572,.5135116,.5685506,.7870968,.7843276,.3278407,.2585804,.6643859,.5060414,1.0104621,.7397211,.8184802,.5526013,1.6858708,1.0285687,2.5892493,1.4271938,.0993128,.0438337,.1915418-.0051519,.2378442-.0770847-.0371793,.1090477-.0672962,.2232687-.0806373,.3498542-.0743048,.7047743,.2226677,1.3899931,.580797,1.9784428,.3833842,.6299651,.8736587,1.2491756,.9882017,1.9987067,.1190831,.7791972-.1975309,1.5807836-.7016832,2.1670223-1.092645,1.2705773-2.9739,1.6252828-4.5635706,1.7078413-2.0390522,.1059136-4.0308361-.2695281-6.0227274-.6567762-.0523236-.0664375-.1410858-.0981859-.2142422-.0416013-1.4462772-.2813344-2.8934774-.56005-4.3597824-.6563039-2.0464258-.1343562-4.2834382,.1272939-6.0300259,1.2250692,.1866154-.2486845,.3743362-.4965963,.5638388-.7432845,2.2803417-2.9683296,4.7611444-5.9665399,5.6458152-9.6906902,.7659312-3.2242911,.3002353-6.8118742-2.3158788-9.0805169-2.5071416-2.1741383-6.0427016-2.8140529-8.3539222-5.2470077-2.204384-2.320494-2.4674401-6.1158258-.894835-8.8485866,1.7796132-3.0924894,5.7756421-3.5514342,7.8365897-6.3475736,1.0424573-1.4143142,1.414443-3.228155,1.3367143-4.9588685-.0415261-.9246192-.2245889-1.8357577-.2826009-2.7603125-.0588385-.9377457-.0807447-1.8790119-.1934952-2.8126039-.0780077-.6458607-.2005361-1.279958-.4095299-1.8906894,2.3424431,1.74428,4.7634198,3.3663751,6.7101357,5.5770594,1.6283417,1.8491311,3.0045321,3.984566,3.7946341,6.3266978-.9168378,1.0121901-2.3860836,1.5986327-3.6295278,2.0586722-.2104642,.0778682-.1194373,.4179231,.0934955,.3391426,1.2548534-.4642577,2.6899682-1.054972,3.655974-2.0236503,.1476544,.4802177,.2730271,.9679163,.3678213,1.4642657,.5978518,3.130216-.124192,6.509299,1.6449887,9.3502382,.7462039,1.1982581,1.7835737,2.1808572,2.9009154,3.0298621,.5902957,.448523,1.2074992,.8605322,1.8360368,1.2532434,.6671336,.4168176,1.3545419,.8128775,1.9624505,1.3156239,1.0675618,.8828891,2.0579638,2.464467,1.289768,3.853902Z"/><path d="M65.3924416,25.5925805c.3300195,.1416761,.6602644,.2985932,1.0160969,.347246s.7509908-.0301169,.9917758-.2965968c.2407743-.2664692,.2508633-.7428337-.0390361-.954822l-.1444131-.1901573c-3.0832804-.9159791-6.3851714-1.0866344-9.5464489-.4934086-.5117406,.0960285-1.0259928,.2138988-1.4901646,.449768-.4641825,.2358693-.8790575,.6024348-1.0819441,1.0819548,3.2537962-1.3551214,7.0552781-1.3344389,10.2941339,.0560157Z"/><path d="M69.3108063,30.8421211c.2098095-.0790918,.1188899-.4192003-.0934955-.3391319-.6034437,.2274868-1.2194988,.4183095-1.8439685,.5734556l-7.580757,.1308358c-.1800253-.0381452-.35975-.0779326-.5385303-.1220561-.9326905-.23017-1.8450096-.5404408-2.7231977-.929975-.2050655-.0909625-.3842106,.211999-.177503,.3036806,1.1980649,.531425,2.4536588,.9189092,3.7359566,1.1618301,.8169668,.457088,1.4939426,1.1671322,1.8911402,2.015783-.1049369-.1930123,.0954167-.441568,.3146605-.4555639s.4174831,.1299235,.5665435,.2912947c.1490605,.161382,.2740789,.3497683,.4556927,.4733807s.4486089,.1623802,.6099479,.013266c.1991301-.1840287,.1214765-.5093579,.0287967-.764171,.578747,.7831255,1.7463086,1.0599199,2.6150086,.6199297-.0945903-.1589563-.1911984-.323526-.2159058-.5068356-.0247075-.1832989,.0411075-.3919706,.203756-.4800567,.1502304-.0813564,.3411282-.0395083,.4864965,.0502414,.145379,.0897497,.2593961,.2210577,.387291,.3343342,.5710407,.5057516,1.4565272,.6202302,2.1374098,.2763329-.420703-.259804-.7744318-.6270886-1.0182113-1.0572796,.9857975,.2420193,2.0452881,.4805289,2.99352,.1182781-1.1861405-.3231396-2.3403501-.7624-3.4423972-1.3072092,.4070291-.1191582,.8105163-.2506165,1.2077461-.4003639Z"/><text x="0" y="115" fill="#000000" font-size="5px" font-weight="bold" font-family="'Helvetica Neue', Helvetica, Arial-Unicode, Arial, Sans-serif">Created by Kristina Margaryan</text><text x="0" y="120" fill="#000000" font-size="5px" font-weight="bold" font-family="'Helvetica Neue', Helvetica, Arial-Unicode, Arial, Sans-serif">from the Noun Project</text></svg>