<svg xmlns="http://www.w3.org/2000/svg" xmlns:xlink="http://www.w3.org/1999/xlink" width="122" zoomAndPan="magnify" viewBox="0 0 91.5 112.499997" height="150" preserveAspectRatio="xMidYMid meet" version="1.0"><path fill="#000000" d="M 85.933594 46.207031 C 85.824219 46.113281 83.3125 43.929688 79.878906 42.5625 C 77.585938 41.648438 76.277344 41.164062 75.660156 40.945312 C 75.136719 40.632812 74.628906 40.308594 74.167969 39.984375 C 68.164062 35.773438 61.386719 31.203125 55.707031 28.359375 C 50.605469 24.351562 45.074219 21.121094 39.183594 18.460938 C 34.351562 16.03125 28.429688 15.710938 23.121094 16.140625 C 21.113281 16.417969 19.464844 17.359375 17.804688 18.277344 C 13.714844 20.671875 10.085938 23.539062 6.613281 26.613281 C 6.429688 26.753906 6.65625 27.050781 6.839844 26.925781 C 11.855469 24.253906 16.730469 21.28125 22.042969 19.566406 C 23.058594 19.230469 23.980469 19.378906 24.953125 19.40625 C 31.785156 19.285156 37.734375 21.960938 43.65625 25.03125 C 47.675781 27.054688 51.636719 29.265625 55.136719 31.976562 C 58.855469 34.664062 61.128906 38.410156 63.523438 42.144531 C 65.898438 45.992188 68.070312 50.058594 70.289062 54.074219 C 73.871094 60.339844 77.273438 68.167969 80.363281 74.628906 C 78.5 73.695312 75.71875 75.179688 75.894531 77.5 C 75.925781 77.914062 76.03125 78.363281 76.175781 78.828125 C 75.320312 77.183594 74.460938 75.535156 73.605469 73.890625 L 69.132812 65.566406 C 66.253906 59.933594 63.144531 54.1875 58.40625 49.921875 C 58.316406 49.941406 58.277344 50.039062 58.308594 50.121094 C 60.160156 56.335938 63.421875 61.644531 67.121094 66.828125 C 70.03125 71.207031 74.117188 77.335938 77.21875 81.75 C 76.3125 81.320312 75.195312 81.472656 73.914062 82.324219 C 73.214844 82.789062 72.808594 83.300781 72.597656 83.824219 C 65.3125 73.519531 58.234375 63.003906 49.511719 53.84375 C 49.410156 53.707031 49.1875 53.851562 49.257812 53.996094 C 50.78125 57.710938 52.894531 61.082031 55.046875 64.378906 C 59.121094 70.5625 64.925781 77.21875 69.972656 83.367188 C 69.019531 83.011719 67.933594 83.378906 67.046875 84.035156 C 66.441406 84.484375 66.035156 85.113281 65.859375 85.785156 C 64.75 84.488281 63.644531 83.1875 62.539062 81.882812 C 56.332031 74.398438 50.539062 66.605469 43.046875 60.296875 C 42.9375 60.175781 42.730469 60.320312 42.796875 60.460938 C 45.617188 66.441406 49.75 71.527344 54.367188 76.164062 C 54.945312 76.753906 55.5625 77.390625 56.195312 78.042969 C 55.375 77.785156 54.472656 77.914062 53.695312 78.578125 C 53.09375 79.09375 52.816406 79.71875 52.753906 80.351562 C 50.394531 78.1875 48.082031 75.96875 45.835938 73.707031 C 42.953125 70.871094 40.582031 67.804688 37.953125 64.742188 C 35.320312 61.8125 32.011719 59.125 29.484375 56.308594 C 25.980469 52.542969 23.800781 48.316406 22.234375 43.339844 C 21.351562 40.214844 19.273438 38.066406 15.8125 38.222656 C 15.601562 38.207031 15.542969 38.539062 15.734375 38.601562 C 18.472656 39.625 19.425781 41.121094 19.660156 43.976562 C 17.304688 45.636719 14.664062 48.3125 13.085938 50.539062 C 10.820312 53.265625 8.660156 56.078125 6.585938 58.960938 C 6.457031 59.128906 6.691406 59.359375 6.863281 59.234375 C 9.742188 57.164062 12.554688 55 15.28125 52.734375 C 17.304688 51.246094 18.816406 49.574219 20.371094 48.058594 C 22.167969 55.222656 26.570312 59.539062 32.929688 64.226562 C 37.058594 67.515625 40.308594 71.871094 44.320312 75.296875 C 47.441406 78.089844 50.671875 80.757812 54.007812 83.265625 C 55.058594 84.421875 56.597656 85.832031 57.140625 86.246094 C 58.378906 87.191406 61.640625 84.597656 60.714844 83 C 60.550781 82.722656 60.382812 82.460938 60.214844 82.207031 C 62.441406 84.496094 64.722656 86.789062 66.800781 88.714844 C 67.929688 90.066406 70.5625 93.113281 70.828125 93.242188 C 72.035156 93.820312 75.367188 91.386719 75.070312 90.1875 C 75.042969 90.085938 74.441406 89.144531 73.703125 88.027344 C 74.210938 88.679688 75.054688 89.777344 75.902344 90.652344 C 77.066406 92.09375 78.292969 93.414062 78.871094 93.382812 C 79.707031 93.335938 82.191406 91.601562 82.546875 90.851562 C 82.929688 90.058594 80.898438 86.71875 79.535156 84.574219 C 79.832031 84.847656 80.125 85.058594 80.378906 85.101562 C 81.816406 85.371094 83.609375 83.984375 84.105469 83.285156 C 84.683594 82.476562 83.84375 80.328125 82.988281 78.488281 C 82.671875 77.804688 82.300781 77.03125 81.90625 76.359375 C 78.882812 68.535156 75.78125 60.738281 72.097656 53.144531 C 71.972656 52.902344 71.847656 52.65625 71.722656 52.414062 C 72.742188 52.769531 73.808594 53.058594 74.972656 53.230469 C 75.617188 53.324219 76.214844 53.367188 76.773438 53.367188 C 80.648438 53.367188 82.421875 51.300781 83.160156 49.960938 C 83.257812 49.792969 83.339844 49.613281 83.417969 49.433594 C 84.867188 49.253906 85.785156 48.488281 86.171875 47.890625 L 86.773438 46.953125 L 85.9375 46.21875 Z M 75.34375 50.660156 C 73.398438 50.375 71.746094 49.695312 69.953125 48.902344 C 67.617188 44.175781 65.28125 39.285156 62.1875 35.046875 C 66.324219 37.648438 70.25 40.398438 72.675781 42.101562 C 72.929688 42.28125 73.203125 42.457031 73.480469 42.640625 C 73.558594 44.167969 74.554688 47.179688 80.640625 49.078125 C 79.644531 50.464844 77.832031 51.015625 75.34375 50.664062 Z M 75.34375 50.660156 " fill-opacity="1" fill-rule="nonzero"/></svg>