<svg xmlns="http://www.w3.org/2000/svg" xmlns:xlink="http://www.w3.org/1999/xlink" version="1.1" x="0px" y="0px" viewBox="0 0 164 205" enable-background="new 0 0 164 164" xml:space="preserve"><g><path fill-rule="evenodd" clip-rule="evenodd" d="M54.984,164c-0.587-15.957,0.912-21.725-10.508-30.019   c-5.751-4.177-9.503-5.682-18.516-10.063c-8.978-4.365-9.562-8.024-11.248-15.824c-1.585-7.334-2.953-12.65-5.439-19.729   c-2.316-6.591-1.884-10.518-2.02-16.336C7.027,62.378,6.201,50.179,3.26,42.033c-3.868-10.71,6.917-2.604,9.929,5.653   c1.309,3.59,2.768,8.766,4.059,16.085c1.447,4.371,2.84,8.4,3.757,12.708c2.649,12.439,9.967,18.05,17.244,25.246   c4.5,4.452,6.721,4.585,2.279-1.974c-4.664-6.887-8.545-14.012-11.469-21.845c-4.43-11.874,2.444-12.352,8.12-3.845   c3.721,5.577,9.001,14.089,12.184,17.094c5.939,5.607,11.253,14.014,18.144,18.215c4.887,2.979,6.303,5.692,8.611,11.252   c2.149,5.178,1.524,11.338,1.353,15.674c-0.32,8.065,0.396,16.847,0.482,27.703C71,164,61.938,164,54.984,164L54.984,164z    M108.695,164c0.588-15.957-0.911-21.725,10.509-30.019c5.751-4.177,9.503-5.682,18.517-10.063   c8.978-4.365,9.562-8.024,11.248-15.824c1.585-7.334,2.952-12.65,5.439-19.729c2.315-6.591,1.883-10.518,2.02-16.336   c0.226-9.651,1.051-21.851,3.993-29.996c3.868-10.71-6.918-2.604-9.93,5.653c-1.309,3.59-2.768,8.766-4.059,16.085   c-1.446,4.371-2.84,8.4-3.757,12.708c-2.649,12.439-9.967,18.05-17.243,25.246c-4.501,4.452-6.722,4.585-2.279-1.974   c4.663-6.887,8.545-14.012,11.468-21.845c4.431-11.874-2.443-12.352-8.119-3.845c-3.721,5.577-9.001,14.089-12.184,17.094   c-5.939,5.607-11.254,14.014-18.145,18.215c-4.887,2.979-6.303,5.692-8.611,11.252c-2.149,5.178-1.524,11.338-1.353,15.674   c0.319,8.065-0.396,16.847-0.482,27.703C92.681,164,101.743,164,108.695,164z"/><path fill-rule="evenodd" clip-rule="evenodd" d="M114.066,68.931c0.122,19.789-64.741,35.174-64.451,0   C49.913,32.77,113.946,49.372,114.066,68.931L114.066,68.931z M90.469,11.035c0.062,9.936-32.506,17.661-32.36,0   C58.258-7.121,90.409,1.214,90.469,11.035L90.469,11.035z M68.796,33.382c-0.085,13.824,45.226,24.571,45.023,0   C113.611,8.122,68.88,19.719,68.796,33.382z"/></g><text x="0" y="179" fill="#000000" font-size="5px" font-weight="bold" font-family="'Helvetica Neue', Helvetica, Arial-Unicode, Arial, Sans-serif">Created by Aleksandr Vector</text><text x="0" y="184" fill="#000000" font-size="5px" font-weight="bold" font-family="'Helvetica Neue', Helvetica, Arial-Unicode, Arial, Sans-serif">from the Noun Project</text></svg>