<svg xmlns="http://www.w3.org/2000/svg" xmlns:xlink="http://www.w3.org/1999/xlink" style="isolation:isolate;" viewBox="0 0 95 118.75" x="0px" y="0px"><defs><clipPath id="a"><rect width="95" height="95"/></clipPath></defs><g clip-path="url(#a)"><path d=" M 30.529 9.788 C 29.249 12.694 27.4 17.453 27.175 18.426 C 27.127 18.63 26.885 18.882 26.262 19.377 C 25.796 19.748 25.194 20.244 24.925 20.48 L 24.435 20.909 L 24.508 20.501 C 24.729 19.261 24.53 17.277 23.969 15.139 C 23.466 13.219 23.424 13.102 23.245 13.102 C 23.093 13.102 23.076 13.268 23.024 15.162 C 22.953 17.765 22.835 18.637 22.087 22.111 C 21.903 22.967 21.762 23.717 21.775 23.778 C 21.788 23.838 21.57 24.212 21.291 24.608 C 20.261 26.074 19.503 27.365 18.507 29.35 C 17.945 30.471 17.446 31.401 17.399 31.418 C 17.352 31.435 17.313 31.534 17.313 31.638 C 17.313 31.743 17.068 32.437 16.768 33.182 C 15.873 35.399 15.474 36.803 15.737 36.803 C 15.87 36.803 16.03 36.455 16.761 34.573 C 17.527 32.603 17.522 32.61 17.678 33.082 C 17.795 33.438 17.793 33.445 17.104 34.636 C 16.724 35.293 16.179 36.278 15.894 36.825 L 15.376 37.82 L 15.349 36.964 C 15.325 36.183 15.307 36.109 15.14 36.109 C 14.868 36.109 14.77 36.826 14.904 37.824 L 15.009 38.614 L 14.694 39.352 C 12.474 44.541 12.172 49.439 13.834 53.306 C 14.086 53.894 13.893 53.689 13.615 53.075 C 12.254 50.062 12.182 47.036 13.288 39.257 C 13.907 34.909 13.968 34.327 14.042 32.117 L 14.101 30.347 L 14.847 29.849 C 16.568 28.699 18.162 26.335 17.495 25.922 C 17.165 25.719 15.036 27.975 14.387 29.215 L 14.123 29.721 L 14.055 27.823 C 14.017 26.779 13.943 25.488 13.89 24.954 L 13.794 23.983 L 14.142 23.304 C 14.456 22.691 14.542 22.598 15.033 22.335 C 15.743 21.956 16.295 21.091 16.295 20.358 C 16.295 19.774 15.124 20.698 14.49 21.783 C 14.231 22.225 13.951 22.453 13.667 22.453 C 13.594 22.453 13.469 22.144 13.348 21.664 C 13.089 20.642 12.913 20.231 12.735 20.231 C 12.56 20.231 12.557 20.397 12.72 21.087 C 12.789 21.38 12.832 21.62 12.816 21.62 C 12.8 21.62 12.591 21.516 12.351 21.388 C 11.549 20.962 11.117 21.218 11.484 21.904 C 11.587 22.097 12.499 22.176 12.499 21.992 C 12.499 21.937 12.59 21.943 12.731 22.007 C 12.858 22.065 12.962 22.137 12.962 22.167 C 12.963 22.197 13.043 22.784 13.14 23.472 C 13.237 24.159 13.342 24.976 13.374 25.288 L 13.432 25.855 L 13.081 25.791 C 12.888 25.755 12.501 25.552 12.221 25.34 C 11.653 24.909 11.388 24.848 11.388 25.147 C 11.388 25.602 11.974 26.156 12.454 26.156 C 12.542 26.156 12.817 26.306 13.065 26.488 L 13.518 26.82 L 13.518 29.376 L 13.518 31.933 L 13.217 31.65 C 12.485 30.961 11.758 30.665 11.758 31.056 C 11.758 31.513 12.551 33.47 13.025 34.185 L 13.367 34.699 L 12.883 38.135 C 12.279 42.414 12.149 43.527 12.071 45.091 L 12.008 46.332 L 11.768 46.162 C 11.635 46.069 11.319 45.887 11.064 45.758 C 10.81 45.629 10.476 45.39 10.324 45.227 L 10.046 44.93 L 10.402 45.169 C 10.938 45.529 11.736 45.624 11.83 45.34 C 11.858 45.254 11.804 45.237 11.64 45.278 C 11.307 45.361 10.697 45.018 10.131 44.43 C 9.59 43.866 9.444 43.817 9.444 44.196 C 9.444 45.138 10.41 46.177 11.617 46.534 L 12.036 46.658 L 12.036 47.52 C 12.036 49.384 12.422 51.511 13.002 52.845 L 13.315 53.564 L 12.786 53.076 C 12.161 52.5 11.503 51.966 9.444 50.364 C 8.565 49.68 7.373 48.633 6.635 47.897 C 5.374 46.638 5 46.412 5 46.906 C 5 47.15 7.983 51.72 8.873 52.84 C 10.596 55.008 12.759 56.645 14.606 57.18 C 14.978 57.287 14.992 57.303 14.85 57.46 C 14.754 57.566 14.714 57.73 14.74 57.908 C 14.79 58.248 14.722 58.255 13.471 58.05 C 11.252 57.685 9.902 58.041 9.305 59.151 C 9.052 59.62 9.123 59.654 10.731 59.83 C 12.843 60.061 14.136 59.804 14.999 58.982 C 15.266 58.728 15.388 58.677 15.693 58.69 C 16.214 58.713 16.197 58.912 15.64 59.301 C 13.975 60.464 12.647 63.117 12.527 65.525 C 12.461 66.832 12.523 66.909 13.221 66.397 C 14.81 65.231 16.228 62.8 16.601 60.604 L 16.712 59.956 L 17.637 61.267 C 19.624 64.079 19.687 64.175 19.399 63.948 C 19.03 63.658 17.725 62.398 17.242 61.866 C 16.81 61.39 16.48 61.291 16.48 61.638 C 16.481 62.37 17.902 65.838 18.778 67.247 C 19.042 67.671 19.258 68.028 19.258 68.041 C 19.258 68.053 18.807 67.834 18.256 67.554 C 16.849 66.839 16.675 67.004 17.266 68.492 C 18.239 70.938 22.164 74.014 24.321 74.02 C 24.484 74.021 24.642 74.063 24.674 74.114 C 24.711 74.174 24.232 74.21 23.313 74.218 C 20.067 74.244 19.78 74.435 21.896 75.159 C 25.667 76.449 27.605 76.451 28.681 75.165 L 29.003 74.78 L 29.357 75.026 C 29.8 75.332 29.81 75.413 29.395 75.346 C 28.938 75.271 28.948 75.553 29.409 75.746 C 29.734 75.882 29.819 75.881 30.228 75.736 C 30.33 75.7 30.101 75.846 29.719 76.06 C 28.773 76.59 27.957 76.898 25.793 77.54 C 23.383 78.255 23.299 78.349 24.687 78.772 C 27.329 79.577 29.792 79.738 31.932 79.246 C 32.257 79.171 32.54 79.125 32.559 79.144 C 32.623 79.209 29.862 80.57 29.322 80.74 C 26.925 81.494 33.647 82.531 36.432 81.837 C 36.541 81.809 36.394 81.996 36.071 82.294 C 35.352 82.958 35.393 83.094 36.313 83.094 C 37.667 83.094 41.042 82.757 41.516 82.575 C 41.703 82.503 41.558 83.111 41.217 83.835 C 40.989 84.318 40.459 86.39 40.459 86.799 C 40.459 87.27 41.197 86.667 42.218 85.363 C 42.537 84.955 42.915 84.488 43.058 84.324 L 43.318 84.026 L 43.717 84.202 C 45.256 84.881 47.227 84.409 47.606 83.271 C 47.638 83.176 47.725 83.208 47.946 83.394 C 48.81 84.121 49.935 83.907 50.826 82.846 L 51.126 82.488 L 52.667 84.021 C 55.158 86.499 55.239 86.53 55.151 84.967 C 55.098 84.031 54.773 82.528 54.524 82.062 C 54.375 81.785 54.437 81.782 55.072 82.038 C 57.274 82.928 60.134 82.594 63.364 81.07 C 64.46 80.553 66.858 79.225 66.952 79.083 C 67.115 78.837 66.908 78.743 66.21 78.743 C 65.821 78.743 64.826 78.632 63.999 78.495 L 62.495 78.247 L 63.999 77.493 C 65.952 76.514 67.512 75.561 69.365 74.216 C 70.452 73.427 70.336 73.134 69.063 73.456 C 68.312 73.646 67.335 73.787 66.204 73.87 L 65.609 73.914 L 66.343 73.521 C 66.746 73.305 67.253 73.017 67.468 72.881 C 67.799 72.671 67.964 72.632 68.532 72.631 C 69.803 72.627 71.491 72.288 72.679 71.799 C 73.712 71.373 75.352 70.223 75.368 69.914 C 75.371 69.856 75.645 69.6 75.977 69.346 C 77.663 68.054 79.637 65.633 80.184 64.188 C 80.53 63.275 80.347 63.168 79.56 63.824 C 78.973 64.313 77.782 65.133 77.659 65.133 C 77.544 65.133 78.51 63.254 79.296 61.95 C 80.169 60.502 80.196 60.133 79.395 60.606 L 79.05 60.809 L 79.6 59.708 C 79.902 59.102 80.225 58.398 80.317 58.143 C 80.715 57.053 80.884 57.153 81.581 58.883 C 82.491 61.143 82.686 62.315 82.343 63.471 L 82.194 63.971 L 82.068 63.73 C 81.817 63.251 80.825 58.406 80.825 57.66 C 80.825 57.646 80.762 57.634 80.686 57.634 C 80.469 57.634 80.799 60.631 81.211 62.402 C 81.735 64.652 82.117 65.103 82.625 64.069 C 83.287 62.722 83.062 61.089 81.767 57.854 L 81.577 57.379 L 82.057 57.563 C 83.995 58.306 86.926 57.308 89.319 55.091 C 90.446 54.047 90.326 53.996 87.798 54.44 C 84.696 54.985 83.499 55.28 82.641 55.711 C 82.348 55.858 82.266 55.869 82.202 55.768 C 82.073 55.564 82.099 55.529 82.653 55.168 C 83.458 54.645 84.875 53.172 85.535 52.172 C 86.274 51.052 87.444 48.724 87.368 48.525 C 87.253 48.223 86.977 48.39 86.52 49.038 C 85.76 50.114 82.273 53.802 82.567 53.218 C 82.913 52.531 83.441 51.095 83.649 50.274 L 83.861 49.441 L 84.353 49.369 C 85.754 49.166 86.856 48.102 87.072 46.745 C 87.194 45.978 85.987 46.351 84.542 47.527 C 84.128 47.864 84.058 47.895 84.114 47.72 C 84.205 47.432 84.185 44.562 84.087 43.924 C 83.995 43.323 84.211 42.636 84.493 42.636 C 85.255 42.636 86.163 41.388 86.514 39.859 C 86.86 38.35 85.408 39.435 84.397 41.442 C 84.018 42.194 83.69 42.437 83.696 41.96 C 83.697 41.899 83.544 41.334 83.357 40.704 L 83.016 39.559 L 83.174 38.898 C 83.261 38.535 83.415 37.957 83.517 37.613 L 83.703 36.988 L 84.318 36.988 C 85.59 36.988 86.074 36.495 86.246 35.022 C 86.348 34.152 85.725 34.243 84.642 35.255 C 84.358 35.521 84.149 35.676 84.176 35.6 C 84.204 35.523 84.583 34.482 85.019 33.285 C 85.454 32.089 85.84 30.992 85.875 30.847 C 85.911 30.703 85.997 30.564 86.065 30.537 C 86.134 30.511 86.277 30.351 86.381 30.181 C 86.521 29.956 86.699 29.83 87.04 29.717 C 87.989 29.402 88.977 28.005 88.249 28.009 C 87.843 28.011 86.873 28.75 86.573 29.285 C 86.372 29.646 86.381 29.256 86.597 28.271 C 86.982 26.521 87.039 24.027 86.694 24.027 C 86.616 24.027 86.565 24.124 86.565 24.274 C 86.565 24.64 86.486 24.495 86.379 23.933 C 86.251 23.254 86.375 23.183 86.796 23.696 C 87.361 24.386 87.549 24.072 87.015 23.329 C 86.47 22.57 85.833 22.624 85.957 23.418 C 86.075 24.174 86.309 24.86 86.448 24.86 C 86.552 24.86 86.573 24.933 86.532 25.161 C 86.503 25.327 86.452 25.722 86.418 26.041 C 86.383 26.359 86.343 26.619 86.327 26.619 C 86.312 26.619 86.096 26.493 85.848 26.338 C 84.598 25.561 84.32 26.017 85.414 27.05 L 86.116 27.713 L 85.875 28.621 C 85.655 29.445 85.541 29.669 85.338 29.673 C 85.232 29.675 85.255 30.025 85.363 30.061 C 85.422 30.081 85.392 30.285 85.285 30.601 L 85.112 31.109 L 84.91 30.651 C 84.397 29.492 83.812 29.181 83.91 30.121 C 83.976 30.753 84.45 31.93 84.655 31.972 C 84.772 31.996 84.723 32.209 84.375 33.175 C 84.143 33.821 83.799 34.804 83.61 35.36 L 83.267 36.37 L 83.104 35.766 C 82.91 35.051 82.547 34.239 82.306 33.98 C 82.003 33.654 80.825 30.788 80.823 30.373 C 80.82 29.431 80.493 28.618 80.212 28.85 C 80.089 28.951 80.045 28.955 80.015 28.863 C 79.941 28.646 78.059 24.909 77.758 24.385 L 77.459 23.863 L 77.817 23.324 C 79.295 21.098 78.992 17.931 77.122 16.065 C 76.517 15.46 75.628 14.893 75.455 15 C 75.177 15.172 75.594 19.941 76.001 21.245 C 76.241 22.014 76.235 22.014 75.639 21.223 C 75.363 20.855 74.542 19.959 73.815 19.23 C 72.643 18.056 72.492 17.871 72.492 17.597 C 72.492 16.556 71.668 14.287 71.024 13.556 C 70.29 12.722 68.308 12.09 67.454 12.418 C 67.143 12.538 67.579 13.421 68.575 14.686 C 68.82 14.997 69.078 15.332 69.149 15.43 C 69.22 15.528 68.825 15.332 68.27 14.994 C 67.198 14.342 65.412 13.42 64.706 13.155 L 64.28 12.995 L 64.453 12.655 C 64.705 12.163 64.458 11.251 64.075 11.251 C 63.858 11.251 63.793 11.42 63.724 12.159 C 63.673 12.699 63.653 12.742 63.475 12.694 C 63.368 12.665 63.228 12.641 63.165 12.641 C 63.101 12.64 63.049 12.558 63.049 12.46 C 63.049 12.166 62.665 11.805 62.291 11.746 C 61.916 11.686 61.745 12.042 61.884 12.596 C 61.938 12.809 62.019 12.864 62.569 13.058 C 62.665 13.092 62.661 13.143 62.545 13.307 C 62.387 13.533 62.351 13.987 62.485 14.069 C 62.614 14.149 63.882 13.629 63.882 13.496 C 63.882 13.342 63.853 13.335 64.634 13.698 C 65.293 14.005 65.305 14.016 64.978 14.022 C 64.792 14.025 64.147 14.093 63.544 14.172 C 62.941 14.251 62.368 14.324 62.272 14.334 C 62.141 14.348 62.06 14.245 61.948 13.924 C 61.698 13.205 61.453 13.061 60.661 13.167 C 60.116 13.24 60.176 13.814 60.779 14.288 C 61.347 14.735 60.721 14.757 59.189 14.344 C 58.486 14.154 57.755 13.98 57.563 13.957 L 57.216 13.916 L 57.216 14.565 L 57.216 15.214 L 57.656 15.267 C 57.898 15.296 58.412 15.346 58.799 15.378 L 59.501 15.436 L 59.331 15.77 C 59.051 16.318 59.095 16.564 59.461 16.492 C 59.923 16.402 60.216 16.138 60.304 15.732 C 60.433 15.135 60.479 15.093 60.995 15.093 C 61.253 15.093 61.517 15.041 61.581 14.977 C 61.955 14.604 62.201 15.031 61.869 15.478 C 61.436 16.059 61.471 16.898 61.927 16.898 C 62.341 16.898 62.713 16.279 62.643 15.707 C 62.559 15.032 62.535 14.944 62.407 14.865 C 62.203 14.739 64.573 14.401 65.671 14.399 C 66.278 14.398 67.204 14.854 68.997 16.035 C 70.071 16.742 70.063 16.727 69.275 16.552 C 67.849 16.235 64.623 16.417 64.623 16.814 C 64.623 17.243 66.652 18.408 67.994 18.749 C 69.31 19.083 71.049 18.968 71.859 18.494 C 72.283 18.245 74.063 19.974 75.787 22.31 L 76.057 22.676 L 75.551 22.278 C 74.2 21.214 72.367 20.614 69.859 20.413 C 68.216 20.282 68.145 20.331 68.795 21.153 C 69.637 22.219 71.162 23.064 72.871 23.413 C 73.453 23.532 73.928 24.12 73.442 24.12 C 73.302 24.12 73.31 24.336 73.467 24.709 C 73.527 24.853 73.507 24.872 73.348 24.821 C 72.735 24.626 72.052 25.069 72.246 25.534 C 72.573 26.316 73.588 26.614 73.878 26.014 L 74.014 25.732 L 75.013 27.153 C 75.561 27.936 76.01 28.645 76.009 28.731 C 76.005 29.145 75.864 29.126 75.089 28.607 C 74.23 28.032 74.034 28.003 73.991 28.444 C 73.933 29.04 74.551 29.49 75.617 29.629 C 75.884 29.663 76.103 29.729 76.103 29.776 C 76.103 29.822 76.207 29.86 76.334 29.86 C 76.462 29.86 76.566 29.818 76.566 29.767 C 76.566 29.443 76.936 29.879 77.933 31.377 C 79.073 33.091 79.2 33.336 78.903 33.252 C 77.694 32.907 75.425 32.844 75.381 33.154 C 75.311 33.641 77.197 34.174 78.672 34.085 L 79.62 34.028 L 79.838 34.374 C 80.344 35.175 81.425 37.23 81.9 38.291 L 82.41 39.433 L 82.268 40.271 C 82.101 41.25 81.843 43.841 81.843 44.537 C 81.843 44.803 81.817 45.148 81.786 45.305 L 81.729 45.589 L 81.105 44.784 C 79.603 42.847 78.789 42.517 79.334 44.066 C 79.7 45.109 80.444 45.845 81.367 46.079 L 81.771 46.181 L 81.715 47.117 C 81.683 47.631 81.612 49.302 81.555 50.83 C 81.499 52.357 81.421 53.94 81.383 54.347 L 81.313 55.088 L 81.3 54.386 C 81.274 52.941 80.546 51.068 79.44 49.599 C 78.102 47.824 74.939 45.316 74.891 45.992 C 74.657 49.284 77.016 53.721 79.732 55.098 C 80.76 55.618 80.883 55.168 79.876 54.575 C 77.79 53.345 76.125 50.71 75.591 47.794 C 75.371 46.592 75.376 46.59 76.334 47.334 C 79.126 49.501 80.629 51.937 80.876 54.695 C 80.919 55.172 80.966 55.32 81.075 55.32 C 81.191 55.32 81.196 55.346 81.103 55.457 C 80.908 55.693 81.065 55.906 81.385 55.842 C 81.617 55.795 81.678 55.821 81.743 55.993 C 81.854 56.285 81.825 56.286 81.3 56.02 C 81.042 55.89 80.73 55.783 80.606 55.783 C 80.482 55.783 79.783 55.425 79.052 54.987 C 77.493 54.054 75.494 53.062 74.239 52.599 C 71.68 51.654 68.588 51.27 69.052 51.954 C 69.162 52.117 72.614 54.496 73.48 55.006 C 74.424 55.563 75.375 55.991 76.038 56.158 C 76.547 56.286 76.693 56.43 76.317 56.432 C 75.486 56.436 73.288 57.558 73.344 57.949 C 73.41 58.409 76.906 58.188 78.662 57.612 C 79.595 57.306 79.729 57.492 79.051 58.154 C 78.42 58.769 77.696 59.755 76.707 61.345 C 75.928 62.598 74.558 64.107 74.75 63.5 C 75.1 62.395 75.188 59.949 74.876 59.948 C 74.091 59.945 71.206 63.76 70.726 65.436 L 70.561 66.013 L 70.555 65.318 C 70.547 64.299 71.367 61.467 72.279 59.366 C 72.505 58.846 72.288 58.628 71.827 58.912 C 69.876 60.118 67.681 64.147 67.679 66.528 L 67.678 67.229 L 67.192 67.391 C 66.925 67.48 66.647 67.577 66.575 67.606 C 66.485 67.642 66.462 67.613 66.502 67.511 C 66.592 67.276 66.828 65.538 66.898 64.601 L 66.961 63.745 L 66.727 63.745 C 66.146 63.745 64.777 65.706 64.157 67.427 C 64.042 67.746 63.933 67.993 63.915 67.975 C 63.878 67.938 64.135 65.298 64.206 64.982 C 64.354 64.324 63.998 64.541 62.364 66.108 C 59.753 68.613 58.92 69.716 58.469 71.268 C 58.328 71.751 58.277 71.815 57.813 72.08 C 57.536 72.238 57.072 72.584 56.782 72.848 C 56.492 73.111 56.284 73.249 56.32 73.155 C 57.025 71.282 57.467 67.043 57.032 66.337 C 56.883 66.098 56.292 66.519 55.085 67.725 C 52.726 70.081 51.07 73.086 50.943 75.236 L 50.896 76.034 L 50.584 76.13 C 50.29 76.221 50.268 76.211 50.204 75.98 C 50.056 75.442 50.125 70.872 50.296 69.948 C 50.525 68.706 51.113 66.891 51.205 67.14 C 51.298 67.392 51.549 69.409 51.618 70.457 C 51.691 71.579 51.727 71.725 51.919 71.688 C 52.318 71.611 51.658 66.138 51.242 66.079 C 50.588 65.985 49.688 69.73 49.678 72.599 L 49.671 74.371 L 49.336 74.069 C 48.356 73.183 46.672 73.438 46.182 74.547 C 46.007 74.944 45.994 74.952 45.661 74.892 C 45.25 74.817 45.363 74.943 44.923 74.067 C 44.718 73.66 43.841 72.14 42.974 70.688 C 42.107 69.237 41.29 67.87 41.159 67.65 C 40.676 66.839 40.481 67.259 40.437 69.212 L 40.413 70.287 L 39.02 68.958 C 38.254 68.227 37.358 67.312 37.029 66.923 C 35.948 65.646 35.965 65.641 35.981 67.225 C 35.994 68.571 36.209 69.582 36.791 71.031 C 36.97 71.476 37.107 71.849 37.096 71.86 C 37.05 71.906 35.447 70.524 34.763 69.848 C 34.056 69.149 33.711 68.965 33.562 69.206 C 33.513 69.286 33.853 70.875 34.029 71.383 C 34.107 71.61 33.719 71.069 33.321 70.398 C 33.16 70.125 32.519 68.921 31.896 67.722 C 30.527 65.084 30.331 64.763 30.089 64.763 C 29.816 64.763 29.842 64.989 30.42 67.616 C 30.976 70.147 31.538 72.187 31.888 72.944 C 32.009 73.206 32.136 73.628 32.17 73.882 C 32.255 74.508 32.721 75.888 33.021 76.399 L 33.265 76.815 L 32.626 76.489 C 32.275 76.31 31.675 75.975 31.293 75.744 L 30.599 75.325 L 30.585 74.418 C 30.565 73.196 30.125 71.511 28.704 67.217 C 28.098 65.384 27.557 63.711 27.502 63.499 C 27.402 63.11 27.244 62.967 27.049 63.087 C 26.882 63.191 26.662 64.933 26.6 66.641 L 26.544 68.195 L 26.086 67.335 C 24.843 65.002 21.634 60.909 21.183 61.083 C 20.862 61.206 20.733 63.494 20.982 64.624 C 21.155 65.407 19.163 62.48 18.137 60.444 C 17.307 58.797 17.319 58.838 17.66 58.837 C 17.8 58.837 18.04 58.76 18.193 58.667 L 18.471 58.497 L 18.873 58.803 C 19.594 59.351 21.051 59.727 22.174 59.655 L 22.637 59.625 L 22.63 59.013 C 22.615 57.635 21.568 56.773 19.611 56.526 C 18.658 56.405 17.531 56.489 17.456 56.686 C 17.389 56.859 17.564 57.079 17.768 57.079 C 17.872 57.079 17.929 57.167 17.942 57.347 C 17.963 57.61 17.957 57.614 17.615 57.538 C 17.424 57.497 17.156 57.449 17.02 57.432 L 16.773 57.403 L 17.23 56.801 C 19.176 54.237 20.239 49.759 20.304 43.84 C 20.322 42.283 20.315 42.219 20.14 42.219 C 19.989 42.219 19.922 42.355 19.751 43.006 C 19.469 44.078 19.053 45.222 18.403 46.709 C 16.121 51.93 15.821 52.883 15.809 54.949 C 15.806 55.535 15.784 55.96 15.762 55.893 C 15.739 55.827 15.502 55.424 15.234 54.997 C 12.761 51.059 12.596 46.204 14.744 40.645 C 15.24 39.361 15.279 39.285 15.343 39.465 C 15.479 39.845 15.666 39.557 15.614 39.048 C 15.56 38.531 15.562 38.525 15.68 38.84 L 15.802 39.164 L 16.851 39.19 C 18.054 39.221 18.097 39.199 17.971 38.645 C 17.92 38.422 17.853 38.04 17.822 37.799 C 17.747 37.219 17.657 37.227 16.536 37.917 L 15.629 38.476 L 16.291 37.2 C 17.504 34.863 18.077 33.935 18.305 33.934 C 19.446 33.93 20.262 32.637 19.564 31.939 C 19.457 31.831 20.644 29.821 21.173 29.215 C 21.194 29.191 21.498 29.145 21.849 29.113 C 22.635 29.041 22.961 28.851 22.961 28.466 C 22.961 28.073 22.787 28.05 22.143 28.357 C 21.834 28.504 21.607 28.579 21.639 28.525 C 21.67 28.47 22.043 27.878 22.467 27.211 C 24.003 24.793 23.005 25.74 21.023 28.58 C 20.746 28.977 20.512 29.291 20.501 29.28 C 20.491 29.268 20.582 28.862 20.702 28.378 C 21.066 26.919 20.962 26.571 20.335 27.152 L 20.06 27.406 L 20.279 27.036 C 20.925 25.945 21.796 24.687 22.737 23.483 C 22.817 23.38 22.877 23.377 23.047 23.468 C 24.942 24.482 28.568 22.584 30.68 19.473 C 31.278 18.59 31.328 18.379 30.935 18.379 C 30.432 18.379 28.202 19.102 26.826 19.71 C 26.635 19.794 26.479 19.845 26.479 19.823 C 26.479 19.773 28.12 18.565 28.188 18.565 C 28.215 18.565 28.436 18.423 28.678 18.251 C 29.514 17.654 30.958 16.898 31.261 16.898 C 31.533 16.898 32.275 17.076 35.135 17.825 C 37.396 18.417 39.533 17.986 39.533 16.939 C 39.533 16.435 36.692 15.514 34.767 15.394 C 34.406 15.371 34.414 15.365 35.125 15.116 L 35.851 14.861 L 36.229 15.139 C 36.604 15.414 37.404 15.545 37.404 15.33 C 37.404 15.163 37.233 14.796 37.087 14.651 C 36.934 14.498 37.065 14.44 38.236 14.145 C 38.644 14.042 39.286 14.409 39.741 15.006 C 40.327 15.775 41.848 16.044 41.848 15.379 C 41.848 14.843 39.667 13.673 39.515 14.128 C 39.474 14.251 38.977 14.047 38.977 13.907 C 38.977 13.798 41.026 13.89 41.94 14.04 C 42.271 14.094 42.792 14.154 43.098 14.173 C 43.403 14.192 43.93 14.299 44.269 14.41 L 44.884 14.611 L 45.241 14.427 C 45.626 14.228 45.707 14.022 45.557 13.629 C 45.441 13.322 45.218 13.31 44.691 13.579 C 44.244 13.807 43.972 13.83 42.838 13.733 C 41.82 13.645 41.751 13.602 42.166 13.307 L 42.5 13.07 L 42.467 12.435 C 42.421 11.53 42.424 11.53 41.029 12.187 C 39.787 12.772 39.43 13.093 40.158 12.973 L 40.505 12.916 L 40.197 13.054 C 40.028 13.13 39.684 13.253 39.433 13.327 L 38.977 13.463 L 38.977 13.209 C 38.977 13.003 38.921 12.939 38.677 12.867 C 38.473 12.807 38.331 12.681 38.237 12.48 C 38.094 12.171 37.917 12.089 37.835 12.292 C 37.798 12.385 37.787 12.385 37.781 12.292 C 37.763 12.003 37.167 12.199 36.984 12.553 C 36.676 13.149 36.901 13.38 37.786 13.38 C 38.239 13.38 38.358 13.582 38.065 13.851 C 37.833 14.063 36.182 14.369 36.252 14.186 C 36.328 13.989 35.884 13.256 35.555 13.033 C 34.966 12.634 34.831 12.776 34.784 13.843 L 34.765 14.26 L 35.112 14.288 C 36.124 14.372 33.888 15.409 32.668 15.422 C 31.843 15.431 31.12 15.803 31.656 15.944 C 31.899 16.007 31.05 16.435 30.682 16.435 C 30.56 16.435 30.459 16.487 30.458 16.551 C 30.457 16.645 29.28 17.361 29.125 17.361 C 29.101 17.361 29.292 17.02 29.55 16.604 C 31.043 14.197 31.662 12.424 31.792 10.186 C 31.95 7.455 31.605 7.346 30.529 9.788 Z  M 31.266 10.441 C 31.151 12.406 30.521 14.044 28.86 16.688 C 27.71 18.519 27.575 18.606 28.07 17.197 C 28.778 15.179 31.142 9.492 31.272 9.492 C 31.299 9.492 31.296 9.919 31.266 10.441 Z  M 42.116 12.708 C 42.128 12.853 41.447 13.287 41.207 13.287 C 40.996 13.287 40.875 13.142 41.014 13.056 C 41.159 12.967 41.03 12.825 40.801 12.822 C 40.687 12.82 40.904 12.685 41.292 12.514 C 42.033 12.189 42.075 12.199 42.116 12.708 Z  M 62.572 12.457 C 62.6 12.649 62.585 12.661 62.456 12.554 C 62.281 12.409 62.257 12.144 62.424 12.199 C 62.488 12.22 62.554 12.336 62.572 12.457 Z  M 37.775 12.705 C 37.885 12.676 37.959 12.721 37.989 12.835 C 38.028 12.987 37.98 13.01 37.624 13.01 L 37.214 13.01 L 37.374 12.709 C 37.502 12.466 37.54 12.441 37.57 12.579 C 37.593 12.691 37.663 12.734 37.775 12.705 Z  M 63.234 13.112 C 63.234 13.158 63.172 13.195 63.095 13.195 C 63.019 13.195 62.956 13.134 62.956 13.059 C 62.956 12.976 63.011 12.944 63.095 12.976 C 63.172 13.006 63.234 13.067 63.234 13.112 Z  M 69.751 13.232 C 70.84 13.765 71.402 14.704 71.88 16.783 L 72.013 17.362 L 71.748 17.174 C 70.737 16.453 68.948 14.463 68.239 13.269 L 68.013 12.889 L 68.633 12.939 C 69.032 12.971 69.43 13.075 69.751 13.232 Z  M 63.321 13.53 C 62.77 13.785 62.607 13.81 62.771 13.612 C 62.834 13.535 62.984 13.473 63.103 13.473 C 63.222 13.473 63.373 13.415 63.438 13.345 C 63.504 13.275 63.611 13.239 63.677 13.264 C 63.742 13.289 63.582 13.409 63.321 13.53 Z  M 35.645 13.765 C 35.645 13.808 35.546 13.843 35.426 13.843 C 35.242 13.843 35.215 13.806 35.252 13.608 C 35.297 13.375 35.645 13.514 35.645 13.765 Z  M 61.424 13.771 C 61.503 13.884 61.568 14.029 61.568 14.093 C 61.568 14.27 61.14 14.049 60.965 13.782 C 60.765 13.477 61.21 13.466 61.424 13.771 Z  M 45.273 13.845 C 45.273 13.971 44.828 14.169 44.74 14.082 C 44.661 14.002 44.973 13.75 45.152 13.75 C 45.219 13.75 45.273 13.793 45.273 13.845 Z  M 59.284 14.939 C 58.576 15.025 57.679 14.855 57.679 14.635 L 57.679 14.423 L 58.613 14.665 C 59.273 14.837 59.47 14.917 59.284 14.939 Z  M 40.567 14.852 C 41.315 15.18 41.412 15.318 40.897 15.321 C 40.52 15.324 40.406 15.278 40.11 15.003 C 39.695 14.617 39.887 14.554 40.567 14.852 Z  M 36.779 14.898 C 36.868 14.965 36.941 15.047 36.941 15.08 C 36.941 15.196 36.706 15.132 36.478 14.954 C 36.266 14.788 36.262 14.773 36.432 14.774 C 36.533 14.774 36.69 14.83 36.779 14.898 Z  M 23.98 17.347 C 24.407 19.775 24.135 21.173 23.088 21.942 C 22.728 22.206 22.497 22.442 22.508 22.533 C 22.527 22.688 22.464 22.897 22.289 23.263 C 22.114 23.627 22.129 23.437 22.323 22.819 C 22.792 21.325 23.247 18.744 23.42 16.584 C 23.473 15.927 23.521 15.365 23.527 15.334 C 23.549 15.214 23.804 16.349 23.98 17.347 Z  M 59.856 15.844 C 59.639 16.176 59.568 16.048 59.775 15.697 C 59.869 15.539 59.96 15.454 59.978 15.509 C 59.996 15.563 59.941 15.714 59.856 15.844 Z  M 62.4 15.89 C 62.401 16.135 62.09 16.62 61.931 16.62 C 61.776 16.62 61.842 16.143 62.048 15.776 C 62.264 15.392 62.397 15.435 62.4 15.89 Z  M 76.395 16.043 C 78.354 17.615 78.831 20.544 77.499 22.812 C 77.365 23.04 77.215 23.239 77.165 23.254 C 76.99 23.31 76.497 22.421 76.539 22.127 C 76.562 21.975 76.473 21.277 76.343 20.575 C 76.077 19.137 75.773 15.693 75.912 15.696 C 75.94 15.696 76.158 15.852 76.395 16.043 Z  M 36.849 16.183 C 38.128 16.518 39.038 16.945 38.88 17.136 C 38.2 17.955 36.813 17.911 33.515 16.965 C 32.879 16.783 32.233 16.604 32.08 16.568 C 31.809 16.505 31.819 16.496 32.45 16.192 L 33.099 15.88 L 34.534 15.916 C 35.681 15.945 36.145 15.999 36.849 16.183 Z  M 70.037 17.128 C 70.622 17.257 70.878 17.37 71.267 17.673 L 71.758 18.056 L 71.222 18.23 C 69.611 18.757 67.56 18.415 65.926 17.349 L 65.449 17.037 L 65.707 16.974 C 66.219 16.848 69.261 16.956 70.037 17.128 Z  M 30.18 19.391 C 28.378 21.959 25.161 23.731 23.536 23.049 L 23.192 22.905 L 24.118 22.005 C 25.336 20.822 27.146 19.894 29.905 19.039 C 30.235 18.937 30.519 18.85 30.535 18.848 C 30.551 18.845 30.391 19.089 30.18 19.391 Z  M 71.11 21.027 C 72.699 21.297 74.511 21.988 75.611 22.743 C 75.823 22.889 76.06 23.009 76.137 23.009 C 76.214 23.009 76.303 23.05 76.334 23.101 C 76.371 23.161 75.996 23.194 75.275 23.194 C 74.245 23.194 74.159 23.18 74.159 23.02 C 74.159 22.62 73.645 22.519 73.464 22.882 C 73.213 23.386 70.504 22.237 69.535 21.215 L 69.216 20.879 L 69.727 20.879 C 70.008 20.879 70.63 20.946 71.11 21.027 Z  M 15.832 21 C 15.832 21.092 15.356 21.649 15.129 21.822 L 14.86 22.027 L 15.042 21.8 C 15.445 21.298 15.832 20.907 15.832 21 Z  M 13.839 23.109 C 13.778 23.3 13.766 23.304 13.681 23.152 C 13.614 23.033 13.623 22.965 13.712 22.91 C 13.881 22.806 13.917 22.863 13.839 23.109 Z  M 77.359 24.769 C 77.696 25.354 78.382 26.67 78.882 27.694 L 79.793 29.557 L 79.64 29.963 C 79.527 30.263 79.486 30.684 79.485 31.572 L 79.482 32.776 L 78.075 30.669 L 76.668 28.563 L 76.811 28.22 C 77.082 27.573 76.853 26.159 76.466 26.084 C 76.282 26.049 76.106 26.429 76.037 27.012 C 75.965 27.616 75.92 27.579 75.039 26.199 C 74.21 24.901 74.055 24.516 74.133 23.934 L 74.184 23.557 L 74.565 23.608 C 74.774 23.636 75.3 23.625 75.733 23.583 C 76.681 23.492 76.582 23.42 77.359 24.769 Z  M 73.541 25.392 C 73.616 25.521 73.426 25.879 73.282 25.879 C 73.124 25.879 72.77 25.559 72.77 25.416 C 72.77 25.309 73.479 25.288 73.541 25.392 Z  M 16.768 27.244 C 16.532 27.701 16.04 28.265 15.442 28.763 L 14.958 29.165 L 15.271 28.727 C 15.58 28.293 16.828 26.897 16.906 26.897 C 16.929 26.897 16.866 27.053 16.768 27.244 Z  M 76.446 27.66 C 76.424 27.775 76.405 27.702 76.404 27.499 C 76.403 27.295 76.421 27.201 76.444 27.289 C 76.467 27.378 76.468 27.544 76.446 27.66 Z  M 19.891 27.939 C 19.76 28.311 19.724 28.655 19.736 29.414 L 19.753 30.403 L 19.174 31.282 C 18.482 32.331 18.271 32.474 18.069 32.031 C 17.884 31.626 18.201 30.822 19.493 28.413 C 20.08 27.319 20.131 27.259 19.891 27.939 Z  M 20.224 28.61 C 20.102 29.14 20.098 29.145 20.147 28.714 C 20.198 28.267 20.274 27.975 20.326 28.027 C 20.34 28.042 20.295 28.304 20.224 28.61 Z  M 87.714 28.85 C 87.618 28.956 87.455 29.087 87.353 29.14 C 87.22 29.208 87.244 29.153 87.438 28.946 C 87.737 28.628 87.997 28.537 87.714 28.85 Z  M 80.221 30.503 C 80.436 30.92 80.296 31.783 79.942 32.222 C 79.786 32.415 79.793 31.303 79.953 30.531 C 80.029 30.162 80.044 30.161 80.221 30.503 Z  M 12.91 31.943 C 13.127 32.121 13.353 32.267 13.411 32.267 C 13.527 32.267 13.536 32.606 13.44 33.328 L 13.379 33.788 L 13.135 33.236 C 13.001 32.932 12.783 32.444 12.65 32.151 C 12.368 31.528 12.386 31.513 12.91 31.943 Z  M 81.352 32.941 C 81.766 33.825 81.942 34.319 81.986 34.72 C 82.067 35.458 82.428 36.866 82.658 37.343 C 82.822 37.682 82.83 37.776 82.732 38.16 L 82.621 38.595 L 81.97 37.259 C 81.612 36.525 81 35.368 80.609 34.689 C 79.787 33.259 79.805 33.35 80.215 32.741 C 80.389 32.483 80.559 32.146 80.593 31.991 C 80.686 31.564 80.735 31.625 81.352 32.941 Z  M 19.266 33.084 C 19.214 33.181 19.005 33.303 18.801 33.355 L 18.431 33.449 L 18.636 33.083 C 18.749 32.882 18.945 32.606 19.073 32.469 L 19.304 32.221 L 19.333 32.564 C 19.348 32.752 19.318 32.987 19.266 33.084 Z  M 78.138 33.58 C 78.803 33.673 78.881 33.701 78.647 33.763 C 78.366 33.838 77.398 33.723 77.011 33.568 C 76.688 33.438 77.159 33.443 78.138 33.58 Z  M 85.782 35.472 C 85.661 36.117 84.981 36.616 84.221 36.618 L 83.961 36.618 L 84.36 36.141 C 84.58 35.879 84.989 35.482 85.269 35.261 C 85.821 34.824 85.897 34.855 85.782 35.472 Z  M 11.805 36.896 C 11.703 36.94 11.42 36.978 11.177 36.982 C 10.603 36.99 10.578 37.076 10.87 38.024 C 11.298 39.409 12.091 40.489 12.431 40.149 C 12.504 40.076 12.505 40.044 12.436 40.044 C 12.268 40.044 11.296 37.905 11.296 37.536 C 11.296 37.496 11.379 37.44 11.481 37.411 C 11.583 37.382 11.744 37.337 11.839 37.31 C 11.981 37.27 12.061 37.372 12.27 37.865 C 12.523 38.46 12.777 38.663 12.777 38.269 C 12.777 37.993 12.218 36.802 12.092 36.81 C 12.036 36.813 11.907 36.852 11.805 36.896 Z  M 17.537 38.295 C 17.615 38.878 17.693 38.831 16.758 38.761 L 15.971 38.701 L 16.665 38.263 C 17.516 37.725 17.462 37.723 17.537 38.295 Z  M 85.605 40.915 C 85.309 41.516 84.764 42.163 84.651 42.05 C 84.596 41.995 84.956 41.389 85.441 40.716 C 85.976 39.975 86.035 40.047 85.605 40.915 Z  M 83.075 41.469 C 83.158 41.769 83.203 42.052 83.174 42.098 C 83.146 42.144 83.167 42.234 83.22 42.298 C 83.311 42.407 83.604 43.87 83.601 44.199 C 83.6 44.321 83.584 44.325 83.518 44.221 C 83.409 44.048 83.044 44.146 82.692 44.442 L 82.416 44.675 L 82.459 44.095 C 82.482 43.776 82.562 42.958 82.636 42.276 C 82.709 41.594 82.769 40.971 82.769 40.892 C 82.769 40.624 82.923 40.914 83.075 41.469 Z  M 80.642 44.917 C 81.117 45.404 81.178 45.495 80.935 45.356 C 80.599 45.165 80.379 44.947 80.132 44.557 C 79.889 44.175 79.984 44.242 80.642 44.917 Z  M 83.667 46.478 C 83.598 48.563 83.576 48.628 83.166 47.946 C 82.99 47.654 82.724 47.267 82.576 47.087 C 82.24 46.68 82.209 46.275 82.514 46.286 C 82.661 46.291 82.731 46.233 82.751 46.092 C 82.769 45.967 82.881 45.855 83.045 45.798 C 83.356 45.69 83.461 45.517 83.562 44.95 C 83.685 44.257 83.722 44.791 83.667 46.478 Z  M 19.727 46.43 C 19.446 50.149 18.811 52.912 17.769 54.949 C 17.442 55.588 17.09 56.099 17.169 55.819 C 17.2 55.712 17.475 54.754 17.782 53.69 C 18.263 52.016 18.61 50.505 18.61 50.077 C 18.61 50.007 18.55 49.95 18.477 49.95 C 18.342 49.95 18.234 50.26 17.874 51.683 C 17.768 52.101 17.518 52.976 17.319 53.627 C 16.849 55.165 16.671 55.865 16.627 56.356 C 16.607 56.575 16.586 56.796 16.581 56.847 C 16.575 56.898 16.517 56.836 16.453 56.708 C 16.307 56.42 16.073 56.408 16.034 56.685 C 15.999 56.932 15.9 56.94 15.151 56.748 C 12.434 56.051 9.925 53.774 7.361 49.676 L 7.103 49.264 L 7.834 49.868 C 8.236 50.2 9.21 50.965 9.999 51.567 C 12.313 53.334 13.848 54.734 14.928 56.06 C 15.197 56.391 15.291 56.453 15.382 56.363 C 15.473 56.272 15.53 56.279 15.661 56.397 C 15.853 56.571 16.154 56.495 16.076 56.291 C 16.047 56.215 16.063 56.153 16.113 56.153 C 16.162 56.153 16.203 55.872 16.203 55.528 C 16.204 53.635 16.737 51.847 18.546 47.676 C 19.03 46.559 19.503 45.423 19.597 45.152 C 19.83 44.477 19.855 44.726 19.727 46.43 Z  M 83.04 45.16 C 82.932 45.396 82.515 45.653 82.41 45.548 C 82.379 45.517 82.512 45.345 82.707 45.167 C 83.099 44.808 83.201 44.806 83.04 45.16 Z  M 86.458 47.172 C 86.304 47.615 85.599 48.331 85.109 48.541 C 84.568 48.773 83.972 48.893 83.972 48.771 C 83.972 48.575 85.286 47.54 86.049 47.134 C 86.602 46.84 86.575 46.838 86.458 47.172 Z  M 82.81 48.091 C 83.042 48.393 83.232 48.685 83.232 48.739 C 83.232 49.071 82.701 48.493 82.446 47.885 C 82.25 47.414 82.319 47.454 82.81 48.091 Z  M 82.487 49.302 C 82.589 49.302 82.806 49.42 82.967 49.564 L 83.26 49.826 L 83.047 50.698 C 82.756 51.886 81.881 54.463 81.797 54.379 C 81.774 54.356 81.815 53.694 81.886 52.907 C 81.958 52.121 82.047 50.896 82.083 50.186 C 82.126 49.351 82.176 48.967 82.225 49.099 C 82.268 49.216 82.379 49.302 82.487 49.302 Z  M 85.444 51.308 C 84.444 52.941 83.343 54.12 82.074 54.914 C 81.86 55.047 81.93 54.929 82.382 54.393 C 82.888 53.794 85.738 50.711 85.8 50.696 C 85.812 50.693 85.652 50.968 85.444 51.308 Z  M 71.335 52.359 C 73.27 52.715 79.806 55.436 79.806 55.886 C 79.806 56.264 76.589 55.868 75.292 55.33 C 73.87 54.741 69.774 52.046 70.548 52.209 C 70.675 52.235 71.029 52.303 71.335 52.359 Z  M 88.648 55.003 C 86.624 56.773 84.114 57.626 82.412 57.12 L 81.929 56.977 L 82.118 56.738 C 82.221 56.606 82.306 56.427 82.306 56.341 C 82.306 56.167 83.485 55.725 84.667 55.455 C 85.171 55.34 88.754 54.696 88.972 54.682 C 88.997 54.68 88.851 54.824 88.648 55.003 Z  M 80.865 56.496 C 80.789 56.572 80.749 56.709 80.778 56.799 C 80.835 56.978 80.615 57.075 80.147 57.077 C 79.657 57.08 79.831 56.52 80.362 56.387 C 80.877 56.258 81.063 56.298 80.865 56.496 Z  M 81.46 56.513 C 81.536 56.561 81.549 56.615 81.493 56.649 C 81.443 56.681 81.35 56.644 81.287 56.569 C 81.162 56.418 81.26 56.387 81.46 56.513 Z  M 79.436 56.609 C 79.436 57.057 77.392 57.611 75.455 57.688 L 74.298 57.734 L 74.839 57.447 C 75.701 56.989 76.602 56.801 77.933 56.801 C 78.919 56.801 79.078 56.781 79.032 56.662 C 78.994 56.562 79.042 56.523 79.207 56.523 C 79.333 56.523 79.436 56.562 79.436 56.609 Z  M 20.033 57.124 C 21.241 57.38 22.014 58.017 22.21 58.918 L 22.298 59.321 L 21.588 59.257 C 19.709 59.088 18.155 58.115 18.147 57.102 C 18.146 56.94 19.224 56.953 20.033 57.124 Z  M 15.397 57.678 C 15.225 57.913 15.091 57.978 15.091 57.825 C 15.091 57.75 15.445 57.449 15.533 57.449 C 15.549 57.449 15.488 57.552 15.397 57.678 Z  M 17.896 58.052 C 18.148 58.155 18.035 58.318 17.643 58.417 C 17.352 58.49 17.272 58.478 17.177 58.348 C 17.113 58.261 17.021 58.19 16.97 58.19 C 16.92 58.19 16.811 58.115 16.728 58.023 C 16.571 57.849 17.455 57.871 17.896 58.052 Z  M 79.837 58.259 C 79.445 59.2 78.353 61.154 78.142 61.291 C 77.658 61.606 76.932 61.973 76.99 61.873 C 77.621 60.774 79.766 57.912 79.959 57.912 C 79.972 57.912 79.917 58.068 79.837 58.259 Z  M 16.997 59.116 C 17.084 59.345 17.276 59.782 17.423 60.088 C 17.648 60.554 17.658 60.598 17.482 60.365 C 17.366 60.213 17.115 59.925 16.923 59.726 C 16.564 59.355 16.495 59.138 16.676 58.957 C 16.793 58.84 16.698 58.621 16.566 58.703 C 16.467 58.764 16.292 58.371 16.364 58.249 C 16.437 58.126 16.821 58.652 16.997 59.116 Z  M 14.44 58.451 L 14.761 58.52 L 14.435 58.769 C 13.656 59.363 12.626 59.546 10.992 59.383 C 9.804 59.264 9.767 59.232 10.336 58.82 C 11.034 58.314 12.988 58.138 14.44 58.451 Z  M 16.17 60.095 C 16.018 61.891 15.108 63.854 13.757 65.298 C 12.883 66.232 12.828 66.235 12.903 65.333 C 13.061 63.443 13.926 61.621 15.403 60.065 C 16.208 59.218 16.244 59.219 16.17 60.095 Z  M 71.37 60.527 C 70.16 63.449 69.777 65.48 70.221 66.621 C 70.268 66.741 70.137 66.784 69.45 66.876 C 68.995 66.936 68.487 67.013 68.321 67.046 L 68.02 67.107 L 68.083 66.492 C 68.28 64.567 69.479 62.092 70.992 60.489 C 71.32 60.141 71.602 59.856 71.619 59.856 C 71.635 59.856 71.523 60.158 71.37 60.527 Z  M 74.625 61.536 C 74.57 61.962 74.332 63.086 74.096 64.035 C 73.545 66.253 73.636 66.723 74.336 65.277 C 75.042 63.82 75.986 62.997 78.643 61.527 L 79.194 61.223 L 79.028 61.476 C 78.669 62.024 77.777 63.688 77.347 64.612 L 76.894 65.587 L 76.383 65.783 C 76.102 65.89 75.455 66.046 74.946 66.129 C 74.436 66.212 73.978 66.333 73.927 66.398 C 73.838 66.512 70.971 66.791 70.875 66.695 C 70.662 66.481 71.753 64.025 72.5 63.035 C 73.069 62.283 74.608 60.645 74.679 60.716 C 74.705 60.741 74.681 61.111 74.625 61.536 Z  M 23.111 63.745 C 25.169 66.27 26.449 68.662 26.826 70.688 C 26.926 71.223 27.116 71.929 27.249 72.257 L 27.49 72.854 L 26.513 71.887 C 25.472 70.856 24.085 69.269 22.937 67.795 C 21.712 66.222 21.101 64.067 21.355 62.214 L 21.416 61.769 L 21.868 62.271 C 22.116 62.547 22.675 63.21 23.111 63.745 Z  M 19.088 64.28 C 19.791 64.849 19.954 64.936 20.014 64.771 C 20.053 64.664 21.821 67.124 22.417 68.116 C 23.244 69.492 24.724 71.297 24.953 71.209 C 25.016 71.186 25.229 71.333 25.426 71.537 L 25.785 71.909 L 25.414 71.757 C 24.304 71.3 20.868 69.186 20.41 68.677 C 19.376 67.529 17.313 63.582 17.313 62.751 C 17.313 62.722 17.553 62.924 17.846 63.201 C 18.138 63.477 18.698 63.963 19.088 64.28 Z  M 66.382 65.517 C 66.23 66.933 65.961 68.156 65.546 69.319 C 65.332 69.918 65.211 70.388 65.259 70.435 C 65.378 70.554 65.958 69.581 66.143 68.952 C 66.371 68.178 66.362 68.188 67.313 67.808 C 68.352 67.394 69.405 67.223 71.798 67.08 C 72.714 67.025 73.579 66.957 73.719 66.929 C 73.859 66.901 73.973 66.897 73.973 66.922 C 73.973 67.12 70.665 69.046 68.975 69.832 C 68.492 70.056 68.069 70.284 68.036 70.338 C 68.003 70.391 67.336 70.553 66.554 70.697 C 65.317 70.924 63.954 71.262 63.381 71.484 C 63.228 71.543 63.213 71.522 63.269 71.329 C 63.304 71.206 63.417 70.73 63.519 70.272 C 63.865 68.725 65.072 66.109 65.926 65.058 C 66.509 64.339 66.51 64.339 66.382 65.517 Z  M 79.353 64.832 C 78.74 66.023 77.224 67.691 75.499 69.072 L 74.572 69.816 L 73.185 70.062 C 72.422 70.197 71.59 70.335 71.335 70.367 L 70.872 70.426 L 71.173 70.18 C 71.461 69.945 71.564 69.644 71.393 69.539 C 71.349 69.511 70.973 69.613 70.557 69.765 C 70.142 69.916 69.772 70.039 69.735 70.038 C 69.699 70.037 70.259 69.73 70.98 69.355 C 72.866 68.375 74.981 66.941 74.989 66.638 C 74.991 66.573 75.108 66.522 75.253 66.522 C 75.938 66.522 77.677 65.759 78.834 64.952 C 79.191 64.703 79.493 64.496 79.507 64.492 C 79.521 64.489 79.452 64.642 79.353 64.832 Z  M 28.326 67.633 C 29.549 71.254 30.09 73.339 30.09 74.435 L 30.09 74.958 L 29.673 74.659 C 29.44 74.492 29.256 74.285 29.256 74.191 C 29.256 74.087 29.189 74.021 29.083 74.021 C 28.605 74.021 27.74 72.645 27.657 71.753 C 27.628 71.447 27.489 70.823 27.347 70.364 C 27.066 69.455 26.975 66.996 27.16 65.274 L 27.239 64.535 L 27.416 64.996 C 27.513 65.25 27.922 66.436 28.326 67.633 Z  M 63.517 67.49 C 63.224 70.083 62.726 71.812 61.946 72.944 C 61.611 73.431 61.572 73.744 61.845 73.744 C 62.058 73.744 62.496 73.181 62.799 72.516 L 63.003 72.07 L 63.882 71.794 C 64.366 71.642 65.408 71.392 66.197 71.238 C 66.986 71.084 68.048 70.877 68.557 70.778 C 69.067 70.678 69.588 70.57 69.715 70.537 C 70.151 70.425 68.02 71.964 66.649 72.751 C 65.004 73.696 64.441 73.897 63.233 73.97 C 62.003 74.044 60.702 74.233 60.044 74.431 C 59.463 74.607 59.463 74.608 59.917 74.062 C 60.654 73.177 60.965 72.355 60.966 71.292 C 60.966 70.197 60.877 70.115 60.249 70.624 C 59.756 71.023 58.79 71.57 58.79 71.449 C 58.79 71.244 59.119 70.595 59.596 69.855 C 60.145 69.006 63.622 65.438 63.681 65.665 C 63.697 65.729 63.624 66.551 63.517 67.49 Z  M 31.841 68.726 C 32.862 70.673 33.54 71.813 34.039 72.424 C 34.216 72.641 34.342 72.818 34.318 72.818 C 34.294 72.818 33.829 72.609 33.284 72.355 C 32.738 72.1 32.214 71.892 32.117 71.892 C 32.02 71.892 31.941 71.872 31.941 71.848 C 31.941 71.824 31.797 71.23 31.622 70.529 C 31.288 69.197 30.83 67.135 30.83 66.962 C 30.83 66.804 30.85 66.839 31.841 68.726 Z  M 40.554 71.788 C 40.698 72.882 41.044 74.183 41.425 75.064 L 41.751 75.818 L 41.082 75.168 C 40.356 74.462 39.688 73.892 38.609 73.058 C 38.011 72.595 37.883 72.443 37.667 71.936 C 37.104 70.615 36.596 68.772 36.439 67.48 L 36.381 67.003 L 38.416 69.008 L 40.452 71.012 L 40.554 71.788 Z  M 56.722 68.304 C 56.635 70.231 56.269 71.857 55.313 74.55 C 54.929 75.634 54.798 76.336 54.98 76.336 C 55.144 76.336 55.355 75.989 55.564 75.376 C 55.686 75.021 55.849 74.715 55.935 74.682 C 56.02 74.65 56.262 74.363 56.474 74.046 C 57.051 73.181 58.263 72.282 60.401 71.132 C 60.567 71.042 60.574 71.066 60.52 71.523 C 60.39 72.618 59.614 73.736 58.046 75.086 C 56.148 76.719 55.779 77.158 56.233 77.246 C 56.41 77.28 56.784 77.019 57.679 76.236 C 59.167 74.934 60.676 74.534 64.665 74.386 C 66.037 74.335 67.433 74.254 67.766 74.205 C 68.1 74.157 68.41 74.117 68.457 74.116 C 69.008 74.104 64.042 76.958 62.098 77.77 L 61.472 78.031 L 60.339 77.87 C 56.696 77.352 54.878 77.726 54.145 79.147 C 53.944 79.538 54.063 79.91 54.271 79.54 C 54.886 78.45 56.316 77.903 58.188 78.042 C 59.768 78.159 60.831 78.357 61.001 78.567 C 61.137 78.735 61.186 78.744 61.407 78.644 C 61.638 78.538 63.637 78.81 65.456 79.194 C 65.77 79.26 65.722 79.291 63.929 80.19 C 58.806 82.754 55.863 82.703 52.89 79.996 C 52.313 79.471 52.312 79.47 52.436 79.175 C 52.936 77.977 52.492 76.416 51.571 76.141 C 50.28 75.754 52.685 70.856 55.602 67.934 C 56.833 66.7 56.795 66.688 56.722 68.304 Z  M 19.476 68.852 C 19.993 69.158 20.52 69.535 20.649 69.689 C 20.777 69.843 20.986 69.98 21.112 69.995 C 21.238 70.01 21.778 70.299 22.313 70.638 C 23.511 71.397 25.341 72.309 25.996 72.474 C 26.265 72.541 26.574 72.687 26.684 72.797 L 26.885 72.997 L 26.367 73.234 C 23.889 74.368 19.086 71.604 17.781 68.293 L 17.593 67.816 L 18.065 68.056 C 18.325 68.187 18.96 68.546 19.476 68.852 Z  M 42.61 71.151 C 43.904 73.308 44.718 74.747 44.718 74.882 C 44.718 74.9 44.517 75.005 44.271 75.116 C 43.674 75.386 43.113 75.879 42.889 76.332 L 42.706 76.703 L 42.31 75.804 C 41.51 73.987 40.809 71.465 41.218 71.873 C 41.629 72.285 41.671 71.779 41.27 71.234 C 40.933 70.776 40.721 68.177 41.054 68.573 C 41.069 68.591 41.769 69.751 42.61 71.151 Z  M 37.002 72.525 C 37.537 72.944 37.939 73.342 38.093 73.605 C 38.343 74.031 38.574 74.167 38.488 73.837 C 38.386 73.448 40.743 75.471 41.812 76.69 C 42.214 77.148 42.585 77.526 42.638 77.531 C 42.69 77.536 42.805 77.661 42.893 77.81 L 43.053 78.08 L 42.73 78.186 C 42.553 78.245 42.249 78.473 42.055 78.693 L 41.702 79.094 L 41.058 78.887 C 38.771 78.155 36.891 76.367 35.629 73.722 C 35.586 73.633 35.552 73.521 35.552 73.471 C 35.552 73.422 35.454 73.237 35.334 73.06 C 35.155 72.797 34.731 71.647 34.393 70.512 C 34.343 70.343 34.547 70.479 35.24 71.075 C 35.743 71.507 36.535 72.16 37.002 72.525 Z  M 74.066 70.504 C 73.227 71.162 71.527 71.794 69.971 72.025 C 68.463 72.249 68.463 72.249 69.343 71.591 L 70.116 71.012 L 72.021 70.679 C 74.386 70.264 74.369 70.266 74.066 70.504 Z  M 33.75 73.097 L 34.89 73.654 L 35.275 74.37 C 36.653 76.928 38.679 78.623 41.027 79.182 C 41.684 79.339 41.708 79.354 41.679 79.6 C 41.633 80.006 41.914 80.824 42.254 81.269 C 42.547 81.652 42.58 82.103 42.302 81.932 C 42.253 81.902 41.849 81.962 41.405 82.065 C 40.471 82.284 38.799 82.503 37.404 82.589 L 36.432 82.649 L 37.033 82.035 C 37.364 81.697 37.846 81.301 38.104 81.156 C 38.556 80.899 39.163 80.311 39.163 80.128 C 39.163 79.941 38.852 80.056 38.046 80.542 C 36.037 81.753 33.199 81.995 30.156 81.215 L 29.712 81.102 L 30.341 80.834 C 31.266 80.44 32.704 79.622 33.4 79.095 C 33.736 78.841 34.112 78.595 34.238 78.547 C 34.363 78.499 34.588 78.373 34.737 78.267 L 35.009 78.073 L 35.859 78.307 C 37.197 78.675 37.238 78.681 37.203 78.504 C 37.182 78.4 36.732 78.192 35.783 77.847 C 34.152 77.254 33.951 77.085 33.276 75.734 C 32.772 74.725 32.278 72.54 32.554 72.54 C 32.585 72.54 33.124 72.791 33.75 73.097 Z  M 27.768 73.781 L 27.993 74.021 L 27.62 74.021 C 27.416 74.021 26.856 74.041 26.378 74.066 C 25.68 74.102 25.579 74.092 25.869 74.018 C 26.322 73.902 26.822 73.598 26.948 73.362 C 27.058 73.156 27.302 73.281 27.768 73.781 Z  M 48.723 74.265 C 49.054 74.436 49.346 74.909 49.346 75.275 C 49.347 75.528 49.23 75.751 48.539 76.821 C 48.449 76.961 48.333 77.06 48.282 77.041 C 48.172 77 48.169 77.011 48.465 76.216 C 48.697 75.592 48.777 74.855 48.613 74.855 C 48.566 74.855 48.48 75.011 48.422 75.202 C 47.916 76.867 47.515 77.418 47.615 76.313 C 47.677 75.621 47.586 74.931 47.426 74.877 C 47.338 74.848 47.31 75.085 47.31 75.865 C 47.31 76.93 47.323 76.894 46.924 76.928 C 46.648 76.952 46.47 75.222 46.702 74.774 C 47.052 74.097 47.957 73.869 48.723 74.265 Z  M 28.414 74.305 L 28.636 74.49 L 28.417 74.722 C 27.559 75.636 25.773 75.809 23.579 75.19 C 21.883 74.712 21.888 74.705 23.947 74.64 C 25.734 74.584 27.399 74.405 27.868 74.218 C 28.175 74.095 28.16 74.093 28.414 74.305 Z  M 46.04 75.82 C 46.068 76.096 46.174 76.508 46.274 76.735 L 46.457 77.148 L 46.219 77.257 C 46.028 77.344 45.967 77.34 45.909 77.236 C 45.752 76.957 44.782 75.638 44.689 75.579 C 44.557 75.495 45.134 75.336 45.607 75.326 L 45.988 75.317 L 46.04 75.82 Z  M 44.605 75.896 C 44.665 76.061 44.942 76.543 45.219 76.966 C 45.906 78.013 45.57 78.107 44.488 77.17 C 44.028 76.772 43.884 76.717 43.884 76.937 C 43.884 77.165 44.515 77.792 44.961 78.008 C 45.246 78.146 45.361 78.252 45.325 78.345 C 45.296 78.419 45.273 78.555 45.273 78.647 C 45.273 78.935 44.144 79.345 43.005 79.47 C 42.186 79.559 42.139 79.551 42.309 79.347 C 42.373 79.269 42.393 79.206 42.354 79.206 C 42.192 79.206 42.663 78.801 43.051 78.607 C 43.336 78.465 43.574 78.412 43.804 78.441 C 44.223 78.493 44.332 78.342 44.051 78.098 C 43.192 77.353 43.123 77.265 43.186 77.006 C 43.278 76.629 43.669 76.105 44.054 75.84 C 44.487 75.542 44.475 75.541 44.605 75.896 Z  M 49.97 76.377 C 49.958 76.38 49.813 76.477 49.648 76.594 C 49.286 76.847 49.284 76.836 49.577 76.322 C 49.704 76.101 49.813 75.836 49.819 75.734 C 49.825 75.632 49.866 75.734 49.91 75.96 C 49.955 76.186 49.982 76.373 49.97 76.377 Z  M 31.667 76.514 C 32.195 76.816 33.036 77.24 33.536 77.456 C 34.577 77.906 34.579 77.889 33.469 78.267 C 30.768 79.185 28.307 79.269 25.6 78.537 L 24.859 78.337 L 25.183 78.247 C 27.379 77.639 30.028 76.577 30.416 76.149 C 30.635 75.906 30.573 75.888 31.667 76.514 Z  M 51.641 76.665 C 52.39 77.19 52.314 78.844 51.512 79.475 C 51.111 79.79 49.995 79.671 49.995 79.312 C 49.995 79.18 50.099 79.164 50.79 79.192 C 52.148 79.249 52.003 78.86 50.631 78.766 C 50.23 78.739 49.902 78.688 49.902 78.653 C 49.902 78.555 50.28 78.234 50.712 77.966 C 51.094 77.73 51.238 77.447 50.978 77.447 C 50.907 77.447 50.596 77.616 50.286 77.823 L 49.723 78.198 L 49.404 77.982 C 48.992 77.702 49.051 77.596 49.958 76.99 C 50.723 76.477 51.233 76.379 51.641 76.665 Z  M 48.512 77.677 C 48.716 77.819 48.886 78.002 48.888 78.084 C 48.89 78.166 49.015 78.378 49.165 78.554 C 49.494 78.939 49.502 78.999 49.231 79.037 C 48.998 79.07 48.897 79.415 49.062 79.613 C 49.294 79.893 48.369 80.342 47.542 80.351 C 46.847 80.358 46.356 80.133 46.046 79.664 C 45.127 78.276 47.091 76.693 48.512 77.677 Z  M 45.228 79.483 C 45.145 79.574 44.892 79.747 44.666 79.867 C 44.266 80.079 44.119 80.317 44.388 80.317 C 44.617 80.317 45.033 80.127 45.25 79.925 C 45.364 79.817 45.468 79.747 45.481 79.769 C 45.494 79.79 45.598 79.915 45.713 80.045 C 45.978 80.347 45.849 80.866 45.276 81.817 C 44.863 82.502 44.85 82.539 45.023 82.539 C 45.332 82.539 46.008 81.55 46.15 80.889 C 46.198 80.669 46.256 80.596 46.354 80.634 C 46.43 80.663 46.541 80.688 46.6 80.689 C 46.68 80.69 46.681 80.708 46.602 80.758 C 46.436 80.865 46.326 82.481 46.488 82.428 C 46.558 82.406 46.679 82.132 46.757 81.821 L 46.899 81.255 L 47.067 81.843 C 47.28 82.586 47.212 82.914 46.749 83.378 C 45.768 84.358 43.461 84.065 42.822 82.879 C 42.602 82.47 42.829 81.815 43.135 81.978 C 43.88 82.377 45.366 81.728 45.366 81.004 C 45.366 80.67 45.145 80.723 44.564 81.196 C 43.652 81.939 42.458 81.388 42.254 80.13 L 42.201 79.808 L 42.721 79.84 C 43.313 79.876 44.422 79.65 44.903 79.395 C 45.278 79.197 45.446 79.242 45.228 79.483 Z  M 53.435 81.121 C 53.93 81.454 54.563 83.3 54.755 84.969 C 54.818 85.521 54.86 85.533 53.953 84.741 C 51.874 82.923 51.378 82.271 51.447 81.444 C 51.486 80.981 51.464 80.744 51.362 80.55 C 51.224 80.287 51.225 80.284 51.604 80.091 L 51.985 79.898 L 52.541 80.396 C 52.846 80.67 53.249 80.996 53.435 81.121 Z  M 50.222 80.231 C 51.444 80.688 51.192 82.249 49.784 82.951 C 48.788 83.447 48.145 83.057 47.733 81.705 C 47.648 81.425 47.538 81.123 47.489 81.034 C 47.413 80.895 47.443 80.872 47.703 80.871 C 47.869 80.87 48.092 80.846 48.199 80.817 C 48.375 80.77 48.405 80.823 48.506 81.351 C 48.684 82.276 48.809 82.631 48.957 82.631 C 49.117 82.631 49.055 81.812 48.842 81.101 L 48.716 80.684 L 49.16 81.056 C 49.897 81.673 50.186 81.528 49.494 80.89 L 49.085 80.513 L 49.378 80.28 C 49.734 79.998 49.618 80.005 50.222 80.231 Z  M 42.31 82.998 C 42.31 83.048 42.437 83.232 42.591 83.407 L 42.872 83.727 L 42.013 84.792 C 41.014 86.03 41.032 86.024 41.283 85.022 C 41.553 83.945 42.31 82.453 42.31 82.998 Z " fill-rule="evenodd" fill="rgb(0,0,0)"/></g><text x="0" y="110" fill="#000000" font-size="5px" font-weight="bold" font-family="'Helvetica Neue', Helvetica, Arial-Unicode, Arial, Sans-serif">Created by Marcel Dornis</text><text x="0" y="115" fill="#000000" font-size="5px" font-weight="bold" font-family="'Helvetica Neue', Helvetica, Arial-Unicode, Arial, Sans-serif">from the Noun Project</text></svg>