<svg xmlns="http://www.w3.org/2000/svg" viewBox="0 0 100 125" fill="none" x="0px" y="0px"><path fill-rule="evenodd" clip-rule="evenodd" d="M60.0598 6.5223C61.0785 4.51789 63.28 2.87493 65.8759 2.21774C66.5659 2.05344 68.3075 1.95487 69.7533 2.02059C74.485 2.21774 78.5924 4.7479 80.7283 8.75673C81.2869 9.80822 81.7469 10.794 81.7469 10.8926C81.7469 10.9912 80.9254 11.0897 79.9397 11.0897C77.0809 11.0897 74.7808 12.3384 73.6635 14.4414C72.9078 15.92 73.1378 16.1172 74.4522 15.0657C76.128 13.7185 78.3296 12.7984 80.5311 12.5355L82.4041 12.3055V14.8028C82.4041 16.5115 82.2069 17.8587 81.7469 19.0417C81.0897 20.7175 79.7754 22.5905 79.2168 22.5905C79.0525 22.5905 78.3296 21.999 77.6395 21.2432C76.0623 19.6331 71.2977 16.0186 67.486 13.5542L64.6601 11.7469V10.2683C64.6601 8.36242 65.2516 6.94947 66.6645 5.53652C67.716 4.51789 67.716 4.45217 66.9603 4.68218C64.1015 5.50366 62.5243 7.01519 62.1957 9.24962L61.9657 10.6626L60.6841 9.97252C59.2055 9.1839 59.074 8.42814 60.0598 6.5223ZM30.2565 13.6199C32.9181 11.2212 36.7955 9.41393 41.1658 8.62531C49.6434 7.04807 58.154 9.31535 67.6175 15.6243C74.6493 20.2903 78.9867 25.515 81.1226 31.7911C82.0427 34.4527 82.207 35.5042 82.3384 38.9544C82.5355 44.0147 81.7141 47.8921 79.6111 52.0981C76.6537 57.947 72.6121 61.4958 65.613 64.256C64.8573 64.5517 64.693 64.8475 64.4958 66.5233C63.9044 71.9122 66.3359 80.6528 69.7204 85.0888C70.3776 85.9431 70.9034 86.7317 70.9034 86.8303C70.9034 87.3889 68.9647 89.459 67.1574 90.8063C63.7401 93.4021 60.0927 95.0122 54.9666 96.228C52.075 96.9181 47.2119 97.2467 46.7518 96.7866C46.6204 96.6552 46.719 95.538 46.949 94.3222C47.5405 91.3649 47.5405 84.6616 46.949 82.5586C45.8975 78.8126 43.7288 75.8224 42.053 75.8224C41.6915 75.8224 39.8514 76.4139 37.9784 77.1368C33.871 78.7469 31.3409 79.437 29.5007 79.437C27.5949 79.437 26.3462 78.1883 26.0505 75.9539C25.9775 75.2969 25.8865 74.6219 25.8308 74.2091C25.8113 74.0645 25.7962 73.952 25.7876 73.8838C25.7548 73.6209 25.2948 73.2594 24.7361 73.0951C23.0275 72.5365 22.5017 71.8793 22.6989 70.4664C22.8632 69.382 22.7646 69.152 22.0745 68.8563C20.9245 68.3305 20.7602 67.1805 21.5817 65.8661C21.976 65.2418 22.2717 64.5846 22.2717 64.4203C22.2717 64.2231 21.6802 63.8288 20.9573 63.5002C19.2158 62.7116 18 61.5615 18 60.7401C18 60.3457 18.6572 59.36 19.4787 58.5056C21.2859 56.6327 22.3374 54.5625 22.5346 52.4924C22.666 50.9809 22.6332 50.9151 21.5817 50.5208L20.4644 50.0608L21.5488 49.9622C23.2246 49.7322 22.9617 48.5821 20.1359 44.0804C19.2815 42.7003 19.1829 42.1746 19.0844 39.5458C18.9858 36.5885 18.9858 36.5557 19.5444 37.3771C22.9946 42.2074 27.8578 44.8033 34.101 45.0991L37.2227 45.2634L34.5939 44.4419C27.0034 42.0103 22.3046 38.6258 20.0044 33.9269C16.8171 27.4865 19.7744 18.9431 26.3134 15.69C27.3977 15.1643 28.4821 14.7043 28.6793 14.7043C28.9093 14.7043 29.5993 14.2114 30.2565 13.6199ZM58.4169 13.7842C58.4169 13.6199 57.6282 13.3242 56.7082 13.127C53.948 12.5684 51.8122 12.437 49.7092 12.7656C42.0858 13.9156 36.7626 18.1873 34.9225 24.6935C34.2982 26.8622 34.3639 31.1996 35.0539 31.8896C35.3168 32.1525 35.4154 32.0211 35.4154 31.2653C35.4154 30.7396 35.7111 29.1952 36.1054 27.848C37.8798 21.4404 41.9544 17.103 48.0005 15.1972C50.4321 14.4085 57.4968 13.5213 58.1211 13.9156C58.2854 14.0142 58.4169 13.9485 58.4169 13.7842ZM29.5007 28.8009C28.5807 23.3791 30.9465 17.8588 35.744 14.2442C38.1099 12.5027 37.9127 12.3055 35.2182 13.7513C29.4022 16.7744 26.5434 21.7033 26.9706 27.9137C27.2663 32.6454 29.0407 35.9642 32.7538 38.8229C33.871 39.6773 34.7582 40.3016 34.7582 40.203C34.7582 40.1045 34.2325 39.1844 33.5753 38.1986C31.5709 35.0113 29.895 31.2325 29.5007 28.8009ZM41.0015 29.2938C48.6248 27.0265 54.7366 23.7406 60.2241 18.8445C62.5243 16.8073 60.6842 17.4316 53.028 21.2761C46.0947 24.7592 42.743 26.7636 40.3443 28.8337L39.1942 29.8195L41.0015 29.2938ZM50.3335 38.2972C57.0368 34.9456 61.7028 29.7538 63.8058 23.3462C64.7587 20.4546 64.3315 20.1918 62.6886 22.5905C58.8112 28.3409 54.8352 32.3497 50.1363 35.2742C46.8504 37.3114 41.7901 39.6773 38.9642 40.4659L37.2227 40.9917L40.3443 40.8602C44.1888 40.6959 46.9818 39.973 50.3335 38.2972ZM60.257 46.0848C66.7303 42.2732 70.8705 32.744 69.2604 25.2192C69.0304 24.1349 68.7347 23.1491 68.6032 23.0834C68.4718 22.9848 68.3404 23.8391 68.3404 24.9892C68.3404 29.1623 66.2702 35.2742 63.3129 39.6773C61.5714 42.2732 56.4782 47.5635 55.7224 47.5635C55.591 47.5635 55.4595 47.6949 55.4595 47.8921C55.4595 48.3193 58.2854 47.2349 60.257 46.0848ZM76.3251 42.6346C77.6067 37.87 77.1795 31.7911 75.2737 27.3551C74.4522 25.515 73.4007 23.8391 74.025 25.3835C75.1751 28.2423 75.5365 30.7396 75.3722 34.4198C75.2737 36.4899 74.9451 39.0858 74.6822 40.1702C73.2692 45.2962 69.6219 50.8494 65.4816 54.1682C64.2987 55.1211 63.4115 55.9426 63.4772 56.0083C63.51 56.074 64.1672 55.9098 64.8901 55.6469C70.3776 53.7082 74.6822 48.8122 76.3251 42.6346Z" fill="black"/><text x="0" y="115" fill="#000000" font-size="5px" font-weight="bold" font-family="'Helvetica Neue', Helvetica, Arial-Unicode, Arial, Sans-serif">Created by G-CAT</text><text x="0" y="120" fill="#000000" font-size="5px" font-weight="bold" font-family="'Helvetica Neue', Helvetica, Arial-Unicode, Arial, Sans-serif">from the Noun Project</text></svg>