<svg xmlns="http://www.w3.org/2000/svg" xmlns:xlink="http://www.w3.org/1999/xlink" xml:space="preserve" version="1.1" style="shape-rendering:geometricPrecision;text-rendering:geometricPrecision;image-rendering:optimizeQuality;" viewBox="0 0 847 1058.75" x="0px" y="0px" fill-rule="evenodd" clip-rule="evenodd"><defs><style type="text/css">
   
    .fil0 {fill:none}
    .fil1 {fill:black}
   
  </style></defs><g><rect class="fil0" width="847" height="847"/><path class="fil1" d="M42 458c0,0 32,-60 111,-95 0,0 56,-41 84,-126 0,0 0,73 -15,96 0,0 47,-15 76,-15 0,0 70,-69 61,-106 0,0 17,72 -14,98l61 -1c0,0 74,-58 76,-108 0,0 11,73 -36,111l72 10c0,0 73,-52 83,-96 0,0 9,56 -46,101 0,0 94,32 155,-53 0,0 -20,52 -39,64 0,0 77,-10 102,-45 0,0 -14,38 -45,57 0,0 48,13 76,-28 0,0 -12,67 -143,81 -97,11 -137,7 -151,5 20,25 32,56 32,91 0,81 -66,147 -147,147 -81,0 -147,-66 -147,-147 0,-39 15,-75 40,-101 -77,5 -165,22 -246,60z"/></g><text x="0" y="862" fill="#000000" font-size="5px" font-weight="bold" font-family="'Helvetica Neue', Helvetica, Arial-Unicode, Arial, Sans-serif">Created by ArtBone</text><text x="0" y="867" fill="#000000" font-size="5px" font-weight="bold" font-family="'Helvetica Neue', Helvetica, Arial-Unicode, Arial, Sans-serif">from the Noun Project</text></svg>