<svg xmlns="http://www.w3.org/2000/svg" version="1.1" viewBox="-5.0 -10.0 110.0 135.0">
 <g>
  <path d="m85.938 87.074h-25.57c-1.1172 0-1.9961-0.87891-1.9961-1.9961v-27.168h-16.82v27.168c0 1.1172-0.87891 1.9961-1.9961 1.9961h-25.57c-1.1172 0-1.9961-0.87891-1.9961-1.9961l-0.003906-41.512c0-1.1172 0.87891-1.9961 1.9961-1.9961 1.1172 0 1.9961 0.87891 1.9961 1.9961v39.512h21.574v-27.168c0-1.1172 0.87891-1.9961 1.9961-1.9961h20.816c1.1172 0 1.9961 0.87891 1.9961 1.9961v27.168h21.574l0.003906-39.512c0-1.1172 0.87891-1.9961 1.9961-1.9961 1.1172 0 1.9961 0.87891 1.9961 1.9961v41.512c0.003906 1.0781-0.875 1.9961-1.9922 1.9961z"/>
  <path d="m98.004 51.277c-0.39844 0-0.80078-0.12109-1.1602-0.35938l-46.863-33.52-46.824 33.52c-0.87891 0.64062-2.1562 0.44141-2.7969-0.48047-0.64062-0.87891-0.44141-2.1562 0.48047-2.7969l47.98-34.359c0.67969-0.48047 1.6367-0.48047 2.3164 0l47.98 34.359c0.87891 0.64062 1.1172 1.8789 0.48047 2.7969-0.35547 0.5625-0.99609 0.83984-1.5938 0.83984z"/>
 </g>
<text x="0.0" y="117.5" font-size="5.0" font-weight="bold" font-family="Arbeit Regular, Helvetica, Arial-Unicode, Arial, Sans-serif" fill="#000000">Created by PureSolution</text><text x="0.0" y="122.5" font-size="5.0" font-weight="bold" font-family="Arbeit Regular, Helvetica, Arial-Unicode, Arial, Sans-serif" fill="#000000">from Noun Project</text></svg>