<svg xmlns="http://www.w3.org/2000/svg" xmlns:xlink="http://www.w3.org/1999/xlink" version="1.1" x="0px" y="0px" viewBox="0 0 64 80" style="enable-background:new 0 0 64 64;" xml:space="preserve"><g><path d="M57,30.2h-8.2c-2,0-6.9-3.4-9.7-5.6l3.6-3.6c1.5-1.5,1.1-4-0.9-6c-2-2-4.5-2.4-6-0.9l-5,5c-1.5-0.2-3-0.1-4.4,0.4   c-0.1,0-0.2,0.1-0.2,0.1l-17.3,13c-1,0.4-1.7,1.2-2.1,2.2c-0.4,1-0.3,2.2,0.1,3.2c0.7,1.3,2,2.2,3.5,2.2c0,0,0,0,0,0l-4.3,9.1   c-0.2,0.4-0.1,0.8,0.2,1.1c0.2,0.2,0.4,0.3,0.7,0.3c0.1,0,0.3,0,0.4-0.1l9.9-4.7c0.2,0.4,0.5,0.8,0.8,1.2c0.8,0.8,1.8,1.2,2.9,1.2   h26c0.3,0,0.5,0,0.7,0v1.5c0,0.6,0.4,1,1,1H57c0.6,0,1-0.4,1-1V31.2C58,30.7,57.5,30.2,57,30.2z M10.4,38.2c-0.7,0-1.4-0.4-1.7-1.1   c-0.2-0.5-0.3-1-0.1-1.6c0.2-0.5,0.6-0.9,1.1-1.1c0.1,0,0.2-0.1,0.2-0.1l17.3-13c0.5-0.2,1.1-0.3,1.6-0.4L12.2,37.6l-1.4,0.6   C10.7,38.2,10.6,38.2,10.4,38.2z M9.1,47.6l3.2-6.7l3.5,3.5L9.1,47.6z M17.5,43.3l-4.1-4.1l0,0c0,0,0,0,0,0l23.6-23.6   c0.7-0.7,2.2-0.1,3.2,0.9c1,1,1.7,2.4,0.9,3.2L36.9,24c0,0,0,0,0,0c0,0,0,0,0,0L17.5,43.3z M28.7,37.3c0,0.7-0.3,1.4-0.8,2   c-0.5,0.5-1.2,0.8-2,0.8h-2.4l4.5-4.5C28.5,36.1,28.7,36.7,28.7,37.3z M21,46.3c-0.6,0-1.1-0.2-1.5-0.6c-0.3-0.3-0.5-0.6-0.6-1   l2.6-2.6h2h2.4h10c0.6,0,1-0.4,1-1s-0.4-1-1-1h-6.1c0.6-0.8,0.9-1.8,0.9-2.8c0-1.2-0.4-2.3-1.2-3.2l8.2-8.2c2,1.7,7,5.3,10.1,6.1   v14.2c-0.2,0-0.4,0-0.7,0H21z M56,48.8h-6.2V32.2H56V48.8z"/></g><text x="0" y="79" fill="#000000" font-size="5px" font-weight="bold" font-family="'Helvetica Neue', Helvetica, Arial-Unicode, Arial, Sans-serif">Created by Andre Buand</text><text x="0" y="84" fill="#000000" font-size="5px" font-weight="bold" font-family="'Helvetica Neue', Helvetica, Arial-Unicode, Arial, Sans-serif">from the Noun Project</text></svg>