<svg xmlns="http://www.w3.org/2000/svg" version="1.1" viewBox="-5.0 -10.0 110.0 135.0">
 <path d="m98.871 39.117c-0.12891-0.11328-3.168-2.7539-7.3164-4.4062-2.7734-1.1055-4.3555-1.6875-5.1016-1.9531-0.62891-0.37891-1.2461-0.76953-1.8008-1.1641-7.2578-5.0859-15.453-10.613-22.316-14.051-6.168-4.8438-12.852-8.75-19.973-11.965-5.8398-2.9336-13-3.3242-19.414-2.8047-2.4297 0.33594-4.4219 1.4766-6.4297 2.5859-4.9414 2.8906-9.3281 6.3594-13.527 10.074-0.21875 0.17188 0.054687 0.53125 0.27344 0.37891 6.0664-3.2305 11.957-6.8242 18.379-8.8984 1.2266-0.40234 2.3398-0.22656 3.5195-0.19141 8.2539-0.14453 15.449 3.0898 22.605 6.7969 4.8594 2.4492 9.6484 5.1211 13.879 8.3984 4.4922 3.2461 7.2422 7.7734 10.137 12.289 2.8711 4.6523 5.4961 9.5664 8.1758 14.422 4.332 7.5742 8.4453 17.035 12.176 24.844-2.25-1.1289-5.6133 0.66406-5.3984 3.4688 0.039063 0.5 0.16406 1.043 0.33984 1.6055-1.0352-1.9883-2.0742-3.9766-3.1055-5.9688l-5.4102-10.062c-3.4805-6.8086-7.2383-13.75-12.965-18.91-0.10547 0.027343-0.15625 0.14453-0.11719 0.24219 2.2383 7.5117 6.1797 13.93 10.652 20.195 3.5156 5.293 8.457 12.703 12.207 18.039-1.0977-0.51953-2.4492-0.33594-3.9961 0.69141-0.84375 0.5625-1.3359 1.1797-1.5898 1.8125-8.8086-12.453-17.363-25.164-27.906-36.238-0.12109-0.16406-0.39062 0.007813-0.30859 0.18359 1.8438 4.4922 4.3984 8.5664 7 12.551 4.9258 7.4766 11.941 15.52 18.039 22.953-1.1523-0.42969-2.4648 0.015625-3.5352 0.80859-0.73047 0.54297-1.2227 1.3008-1.4336 2.1133-1.3438-1.5664-2.6797-3.1406-4.0156-4.7148-7.5039-9.0508-14.504-18.469-23.562-26.094-0.13281-0.14844-0.37891 0.027343-0.30078 0.19922 3.4102 7.2266 8.4062 13.375 13.984 18.98 0.69922 0.71094 1.4453 1.4805 2.2109 2.2695-0.99219-0.30859-2.082-0.15625-3.0234 0.64844-0.72656 0.62109-1.0586 1.3789-1.1367 2.1445-2.8516-2.6172-5.6445-5.3008-8.3594-8.0312-3.4883-3.4297-6.3516-7.1367-9.5312-10.836-3.1836-3.543-7.1797-6.7891-10.234-10.195-4.2383-4.5508-6.8711-9.6602-8.7656-15.676-1.0664-3.7773-3.5781-6.375-7.7617-6.1875-0.25781-0.015625-0.32812 0.38281-0.09375 0.46094 3.3086 1.2344 4.4609 3.043 4.7461 6.4961-2.8516 2.0039-6.043 5.2422-7.9492 7.9336-2.7383 3.293-5.3477 6.6914-7.8555 10.176-0.15625 0.20703 0.12891 0.48438 0.33203 0.33203 3.4844-2.5039 6.8828-5.1172 10.176-7.8555 2.4453-1.8008 4.2734-3.8203 6.1562-5.6523 2.168 8.6602 7.4922 13.879 15.18 19.543 4.9883 3.9766 8.918 9.2422 13.766 13.379 3.7734 3.3789 7.6758 6.6055 11.711 9.6367 1.2695 1.3945 3.1289 3.0977 3.7852 3.6016 1.4961 1.1406 5.4414-1.9922 4.3203-3.9258-0.19531-0.33594-0.39844-0.64844-0.60547-0.95703 2.6914 2.7656 5.4531 5.5391 7.9609 7.8672 1.3672 1.6328 4.5508 5.3164 4.8711 5.4727 1.457 0.69922 5.4844-2.2422 5.125-3.6953-0.03125-0.12109-0.75781-1.2578-1.6523-2.6094 0.61328 0.78906 1.6367 2.1172 2.6602 3.1719 1.4062 1.7422 2.8906 3.3398 3.5859 3.3008 1.0117-0.054687 4.0156-2.1523 4.4453-3.0586 0.46094-0.96094-1.9922-4.9961-3.6406-7.5898 0.35938 0.33203 0.71484 0.58594 1.0195 0.64062 1.7383 0.32422 3.9062-1.3516 4.5039-2.1953 0.69922-0.98047-0.31641-3.5742-1.3477-5.8008-0.38281-0.82812-0.83203-1.7617-1.3086-2.5742-3.6562-9.457-7.4023-18.879-11.855-28.062-0.15234-0.28906-0.30469-0.58594-0.45703-0.87891 1.2344 0.42969 2.5234 0.77734 3.9297 0.98438 0.78125 0.11328 1.5039 0.16406 2.1758 0.16406 4.6875 0 6.8281-2.4961 7.7227-4.1133 0.11719-0.20703 0.21484-0.42188 0.3125-0.64062 1.75-0.21484 2.8594-1.1406 3.3242-1.8633l0.73047-1.1328-1.0117-0.88672zm-12.801 5.3828c-2.3477-0.34375-4.3477-1.1641-6.5156-2.125-2.8203-5.7148-5.6445-11.625-9.3867-16.746 5.0039 3.1445 9.7461 6.4648 12.68 8.5234 0.30859 0.21875 0.63672 0.43359 0.97266 0.65234 0.09375 1.8477 1.2969 5.4883 8.6562 7.7852-1.207 1.6758-3.3984 2.3398-6.4023 1.9141z"/>
<text x="0.0" y="117.5" font-size="5.0" font-weight="bold" font-family="Arbeit Regular, Helvetica, Arial-Unicode, Arial, Sans-serif" fill="#000000">Created by Piyapong Khemawattana</text><text x="0.0" y="122.5" font-size="5.0" font-weight="bold" font-family="Arbeit Regular, Helvetica, Arial-Unicode, Arial, Sans-serif" fill="#000000">from Noun Project</text></svg>