<svg xmlns="http://www.w3.org/2000/svg" xmlns:xlink="http://www.w3.org/1999/xlink" width="120" zoomAndPan="magnify" viewBox="0 0 90 112.499997" height="150" preserveAspectRatio="xMidYMid meet" version="1.0"><defs><clipPath id="d10a697990"><path d="M 27 8.671875 L 63 8.671875 L 63 58 L 27 58 Z M 27 8.671875 " clip-rule="nonzero"/></clipPath></defs><path fill="#000000" d="M 30.421875 98.273438 C 30.101562 89.554688 30.917969 86.402344 24.679688 81.871094 C 21.539062 79.589844 19.488281 78.765625 14.5625 76.375 C 9.65625 73.988281 9.339844 71.988281 8.417969 67.730469 C 7.550781 63.722656 6.804688 60.816406 5.445312 56.949219 C 4.179688 53.347656 4.417969 51.203125 4.34375 48.023438 C 4.21875 42.75 3.769531 36.085938 2.160156 31.636719 C 0.046875 25.785156 5.941406 30.214844 7.585938 34.722656 C 8.300781 36.6875 9.097656 39.515625 9.804688 43.511719 C 10.59375 45.902344 11.355469 48.101562 11.855469 50.457031 C 13.304688 57.25 17.300781 60.316406 21.277344 64.25 C 23.734375 66.679688 24.949219 66.753906 22.523438 63.171875 C 19.972656 59.40625 17.855469 55.515625 16.257812 51.234375 C 13.835938 44.746094 17.589844 44.488281 20.691406 49.132812 C 22.726562 52.179688 25.609375 56.832031 27.347656 58.472656 C 30.59375 61.539062 33.496094 66.128906 37.261719 68.425781 C 39.933594 70.054688 40.707031 71.535156 41.96875 74.574219 C 43.140625 77.402344 42.800781 80.769531 42.707031 83.136719 C 42.53125 87.542969 42.921875 92.339844 42.96875 98.273438 C 39.171875 98.273438 34.21875 98.273438 30.421875 98.273438 Z M 59.765625 98.273438 C 60.085938 89.554688 59.269531 86.402344 65.507812 81.871094 C 68.648438 79.589844 70.699219 78.765625 75.625 76.375 C 80.527344 73.988281 80.847656 71.988281 81.769531 67.730469 C 82.636719 63.722656 83.382812 60.816406 84.742188 56.949219 C 86.003906 53.347656 85.769531 51.203125 85.84375 48.023438 C 85.96875 42.75 86.417969 36.085938 88.027344 31.636719 C 90.140625 25.785156 84.246094 30.214844 82.601562 34.722656 C 81.886719 36.6875 81.089844 39.515625 80.382812 43.511719 C 79.59375 45.902344 78.832031 48.101562 78.332031 50.457031 C 76.882812 57.25 72.886719 60.316406 68.910156 64.25 C 66.449219 66.679688 65.238281 66.753906 67.664062 63.171875 C 70.210938 59.40625 72.332031 55.515625 73.929688 51.234375 C 76.351562 44.746094 72.59375 44.488281 69.496094 49.132812 C 67.460938 52.179688 64.578125 56.832031 62.835938 58.472656 C 59.59375 61.539062 56.6875 66.128906 52.925781 68.425781 C 50.253906 70.054688 49.480469 71.535156 48.21875 74.574219 C 47.046875 77.402344 47.386719 80.769531 47.480469 83.136719 C 47.65625 87.542969 47.265625 92.339844 47.21875 98.273438 C 51.015625 98.273438 55.96875 98.273438 59.765625 98.273438 Z M 59.765625 98.273438 " fill-opacity="1" fill-rule="evenodd"/><g clip-path="url(#d10a697990)"><path fill="#000000" d="M 62.699219 46.332031 C 62.765625 57.144531 27.328125 65.550781 27.488281 46.332031 C 27.648438 26.574219 62.632812 35.644531 62.699219 46.332031 Z M 49.808594 14.699219 C 49.839844 20.128906 32.046875 24.347656 32.128906 14.699219 C 32.210938 4.78125 49.773438 9.335938 49.808594 14.699219 Z M 37.964844 26.910156 C 37.921875 34.460938 62.675781 40.332031 62.566406 26.910156 C 62.453125 13.109375 38.011719 19.445312 37.964844 26.910156 Z M 37.964844 26.910156 " fill-opacity="1" fill-rule="evenodd"/></g></svg>